  0
SECTION
  2
HEADER
  9
$ACADVER
  1
AC1009
  9
$DWGCODEPAGE
  3
ansi_1252
  9
$INSBASE
 10
0.0
 20
0.0
 30
0.0
  9
$EXTMIN
 10
-44.9797
 20
-44.9797
 30
0.0
  9
$EXTMAX
 10
44.9797
 20
44.9797
 30
0.0
  9
$LIMMIN
 10
0.0
 20
0.0
  9
$LIMMAX
 10
12.0
 20
9.0
  9
$ORTHOMODE
 70
     0
  9
$REGENMODE
 70
     1
  9
$FILLMODE
 70
     1
  9
$QTEXTMODE
 70
     0
  9
$MIRRTEXT
 70
     1
  9
$DRAGMODE
 70
     2
  9
$LTSCALE
 40
1.0
  9
$OSMODE
 70
    37
  9
$ATTMODE
 70
     1
  9
$TEXTSIZE
 40
0.2
  9
$TRACEWID
 40
0.05
  9
$TEXTSTYLE
  7
STANDARD
  9
$CLAYER
  8
0
  9
$CELTYPE
  6
BYLAYER
  9
$CECOLOR
 62
   256
  9
$DIMSCALE
 40
1.0
  9
$DIMASZ
 40
0.18
  9
$DIMEXO
 40
0.0625
  9
$DIMDLI
 40
0.38
  9
$DIMRND
 40
0.0
  9
$DIMDLE
 40
0.0
  9
$DIMEXE
 40
0.18
  9
$DIMTP
 40
0.0
  9
$DIMTM
 40
0.0
  9
$DIMTXT
 40
0.18
  9
$DIMCEN
 40
0.09
  9
$DIMTSZ
 40
0.0
  9
$DIMTOL
 70
     0
  9
$DIMLIM
 70
     0
  9
$DIMTIH
 70
     1
  9
$DIMTOH
 70
     1
  9
$DIMSE1
 70
     0
  9
$DIMSE2
 70
     0
  9
$DIMTAD
 70
     0
  9
$DIMZIN
 70
     0
  9
$DIMBLK
  1

  9
$DIMASO
 70
     1
  9
$DIMSHO
 70
     1
  9
$DIMPOST
  1

  9
$DIMAPOST
  1

  9
$DIMALT
 70
     0
  9
$DIMALTD
 70
     2
  9
$DIMALTF
 40
25.4
  9
$DIMLFAC
 40
1.0
  9
$DIMTOFL
 70
     0
  9
$DIMTVP
 40
0.0
  9
$DIMTIX
 70
     0
  9
$DIMSOXD
 70
     0
  9
$DIMSAH
 70
     0
  9
$DIMBLK1
  1

  9
$DIMBLK2
  1

  9
$DIMSTYLE
  2
STANDARD
  9
$DIMCLRD
 70
     0
  9
$DIMCLRE
 70
     0
  9
$DIMCLRT
 70
     0
  9
$DIMTFAC
 40
1.0
  9
$DIMGAP
 40
0.09
  9
$LUNITS
 70
     2
  9
$LUPREC
 70
     4
  9
$SKETCHINC
 40
0.1
  9
$FILLETRAD
 40
0.5
  9
$AUNITS
 70
     0
  9
$AUPREC
 70
     0
  9
$MENU
  1
.
  9
$ELEVATION
 40
0.0
  9
$PELEVATION
 40
0.0
  9
$THICKNESS
 40
0.0
  9
$LIMCHECK
 70
     0
  9
$CHAMFERA
 40
0.0
  9
$CHAMFERB
 40
0.0
  9
$SKPOLY
 70
     0
  9
$TDCREATE
 40
2459355.736731562
  9
$TDUPDATE
 40
2459355.736731632
  9
$TDINDWG
 40
0.0000000116
  9
$TDUSRTIMER
 40
0.0000000116
  9
$USRTIMER
 70
     1
  9
$ANGBASE
 50
0.0
  9
$ANGDIR
 70
     0
  9
$PDMODE
 70
     0
  9
$PDSIZE
 40
0.0
  9
$PLINEWID
 40
0.0
  9
$COORDS
 70
     1
  9
$SPLFRAME
 70
     0
  9
$SPLINETYPE
 70
     6
  9
$SPLINESEGS
 70
     8
  9
$ATTDIA
 70
     0
  9
$ATTREQ
 70
     1
  9
$HANDLING
 70
     1
  9
$HANDSEED
  5
658
  9
$SURFTAB1
 70
     6
  9
$SURFTAB2
 70
     6
  9
$SURFTYPE
 70
     6
  9
$SURFU
 70
     6
  9
$SURFV
 70
     6
  9
$UCSNAME
  2

  9
$UCSORG
 10
0.0
 20
0.0
 30
0.0
  9
$UCSXDIR
 10
1.0
 20
0.0
 30
0.0
  9
$UCSYDIR
 10
0.0
 20
1.0
 30
0.0
  9
$PUCSNAME
  2

  9
$PUCSORG
 10
0.0
 20
0.0
 30
0.0
  9
$PUCSXDIR
 10
1.0
 20
0.0
 30
0.0
  9
$PUCSYDIR
 10
0.0
 20
1.0
 30
0.0
  9
$USERI1
 70
     0
  9
$USERI2
 70
     0
  9
$USERI3
 70
     0
  9
$USERI4
 70
     0
  9
$USERI5
 70
     0
  9
$USERR1
 40
0.0
  9
$USERR2
 40
0.0
  9
$USERR3
 40
0.0
  9
$USERR4
 40
0.0
  9
$USERR5
 40
0.0
  9
$WORLDVIEW
 70
     1
  9
$SHADEDGE
 70
     3
  9
$SHADEDIF
 70
    70
  9
$TILEMODE
 70
     1
  9
$MAXACTVP
 70
    64
  9
$PLIMCHECK
 70
     0
  9
$PEXTMIN
 10
1.000000000000000E+20
 20
1.000000000000000E+20
 30
1.000000000000000E+20
  9
$PEXTMAX
 10
-1.000000000000000E+20
 20
-1.000000000000000E+20
 30
-1.000000000000000E+20
  9
$PLIMMIN
 10
-0.25
 20
-0.25
  9
$PLIMMAX
 10
10.75
 20
8.25
  9
$UNITMODE
 70
     0
  9
$VISRETAIN
 70
     1
  9
$PLINEGEN
 70
     0
  9
$PSLTSCALE
 70
     1
  0
ENDSEC
  0
SECTION
  2
TABLES
  0
TABLE
  2
VPORT
 70
     1
  0
VPORT
  2
*ACTIVE
 70
     0
 10
0.0
 20
0.0
 11
1.0
 21
1.0
 12
-18.93345505333335
 22
5.145677680000006
 13
0.0
 23
0.0
 14
0.5
 24
0.5
 15
0.5
 25
0.5
 16
0.0
 26
0.0
 36
1.0
 17
0.0
 27
0.0
 37
0.0
 40
140.336664
 41
1.310769230769231
 42
50.0
 43
0.0
 44
0.0
 50
0.0
 51
0.0
 71
     0
 72
   100
 73
     1
 74
     3
 75
     0
 76
     0
 77
     0
 78
     0
  0
ENDTAB
  0
TABLE
  2
LTYPE
 70
    52
  0
LTYPE
  2
CONTINUOUS
 70
     0
  3
Solid line
 72
    65
 73
     0
 40
0.0
  0
LTYPE
  2
ZIGZAG
 70
     0
  3
Zig zag /\/\/\/\/\/\/\/\/\/\/\/\/\/\/\/\/\/\/\/\/\/\/\/
 72
    65
 73
     4
 40
20.32254
 49
0.00254
 49
-5.08
 49
-10.16
 49
-5.08
  0
LTYPE
  2
ACAD_ISO03W100
 70
     0
  3
ISO dash space __    __    __    __    __    __
 72
    65
 73
     2
 40
30.0
 49
12.0
 49
-18.0
  0
LTYPE
  2
ACAD_ISO02W100
 70
     0
  3
ISO dash __ __ __ __ __ __ __ __ __ __ __ __ __
 72
    65
 73
     2
 40
15.0
 49
12.0
 49
-3.0
  0
LTYPE
  2
ACAD_ISO05W100
 70
     0
  3
ISO long-dash double-dot ____ .. ____ .. ____ . 
 72
    65
 73
     6
 40
33.0
 49
24.0
 49
-3.0
 49
0.0
 49
-3.0
 49
0.0
 49
-3.0
  0
LTYPE
  2
ACAD_ISO04W100
 70
     0
  3
ISO long-dash dot ____ . ____ . ____ . ____ . _
 72
    65
 73
     4
 40
30.0
 49
24.0
 49
-3.0
 49
0.0
 49
-3.0
  0
LTYPE
  2
ACAD_ISO07W100
 70
     0
  3
ISO dot . . . . . . . . . . . . . . . . . . . . 
 72
    65
 73
     2
 40
3.0
 49
0.0
 49
-3.0
  0
LTYPE
  2
ACAD_ISO06W100
 70
     0
  3
ISO long-dash triple-dot ____ ... ____ ... ____
 72
    65
 73
     8
 40
36.0
 49
24.0
 49
-3.0
 49
0.0
 49
-3.0
 49
0.0
 49
-3.0
 49
0.0
 49
-3.0
  0
LTYPE
  2
ACAD_ISO09W100
 70
     0
  3
ISO long-dash double-short-dash ____ __ __ ____
 72
    65
 73
     6
 40
45.0
 49
24.0
 49
-3.0
 49
6.0
 49
-3.0
 49
6.0
 49
-3.0
  0
LTYPE
  2
ACAD_ISO08W100
 70
     0
  3
ISO long-dash short-dash ____ __ ____ __ ____ _
 72
    65
 73
     4
 40
36.0
 49
24.0
 49
-3.0
 49
6.0
 49
-3.0
  0
LTYPE
  2
ACAD_ISO11W100
 70
     0
  3
ISO double-dash dot __ __ . __ __ . __ __ . __ _
 72
    65
 73
     6
 40
33.0
 49
12.0
 49
-3.0
 49
12.0
 49
-3.0
 49
0.0
 49
-3.0
  0
LTYPE
  2
ACAD_ISO10W100
 70
     0
  3
ISO dash dot __ . __ . __ . __ . __ . __ . __ . 
 72
    65
 73
     4
 40
18.0
 49
12.0
 49
-3.0
 49
0.0
 49
-3.0
  0
LTYPE
  2
ACAD_ISO13W100
 70
     0
  3
ISO double-dash double-dot __ __ . . __ __ . . _
 72
    65
 73
     8
 40
36.0
 49
12.0
 49
-3.0
 49
12.0
 49
-3.0
 49
0.0
 49
-3.0
 49
0.0
 49
-3.0
  0
LTYPE
  2
ACAD_ISO12W100
 70
     0
  3
ISO dash double-dot __ . . __ . . __ . . __ . . 
 72
    65
 73
     6
 40
21.0
 49
12.0
 49
-3.0
 49
0.0
 49
-3.0
 49
0.0
 49
-3.0
  0
LTYPE
  2
ACAD_ISO15W100
 70
     0
  3
ISO double-dash triple-dot __ __ . . . __ __ . .
 72
    65
 73
    10
 40
39.0
 49
12.0
 49
-3.0
 49
12.0
 49
-3.0
 49
0.0
 49
-3.0
 49
0.0
 49
-3.0
 49
0.0
 49
-3.0
  0
LTYPE
  2
ACAD_ISO14W100
 70
     0
  3
ISO dash triple-dot __ . . . __ . . . __ . . . _
 72
    65
 73
     8
 40
24.0
 49
12.0
 49
-3.0
 49
0.0
 49
-3.0
 49
0.0
 49
-3.0
 49
0.0
 49
-3.0
  0
LTYPE
  2
BORDER
 70
     0
  3
Border __ __ . __ __ . __ __ . __ __ . __ __ .
 72
    65
 73
     6
 40
44.45
 49
12.7
 49
-6.35
 49
12.7
 49
-6.35
 49
0.0
 49
-6.35
  0
LTYPE
  2
BATTING
 70
     0
  3
Batting SSSSSSSSSSSSSSSSSSSSSSSSSSSSSSSSSSSSSSSSSSSSSSS
 72
    65
 73
     4
 40
10.16254
 49
0.00254
 49
-2.54
 49
-5.08
 49
-2.54
  0
LTYPE
  2
BORDERX2
 70
     0
  3
Border (2x) ____  ____  .  ____  ____  .  ___
 72
    65
 73
     6
 40
88.89999999999999
 49
25.4
 49
-12.7
 49
25.4
 49
-12.7
 49
0.0
 49
-12.7
  0
LTYPE
  2
BORDER2
 70
     0
  3
Border (.5x) __.__.__.__.__.__.__.__.__.__.__.
 72
    65
 73
     6
 40
22.225
 49
6.35
 49
-3.175
 49
6.35
 49
-3.175
 49
0.0
 49
-3.175
  0
LTYPE
  2
CENTER2
 70
     0
  3
Center (.5x) ___ _ ___ _ ___ _ ___ _ ___ _ ___
 72
    65
 73
     4
 40
28.575
 49
19.05
 49
-3.175
 49
3.175
 49
-3.175
  0
LTYPE
  2
CENTER
 70
     0
  3
Center ____ _ ____ _ ____ _ ____ _ ____ _ ____
 72
    65
 73
     4
 40
50.8
 49
31.75
 49
-6.35
 49
6.35
 49
-6.35
  0
LTYPE
  2
CUTLEFT
 70
     0
  3
G41 ----\----\----\----
 72
    65
 73
     2
 40
10.16
 49
5.08
 49
5.08
  0
LTYPE
  2
CENTERX2
 70
     0
  3
Center (2x) ________  __  ________  __  _____
 72
    65
 73
     4
 40
101.6
 49
63.5
 49
-12.7
 49
12.7
 49
-12.7
  0
LTYPE
  2
CUTRIGHT
 70
     0
  3
G42 ----/----/-----/---
 72
    65
 73
     2
 40
10.16
 49
5.08
 49
5.08
  0
LTYPE
  2
CUTLEFT2
 70
     0
  3
G41 reversed----/----/----/----
 72
    65
 73
     2
 40
10.16
 49
5.08
 49
5.08
  0
LTYPE
  2
DASHDOT
 70
     0
  3
Dash dot __ . __ . __ . __ . __ . __ . __ . __
 72
    65
 73
     4
 40
25.4
 49
12.7
 49
-6.35
 49
0.0
 49
-6.35
  0
LTYPE
  2
CUTRIGHT2
 70
     0
  3
G42 reversed----\----\----\----
 72
    65
 73
     2
 40
10.16
 49
5.08
 49
5.08
  0
LTYPE
  2
DASHDOTX2
 70
     0
  3
Dash dot (2x) ____  .  ____  .  ____  .  ___
 72
    65
 73
     4
 40
50.8
 49
25.4
 49
-12.7
 49
0.0
 49
-12.7
  0
LTYPE
  2
DASHDOT2
 70
     0
  3
Dash dot (.5x) _._._._._._._._._._._._._._._.
 72
    65
 73
     4
 40
12.7
 49
6.35
 49
-3.175
 49
0.0
 49
-3.175
  0
LTYPE
  2
DASHED2
 70
     0
  3
Dashed (.5x) _ _ _ _ _ _ _ _ _ _ _ _ _ _ _ _ _ 
 72
    65
 73
     2
 40
9.524999999999999
 49
6.35
 49
-3.175
  0
LTYPE
  2
DASHED
 70
     0
  3
Dashed __ __ __ __ __ __ __ __ __ __ __ __ __ _
 72
    65
 73
     2
 40
19.05
 49
12.7
 49
-6.35
  0
LTYPE
  2
DIVIDE
 70
     0
  3
Divide ____ . . ____ . . ____ . . ____ . . ____
 72
    65
 73
     6
 40
31.75
 49
12.7
 49
-6.35
 49
0.0
 49
-6.35
 49
0.0
 49
-6.35
  0
LTYPE
  2
DASHEDX2
 70
     0
  3
Dashed (2x) ____  ____  ____  ____  ____  ___
 72
    65
 73
     2
 40
38.09999999999999
 49
25.4
 49
-12.7
  0
LTYPE
  2
DIVIDEX2
 70
     0
  3
Divide (2x) ________  .  .  ________  .  .  _
 72
    65
 73
     6
 40
63.5
 49
25.4
 49
-12.7
 49
0.0
 49
-12.7
 49
0.0
 49
-12.7
  0
LTYPE
  2
DIVIDE2
 70
     0
  3
Divide (.5x) __..__..__..__..__..__..__..__.._
 72
    65
 73
     6
 40
15.875
 49
6.35
 49
-3.175
 49
0.0
 49
-3.175
 49
0.0
 49
-3.175
  0
LTYPE
  2
DOT2
 70
     0
  3
Dot (.5x) ........................................
 72
    65
 73
     2
 40
3.175
 49
0.0
 49
-3.175
  0
LTYPE
  2
DOT
 70
     0
  3
Dot . . . . . . . . . . . . . . . . . . . . . . . .
 72
    65
 73
     2
 40
6.35
 49
0.0
 49
-6.35
  0
LTYPE
  2
DRAINAGE
 70
     0
  3
Drainage ---->---->---->----
 72
    65
 73
     2
 40
10.16
 49
5.08
 49
5.08
  0
LTYPE
  2
DOTX2
 70
     0
  3
Dot (2x) .  .  .  .  .  .  .  .  .  .  .  .  .  .
 72
    65
 73
     2
 40
12.7
 49
0.0
 49
-12.7
  0
LTYPE
  2
FENCELINE1
 70
     0
  3
Fenceline circle ----0-----0----0-----0----0-----0--
 72
    65
 73
     4
 40
36.83
 49
6.35
 49
-2.54
 49
-2.54
 49
25.4
  0
LTYPE
  2
DRAINAGE2
 70
     0
  3
Drainage reversed----<----<----<----
 72
    65
 73
     2
 40
10.16
 49
5.08
 49
5.08
  0
LTYPE
  2
GAS_LINE
 70
     0
  3
Gas line ----GAS----GAS----GAS----GAS----GAS----GAS--
 72
    65
 73
     3
 40
24.13
 49
12.7
 49
-5.08
 49
-6.35
  0
LTYPE
  2
FENCELINE2
 70
     0
  3
Fenceline square ----[]-----[]----[]-----[]----[]---
 72
    65
 73
     4
 40
36.83
 49
6.35
 49
-2.54
 49
-2.54
 49
25.4
  0
LTYPE
  2
HIDDEN2
 70
     0
  3
Hidden (.5x) _ _ _ _ _ _ _ _ _ _ _ _ _ _ _ _ _ 
 72
    65
 73
     2
 40
4.762499999999999
 49
3.175
 49
-1.5875
  0
LTYPE
  2
HIDDEN
 70
     0
  3
Hidden __ __ __ __ __ __ __ __ __ __ __ __ __ __
 72
    65
 73
     2
 40
9.524999999999999
 49
6.35
 49
-3.175
  0
LTYPE
  2
HOT_WATER_SUPPLY
 70
     0
  3
Hot water supply ---- HW ---- HW ---- HW ----
 72
    65
 73
     3
 40
22.86
 49
12.7
 49
-5.08
 49
-5.08
  0
LTYPE
  2
HIDDENX2
 70
     0
  3
Hidden (2x) ____ ____ ____ ____ ____ ____ ____ 
 72
    65
 73
     2
 40
19.05
 49
12.7
 49
-6.35
  0
LTYPE
  2
PHANTOM2
 70
     0
  3
Phantom (.5x) ___ _ _ ___ _ _ ___ _ _ ___ _ _
 72
    65
 73
     6
 40
31.75
 49
15.875
 49
-3.175
 49
3.175
 49
-3.175
 49
3.175
 49
-3.175
  0
LTYPE
  2
PHANTOM
 70
     0
  3
Phantom ______  __  __  ______  __  __  ______ 
 72
    65
 73
     6
 40
63.50000000000001
 49
31.75
 49
-6.35
 49
6.35
 49
-6.35
 49
6.35
 49
-6.35
  0
LTYPE
  2
TRACKS
 70
     0
  3
Tracks -|-|-|-|-|-|-|-|-|-|-|-|-|-|-|-|-|-|-|-|-|-|-|-|-
 72
    65
 73
     2
 40
7.62
 49
3.81
 49
3.81
  0
LTYPE
  2
PHANTOMX2
 70
     0
  3
Phantom (2x) ____________    ____    ____   _
 72
    65
 73
     6
 40
127.0
 49
63.5
 49
-12.7
 49
12.7
 49
-12.7
 49
12.7
 49
-12.7
  0
ENDTAB
  0
TABLE
  2
LAYER
 70
     1
  0
LAYER
  2
0
 70
     0
 62
     7
  6
CONTINUOUS
  0
ENDTAB
  0
TABLE
  2
STYLE
 70
     2
  0
STYLE
  2
STANDARD
 70
     0
 40
0.0
 41
1.0
 50
0.0
 71
     0
 42
0.2
  3
txt
  4

  0
STYLE
  2
QCADDIMTEXTSTYLE
 70
     0
 40
0.0
 41
1.0
 50
0.0
 71
     0
 42
0.2
  3

  4

  0
ENDTAB
  0
TABLE
  2
VIEW
 70
     0
  0
ENDTAB
  0
TABLE
  2
UCS
 70
     0
  0
ENDTAB
  0
TABLE
  2
APPID
 70
     2
  0
APPID
  2
ACAD
 70
     0
  0
APPID
  2
QCAD
 70
     0
  0
ENDTAB
  0
TABLE
  2
DIMSTYLE
 70
     2
  0
DIMSTYLE
  2
STANDARD
 70
     0
  3

  4

  5

  6

  7

 40
1.0
 41
0.18
 42
0.0625
 43
0.38
 44
0.18
 45
0.0
 46
0.0
 47
0.0
 48
0.0
140
0.18
141
0.09
142
0.0
143
25.4
144
1.0
145
0.0
146
1.0
147
0.09
 71
     0
 72
     0
 73
     1
 74
     1
 75
     0
 76
     0
 77
     0
 78
     0
170
     0
171
     2
172
     0
173
     0
174
     0
175
     0
176
     0
177
     0
178
     0
  0
DIMSTYLE
  2
QCADDIMSTYLE
 70
     0
  3

  4

  5

  6

  7

 40
1.0
 41
0.18
 42
0.0625
 43
0.38
 44
0.18
 45
0.0
 46
0.0
 47
0.0
 48
0.0
140
0.18
141
0.09
142
0.0
143
25.4
144
1.0
145
0.0
146
1.0
147
0.09
 71
     0
 72
     0
 73
     0
 74
     1
 75
     0
 76
     0
 77
     1
 78
     0
170
     0
171
     2
172
     0
173
     0
174
     0
175
     0
176
     0
177
     0
178
     0
  0
ENDTAB
  0
ENDSEC
  0
SECTION
  2
BLOCKS
  0
BLOCK
  8
0
  2
$MODEL_SPACE
 70
     0
 10
0.0
 20
0.0
 30
0.0
  3
$MODEL_SPACE
  1

  0
ENDBLK
  5
594
  8
0
  0
BLOCK
 67
     1
  8
0
  2
$PAPER_SPACE
 70
     0
 10
0.0
 20
0.0
 30
0.0
  3
$PAPER_SPACE
  1

  0
ENDBLK
  5
590
 67
     1
  8
0
  0
ENDSEC
  0
SECTION
  2
ENTITIES
  0
LINE
  5
44
  8
0
 62
     1
 10
4.70166
 20
-44.7333
 30
0.0
 11
9.35181
 21
-43.9968
 31
0.0
  0
LINE
  5
45
  8
0
 62
     1
 10
9.35181
 20
-43.9968
 30
0.0
 11
13.8995
 21
-42.7782
 31
0.0
  0
LINE
  5
46
  8
0
 62
     1
 10
13.8995
 20
-42.7782
 30
0.0
 11
18.2949
 21
-41.091
 31
0.0
  0
LINE
  5
47
  8
0
 62
     1
 10
18.2949
 20
-41.091
 30
0.0
 11
22.4899
 21
-38.9536
 31
0.0
  0
LINE
  5
48
  8
0
 62
     1
 10
22.4899
 20
-38.9536
 30
0.0
 11
26.4384
 21
-36.3894
 31
0.0
  0
LINE
  5
49
  8
0
 62
     1
 10
26.4384
 20
-36.3894
 30
0.0
 11
30.0973
 21
-33.4264
 31
0.0
  0
LINE
  5
4A
  8
0
 62
     1
 10
30.0973
 20
-33.4264
 30
0.0
 11
33.4264
 21
-30.0973
 31
0.0
  0
LINE
  5
4B
  8
0
 62
     1
 10
33.4264
 20
-30.0973
 30
0.0
 11
36.3894
 21
-26.4384
 31
0.0
  0
LINE
  5
4C
  8
0
 62
     1
 10
36.3894
 20
-26.4384
 30
0.0
 11
38.9536
 21
-22.4899
 31
0.0
  0
LINE
  5
4D
  8
0
 62
     1
 10
38.9536
 20
-22.4899
 30
0.0
 11
41.091
 21
-18.2949
 31
0.0
  0
LINE
  5
4E
  8
0
 62
     1
 10
41.091
 20
-18.2949
 30
0.0
 11
42.7782
 21
-13.8995
 31
0.0
  0
LINE
  5
4F
  8
0
 62
     1
 10
42.7782
 20
-13.8995
 30
0.0
 11
43.9968
 21
-9.35181
 31
0.0
  0
LINE
  5
50
  8
0
 62
     1
 10
43.9968
 20
-9.35181
 30
0.0
 11
44.7333
 21
-4.70166
 31
0.0
  0
LINE
  5
51
  8
0
 62
     1
 10
44.7333
 20
-4.70166
 30
0.0
 11
44.9797
 21
0.0
 31
0.0
  0
LINE
  5
52
  8
0
 62
     1
 10
44.9797
 20
0.0
 30
0.0
 11
44.7333
 21
4.70166
 31
0.0
  0
LINE
  5
53
  8
0
 62
     1
 10
44.7333
 20
4.70166
 30
0.0
 11
43.9968
 21
9.35181
 31
0.0
  0
LINE
  5
54
  8
0
 62
     1
 10
43.9968
 20
9.35181
 30
0.0
 11
42.7782
 21
13.8995
 31
0.0
  0
LINE
  5
55
  8
0
 62
     1
 10
42.7782
 20
13.8995
 30
0.0
 11
41.091
 21
18.2949
 31
0.0
  0
LINE
  5
56
  8
0
 62
     1
 10
41.091
 20
18.2949
 30
0.0
 11
38.9536
 21
22.4899
 31
0.0
  0
LINE
  5
57
  8
0
 62
     1
 10
38.9536
 20
22.4899
 30
0.0
 11
36.3894
 21
26.4384
 31
0.0
  0
LINE
  5
58
  8
0
 62
     1
 10
36.3894
 20
26.4384
 30
0.0
 11
33.4264
 21
30.0973
 31
0.0
  0
LINE
  5
59
  8
0
 62
     1
 10
33.4264
 20
30.0973
 30
0.0
 11
30.0973
 21
33.4264
 31
0.0
  0
LINE
  5
5A
  8
0
 62
     1
 10
30.0973
 20
33.4264
 30
0.0
 11
26.4384
 21
36.3894
 31
0.0
  0
LINE
  5
5B
  8
0
 62
     1
 10
26.4384
 20
36.3894
 30
0.0
 11
22.4899
 21
38.9536
 31
0.0
  0
LINE
  5
5C
  8
0
 62
     1
 10
22.4899
 20
38.9536
 30
0.0
 11
18.2949
 21
41.091
 31
0.0
  0
LINE
  5
5D
  8
0
 62
     1
 10
18.2949
 20
41.091
 30
0.0
 11
13.8995
 21
42.7782
 31
0.0
  0
LINE
  5
5E
  8
0
 62
     1
 10
13.8995
 20
42.7782
 30
0.0
 11
9.35181
 21
43.9968
 31
0.0
  0
LINE
  5
5F
  8
0
 62
     1
 10
9.35181
 20
43.9968
 30
0.0
 11
4.70166
 21
44.7333
 31
0.0
  0
LINE
  5
60
  8
0
 62
     1
 10
4.70166
 20
44.7333
 30
0.0
 11
0.0
 21
44.9797
 31
0.0
  0
LINE
  5
61
  8
0
 62
     1
 10
0.0
 20
44.9797
 30
0.0
 11
-4.70166
 21
44.7333
 31
0.0
  0
LINE
  5
62
  8
0
 62
     1
 10
-4.70166
 20
44.7333
 30
0.0
 11
-9.35181
 21
43.9968
 31
0.0
  0
LINE
  5
63
  8
0
 62
     1
 10
-9.35181
 20
43.9968
 30
0.0
 11
-13.8995
 21
42.7782
 31
0.0
  0
LINE
  5
64
  8
0
 62
     1
 10
-13.8995
 20
42.7782
 30
0.0
 11
-18.2949
 21
41.091
 31
0.0
  0
LINE
  5
65
  8
0
 62
     1
 10
-18.2949
 20
41.091
 30
0.0
 11
-22.4899
 21
38.9536
 31
0.0
  0
LINE
  5
66
  8
0
 62
     1
 10
-22.4899
 20
38.9536
 30
0.0
 11
-26.4384
 21
36.3894
 31
0.0
  0
LINE
  5
67
  8
0
 62
     1
 10
-26.4384
 20
36.3894
 30
0.0
 11
-30.0973
 21
33.4264
 31
0.0
  0
LINE
  5
68
  8
0
 62
     1
 10
-30.0973
 20
33.4264
 30
0.0
 11
-33.4264
 21
30.0973
 31
0.0
  0
LINE
  5
69
  8
0
 62
     1
 10
-33.4264
 20
30.0973
 30
0.0
 11
-36.3894
 21
26.4384
 31
0.0
  0
LINE
  5
6A
  8
0
 62
     1
 10
-36.3894
 20
26.4384
 30
0.0
 11
-38.9536
 21
22.4899
 31
0.0
  0
LINE
  5
6B
  8
0
 62
     1
 10
-38.9536
 20
22.4899
 30
0.0
 11
-41.091
 21
18.2949
 31
0.0
  0
LINE
  5
6C
  8
0
 62
     1
 10
-41.091
 20
18.2949
 30
0.0
 11
-42.7782
 21
13.8995
 31
0.0
  0
LINE
  5
6D
  8
0
 62
     1
 10
-42.7782
 20
13.8995
 30
0.0
 11
-43.9968
 21
9.35181
 31
0.0
  0
LINE
  5
6E
  8
0
 62
     1
 10
-43.9968
 20
9.35181
 30
0.0
 11
-44.7333
 21
4.70166
 31
0.0
  0
LINE
  5
6F
  8
0
 62
     1
 10
-44.7333
 20
4.70166
 30
0.0
 11
-44.9797
 21
0.0
 31
0.0
  0
LINE
  5
70
  8
0
 62
     1
 10
-44.9797
 20
0.0
 30
0.0
 11
-44.7333
 21
-4.70166
 31
0.0
  0
LINE
  5
71
  8
0
 62
     1
 10
-44.7333
 20
-4.70166
 30
0.0
 11
-43.9968
 21
-9.35181
 31
0.0
  0
LINE
  5
72
  8
0
 62
     1
 10
-43.9968
 20
-9.35181
 30
0.0
 11
-42.7782
 21
-13.8995
 31
0.0
  0
LINE
  5
73
  8
0
 62
     1
 10
-42.7782
 20
-13.8995
 30
0.0
 11
-41.091
 21
-18.2949
 31
0.0
  0
LINE
  5
74
  8
0
 62
     1
 10
-41.091
 20
-18.2949
 30
0.0
 11
-38.9536
 21
-22.4899
 31
0.0
  0
LINE
  5
75
  8
0
 62
     1
 10
-38.9536
 20
-22.4899
 30
0.0
 11
-36.3894
 21
-26.4384
 31
0.0
  0
LINE
  5
76
  8
0
 62
     1
 10
-36.3894
 20
-26.4384
 30
0.0
 11
-33.4264
 21
-30.0973
 31
0.0
  0
LINE
  5
77
  8
0
 62
     1
 10
-33.4264
 20
-30.0973
 30
0.0
 11
-30.0973
 21
-33.4264
 31
0.0
  0
LINE
  5
78
  8
0
 62
     1
 10
-30.0973
 20
-33.4264
 30
0.0
 11
-26.4384
 21
-36.3894
 31
0.0
  0
LINE
  5
79
  8
0
 62
     1
 10
-26.4384
 20
-36.3894
 30
0.0
 11
-22.4899
 21
-38.9536
 31
0.0
  0
LINE
  5
7A
  8
0
 62
     1
 10
-22.4899
 20
-38.9536
 30
0.0
 11
-18.2949
 21
-41.091
 31
0.0
  0
LINE
  5
7B
  8
0
 62
     1
 10
-18.2949
 20
-41.091
 30
0.0
 11
-13.8995
 21
-42.7782
 31
0.0
  0
LINE
  5
7C
  8
0
 62
     1
 10
-13.8995
 20
-42.7782
 30
0.0
 11
-9.35181
 21
-43.9968
 31
0.0
  0
LINE
  5
7D
  8
0
 62
     1
 10
-9.35181
 20
-43.9968
 30
0.0
 11
-4.70166
 21
-44.7333
 31
0.0
  0
LINE
  5
7E
  8
0
 62
     1
 10
-4.70166
 20
-44.7333
 30
0.0
 11
0.0
 21
-44.9797
 31
0.0
  0
LINE
  5
7F
  8
0
 62
     1
 10
0.0
 20
-44.9797
 30
0.0
 11
4.70166
 21
-44.7333
 31
0.0
  0
LINE
  5
80
  8
0
 62
     1
 10
-0.75
 20
38.6807
 30
0.0
 11
-1.21352
 21
39.098
 31
0.0
  0
LINE
  5
81
  8
0
 62
     1
 10
-1.21352
 20
39.098
 30
0.0
 11
-1.46721
 21
39.6678
 31
0.0
  0
LINE
  5
82
  8
0
 62
     1
 10
-1.46721
 20
39.6678
 30
0.0
 11
-1.46721
 21
40.2916
 31
0.0
  0
LINE
  5
83
  8
0
 62
     1
 10
-1.46721
 20
40.2916
 30
0.0
 11
-1.21352
 21
40.8614
 31
0.0
  0
LINE
  5
84
  8
0
 62
     1
 10
-1.21352
 20
40.8614
 30
0.0
 11
-0.75
 21
41.2787
 31
0.0
  0
LINE
  5
85
  8
0
 62
     1
 10
-0.75
 20
41.2787
 30
0.0
 11
-0.156784
 21
41.4715
 31
0.0
  0
LINE
  5
86
  8
0
 62
     1
 10
-0.156784
 20
41.4715
 30
0.0
 11
0.463516
 21
41.4063
 31
0.0
  0
LINE
  5
87
  8
0
 62
     1
 10
0.463516
 20
41.4063
 30
0.0
 11
1.00369
 21
41.0944
 31
0.0
  0
LINE
  5
88
  8
0
 62
     1
 10
1.00369
 20
41.0944
 30
0.0
 11
1.37032
 21
40.5898
 31
0.0
  0
LINE
  5
89
  8
0
 62
     1
 10
1.37032
 20
40.5898
 30
0.0
 11
1.5
 21
39.9797
 31
0.0
  0
LINE
  5
8A
  8
0
 62
     1
 10
1.5
 20
39.9797
 30
0.0
 11
1.37032
 21
39.3696
 31
0.0
  0
LINE
  5
8B
  8
0
 62
     1
 10
1.37032
 20
39.3696
 30
0.0
 11
1.00369
 21
38.865
 31
0.0
  0
LINE
  5
8C
  8
0
 62
     1
 10
1.00369
 20
38.865
 30
0.0
 11
0.463516
 21
38.5531
 31
0.0
  0
LINE
  5
8D
  8
0
 62
     1
 10
0.463516
 20
38.5531
 30
0.0
 11
-0.156784
 21
38.4879
 31
0.0
  0
LINE
  5
8E
  8
0
 62
     1
 10
-0.156784
 20
38.4879
 30
0.0
 11
-0.75
 21
38.6807
 31
0.0
  0
LINE
  5
8F
  8
0
 62
     1
 10
-7.0042
 20
38.1885
 30
0.0
 11
-7.46773
 21
38.6058
 31
0.0
  0
LINE
  5
90
  8
0
 62
     1
 10
-7.46773
 20
38.6058
 30
0.0
 11
-7.72142
 21
39.1756
 31
0.0
  0
LINE
  5
91
  8
0
 62
     1
 10
-7.72142
 20
39.1756
 30
0.0
 11
-7.72142
 21
39.7994
 31
0.0
  0
LINE
  5
92
  8
0
 62
     1
 10
-7.72142
 20
39.7994
 30
0.0
 11
-7.46773
 21
40.3692
 31
0.0
  0
LINE
  5
93
  8
0
 62
     1
 10
-7.46773
 20
40.3692
 30
0.0
 11
-7.0042
 21
40.7865
 31
0.0
  0
LINE
  5
94
  8
0
 62
     1
 10
-7.0042
 20
40.7865
 30
0.0
 11
-6.411
 21
40.9793
 31
0.0
  0
LINE
  5
95
  8
0
 62
     1
 10
-6.411
 20
40.9793
 30
0.0
 11
-5.79068
 21
40.9141
 31
0.0
  0
LINE
  5
96
  8
0
 62
     1
 10
-5.79068
 20
40.9141
 30
0.0
 11
-5.2505
 21
40.6022
 31
0.0
  0
LINE
  5
97
  8
0
 62
     1
 10
-5.2505
 20
40.6022
 30
0.0
 11
-4.88388
 21
40.0976
 31
0.0
  0
LINE
  5
98
  8
0
 62
     1
 10
-4.88388
 20
40.0976
 30
0.0
 11
-4.7542
 21
39.4875
 31
0.0
  0
LINE
  5
99
  8
0
 62
     1
 10
-4.7542
 20
39.4875
 30
0.0
 11
-4.88388
 21
38.8774
 31
0.0
  0
LINE
  5
9A
  8
0
 62
     1
 10
-4.88388
 20
38.8774
 30
0.0
 11
-5.2505
 21
38.3728
 31
0.0
  0
LINE
  5
9B
  8
0
 62
     1
 10
-5.2505
 20
38.3728
 30
0.0
 11
-5.79068
 21
38.0609
 31
0.0
  0
LINE
  5
9C
  8
0
 62
     1
 10
-5.79068
 20
38.0609
 30
0.0
 11
-6.411
 21
37.9957
 31
0.0
  0
LINE
  5
9D
  8
0
 62
     1
 10
-6.411
 20
37.9957
 30
0.0
 11
-7.0042
 21
38.1885
 31
0.0
  0
LINE
  5
9E
  8
0
 62
     1
 10
5.5042
 20
38.1885
 30
0.0
 11
5.04068
 21
38.6058
 31
0.0
  0
LINE
  5
9F
  8
0
 62
     1
 10
5.04068
 20
38.6058
 30
0.0
 11
4.78697
 21
39.1756
 31
0.0
  0
LINE
  5
A0
  8
0
 62
     1
 10
4.78697
 20
39.1756
 30
0.0
 11
4.78697
 21
39.7994
 31
0.0
  0
LINE
  5
A1
  8
0
 62
     1
 10
4.78697
 20
39.7994
 30
0.0
 11
5.04068
 21
40.3692
 31
0.0
  0
LINE
  5
A2
  8
0
 62
     1
 10
5.04068
 20
40.3692
 30
0.0
 11
5.5042
 21
40.7865
 31
0.0
  0
LINE
  5
A3
  8
0
 62
     1
 10
5.5042
 20
40.7865
 30
0.0
 11
6.09741
 21
40.9793
 31
0.0
  0
LINE
  5
A4
  8
0
 62
     1
 10
6.09741
 20
40.9793
 30
0.0
 11
6.71773
 21
40.9141
 31
0.0
  0
LINE
  5
A5
  8
0
 62
     1
 10
6.71773
 20
40.9141
 30
0.0
 11
7.25789
 21
40.6022
 31
0.0
  0
LINE
  5
A6
  8
0
 62
     1
 10
7.25789
 20
40.6022
 30
0.0
 11
7.62451
 21
40.0976
 31
0.0
  0
LINE
  5
A7
  8
0
 62
     1
 10
7.62451
 20
40.0976
 30
0.0
 11
7.7542
 21
39.4875
 31
0.0
  0
LINE
  5
A8
  8
0
 62
     1
 10
7.7542
 20
39.4875
 30
0.0
 11
7.62451
 21
38.8774
 31
0.0
  0
LINE
  5
A9
  8
0
 62
     1
 10
7.62451
 20
38.8774
 30
0.0
 11
7.25789
 21
38.3728
 31
0.0
  0
LINE
  5
AA
  8
0
 62
     1
 10
7.25789
 20
38.3728
 30
0.0
 11
6.71773
 21
38.0609
 31
0.0
  0
LINE
  5
AB
  8
0
 62
     1
 10
6.71773
 20
38.0609
 30
0.0
 11
6.09741
 21
37.9957
 31
0.0
  0
LINE
  5
AC
  8
0
 62
     1
 10
6.09741
 20
37.9957
 30
0.0
 11
5.5042
 21
38.1885
 31
0.0
  0
LINE
  5
AD
  8
0
 62
     1
 10
11.6044
 20
36.7239
 30
0.0
 11
11.1409
 21
37.1413
 31
0.0
  0
LINE
  5
AE
  8
0
 62
     1
 10
11.1409
 20
37.1413
 30
0.0
 11
10.8872
 21
37.7111
 31
0.0
  0
LINE
  5
AF
  8
0
 62
     1
 10
10.8872
 20
37.7111
 30
0.0
 11
10.8872
 21
38.3348
 31
0.0
  0
LINE
  5
B0
  8
0
 62
     1
 10
10.8872
 20
38.3348
 30
0.0
 11
11.1409
 21
38.9046
 31
0.0
  0
LINE
  5
B1
  8
0
 62
     1
 10
11.1409
 20
38.9046
 30
0.0
 11
11.6044
 21
39.322
 31
0.0
  0
LINE
  5
B2
  8
0
 62
     1
 10
11.6044
 20
39.322
 30
0.0
 11
12.1976
 21
39.5148
 31
0.0
  0
LINE
  5
B3
  8
0
 62
     1
 10
12.1976
 20
39.5148
 30
0.0
 11
12.8179
 21
39.4496
 31
0.0
  0
LINE
  5
B4
  8
0
 62
     1
 10
12.8179
 20
39.4496
 30
0.0
 11
13.3581
 21
39.1377
 31
0.0
  0
LINE
  5
B5
  8
0
 62
     1
 10
13.3581
 20
39.1377
 30
0.0
 11
13.7247
 21
38.6331
 31
0.0
  0
LINE
  5
B6
  8
0
 62
     1
 10
13.7247
 20
38.6331
 30
0.0
 11
13.8544
 21
38.023
 31
0.0
  0
LINE
  5
B7
  8
0
 62
     1
 10
13.8544
 20
38.023
 30
0.0
 11
13.7247
 21
37.4129
 31
0.0
  0
LINE
  5
B8
  8
0
 62
     1
 10
13.7247
 20
37.4129
 30
0.0
 11
13.3581
 21
36.9082
 31
0.0
  0
LINE
  5
B9
  8
0
 62
     1
 10
13.3581
 20
36.9082
 30
0.0
 11
12.8179
 21
36.5964
 31
0.0
  0
LINE
  5
BA
  8
0
 62
     1
 10
12.8179
 20
36.5964
 30
0.0
 11
12.1976
 21
36.5312
 31
0.0
  0
LINE
  5
BB
  8
0
 62
     1
 10
12.1976
 20
36.5312
 30
0.0
 11
11.6044
 21
36.7239
 31
0.0
  0
LINE
  5
BC
  8
0
 62
     1
 10
-13.1044
 20
36.7239
 30
0.0
 11
-13.5679
 21
37.1413
 31
0.0
  0
LINE
  5
BD
  8
0
 62
     1
 10
-13.5679
 20
37.1413
 30
0.0
 11
-13.8216
 21
37.7111
 31
0.0
  0
LINE
  5
BE
  8
0
 62
     1
 10
-13.8216
 20
37.7111
 30
0.0
 11
-13.8216
 21
38.3348
 31
0.0
  0
LINE
  5
BF
  8
0
 62
     1
 10
-13.8216
 20
38.3348
 30
0.0
 11
-13.5679
 21
38.9046
 31
0.0
  0
LINE
  5
C0
  8
0
 62
     1
 10
-13.5679
 20
38.9046
 30
0.0
 11
-13.1044
 21
39.322
 31
0.0
  0
LINE
  5
C1
  8
0
 62
     1
 10
-13.1044
 20
39.322
 30
0.0
 11
-12.5112
 21
39.5148
 31
0.0
  0
LINE
  5
C2
  8
0
 62
     1
 10
-12.5112
 20
39.5148
 30
0.0
 11
-11.8909
 21
39.4496
 31
0.0
  0
LINE
  5
C3
  8
0
 62
     1
 10
-11.8909
 20
39.4496
 30
0.0
 11
-11.3507
 21
39.1377
 31
0.0
  0
LINE
  5
C4
  8
0
 62
     1
 10
-11.3507
 20
39.1377
 30
0.0
 11
-10.9841
 21
38.6331
 31
0.0
  0
LINE
  5
C5
  8
0
 62
     1
 10
-10.9841
 20
38.6331
 30
0.0
 11
-10.8544
 21
38.023
 31
0.0
  0
LINE
  5
C6
  8
0
 62
     1
 10
-10.8544
 20
38.023
 30
0.0
 11
-10.9841
 21
37.4129
 31
0.0
  0
LINE
  5
C7
  8
0
 62
     1
 10
-10.9841
 20
37.4129
 30
0.0
 11
-11.3507
 21
36.9082
 31
0.0
  0
LINE
  5
C8
  8
0
 62
     1
 10
-11.3507
 20
36.9082
 30
0.0
 11
-11.8909
 21
36.5964
 31
0.0
  0
LINE
  5
C9
  8
0
 62
     1
 10
-11.8909
 20
36.5964
 30
0.0
 11
-12.5112
 21
36.5312
 31
0.0
  0
LINE
  5
CA
  8
0
 62
     1
 10
-12.5112
 20
36.5312
 30
0.0
 11
-13.1044
 21
36.7239
 31
0.0
  0
LINE
  5
CB
  8
0
 62
     1
 10
17.4004
 20
34.3232
 30
0.0
 11
16.9369
 21
34.7405
 31
0.0
  0
LINE
  5
CC
  8
0
 62
     1
 10
16.9369
 20
34.7405
 30
0.0
 11
16.6832
 21
35.3103
 31
0.0
  0
LINE
  5
CD
  8
0
 62
     1
 10
16.6832
 20
35.3103
 30
0.0
 11
16.6832
 21
35.9341
 31
0.0
  0
LINE
  5
CE
  8
0
 62
     1
 10
16.6832
 20
35.9341
 30
0.0
 11
16.9369
 21
36.5039
 31
0.0
  0
LINE
  5
CF
  8
0
 62
     1
 10
16.9369
 20
36.5039
 30
0.0
 11
17.4004
 21
36.9212
 31
0.0
  0
LINE
  5
D0
  8
0
 62
     1
 10
17.4004
 20
36.9212
 30
0.0
 11
17.9936
 21
37.114
 31
0.0
  0
LINE
  5
D1
  8
0
 62
     1
 10
17.9936
 20
37.114
 30
0.0
 11
18.6139
 21
37.0488
 31
0.0
  0
LINE
  5
D2
  8
0
 62
     1
 10
18.6139
 20
37.0488
 30
0.0
 11
19.1541
 21
36.7369
 31
0.0
  0
LINE
  5
D3
  8
0
 62
     1
 10
19.1541
 20
36.7369
 30
0.0
 11
19.5207
 21
36.2323
 31
0.0
  0
LINE
  5
D4
  8
0
 62
     1
 10
19.5207
 20
36.2323
 30
0.0
 11
19.6504
 21
35.6222
 31
0.0
  0
LINE
  5
D5
  8
0
 62
     1
 10
19.6504
 20
35.6222
 30
0.0
 11
19.5207
 21
35.0121
 31
0.0
  0
LINE
  5
D6
  8
0
 62
     1
 10
19.5207
 20
35.0121
 30
0.0
 11
19.1541
 21
34.5075
 31
0.0
  0
LINE
  5
D7
  8
0
 62
     1
 10
19.1541
 20
34.5075
 30
0.0
 11
18.6139
 21
34.1956
 31
0.0
  0
LINE
  5
D8
  8
0
 62
     1
 10
18.6139
 20
34.1956
 30
0.0
 11
17.9936
 21
34.1304
 31
0.0
  0
LINE
  5
D9
  8
0
 62
     1
 10
17.9936
 20
34.1304
 30
0.0
 11
17.4004
 21
34.3232
 31
0.0
  0
LINE
  5
DA
  8
0
 62
     1
 10
-18.9004
 20
34.3232
 30
0.0
 11
-19.3639
 21
34.7405
 31
0.0
  0
LINE
  5
DB
  8
0
 62
     1
 10
-19.3639
 20
34.7405
 30
0.0
 11
-19.6176
 21
35.3103
 31
0.0
  0
LINE
  5
DC
  8
0
 62
     1
 10
-19.6176
 20
35.3103
 30
0.0
 11
-19.6176
 21
35.9341
 31
0.0
  0
LINE
  5
DD
  8
0
 62
     1
 10
-19.6176
 20
35.9341
 30
0.0
 11
-19.3639
 21
36.5039
 31
0.0
  0
LINE
  5
DE
  8
0
 62
     1
 10
-19.3639
 20
36.5039
 30
0.0
 11
-18.9004
 21
36.9212
 31
0.0
  0
LINE
  5
DF
  8
0
 62
     1
 10
-18.9004
 20
36.9212
 30
0.0
 11
-18.3072
 21
37.114
 31
0.0
  0
LINE
  5
E0
  8
0
 62
     1
 10
-18.3072
 20
37.114
 30
0.0
 11
-17.6869
 21
37.0488
 31
0.0
  0
LINE
  5
E1
  8
0
 62
     1
 10
-17.6869
 20
37.0488
 30
0.0
 11
-17.1467
 21
36.7369
 31
0.0
  0
LINE
  5
E2
  8
0
 62
     1
 10
-17.1467
 20
36.7369
 30
0.0
 11
-16.7801
 21
36.2323
 31
0.0
  0
LINE
  5
E3
  8
0
 62
     1
 10
-16.7801
 20
36.2323
 30
0.0
 11
-16.6504
 21
35.6222
 31
0.0
  0
LINE
  5
E4
  8
0
 62
     1
 10
-16.6504
 20
35.6222
 30
0.0
 11
-16.7801
 21
35.0121
 31
0.0
  0
LINE
  5
E5
  8
0
 62
     1
 10
-16.7801
 20
35.0121
 30
0.0
 11
-17.1467
 21
34.5075
 31
0.0
  0
LINE
  5
E6
  8
0
 62
     1
 10
-17.1467
 20
34.5075
 30
0.0
 11
-17.6869
 21
34.1956
 31
0.0
  0
LINE
  5
E7
  8
0
 62
     1
 10
-17.6869
 20
34.1956
 30
0.0
 11
-18.3072
 21
34.1304
 31
0.0
  0
LINE
  5
E8
  8
0
 62
     1
 10
-18.3072
 20
34.1304
 30
0.0
 11
-18.9004
 21
34.3232
 31
0.0
  0
LINE
  5
E9
  8
0
 62
     1
 10
-24.2495
 20
31.0452
 30
0.0
 11
-24.713
 21
31.4626
 31
0.0
  0
LINE
  5
EA
  8
0
 62
     1
 10
-24.713
 20
31.4626
 30
0.0
 11
-24.9667
 21
32.0324
 31
0.0
  0
LINE
  5
EB
  8
0
 62
     1
 10
-24.9667
 20
32.0324
 30
0.0
 11
-24.9667
 21
32.6561
 31
0.0
  0
LINE
  5
EC
  8
0
 62
     1
 10
-24.9667
 20
32.6561
 30
0.0
 11
-24.713
 21
33.226
 31
0.0
  0
LINE
  5
ED
  8
0
 62
     1
 10
-24.713
 20
33.226
 30
0.0
 11
-24.2495
 21
33.6433
 31
0.0
  0
LINE
  5
EE
  8
0
 62
     1
 10
-24.2495
 20
33.6433
 30
0.0
 11
-23.6563
 21
33.836
 31
0.0
  0
LINE
  5
EF
  8
0
 62
     1
 10
-23.6563
 20
33.836
 30
0.0
 11
-23.036
 21
33.7709
 31
0.0
  0
LINE
  5
F0
  8
0
 62
     1
 10
-23.036
 20
33.7709
 30
0.0
 11
-22.4958
 21
33.459
 31
0.0
  0
LINE
  5
F1
  8
0
 62
     1
 10
-22.4958
 20
33.459
 30
0.0
 11
-22.1292
 21
32.9544
 31
0.0
  0
LINE
  5
F2
  8
0
 62
     1
 10
-22.1292
 20
32.9544
 30
0.0
 11
-21.9995
 21
32.3443
 31
0.0
  0
LINE
  5
F3
  8
0
 62
     1
 10
-21.9995
 20
32.3443
 30
0.0
 11
-22.1292
 21
31.7342
 31
0.0
  0
LINE
  5
F4
  8
0
 62
     1
 10
-22.1292
 20
31.7342
 30
0.0
 11
-22.4958
 21
31.2296
 31
0.0
  0
LINE
  5
F5
  8
0
 62
     1
 10
-22.4958
 20
31.2296
 30
0.0
 11
-23.036
 21
30.9177
 31
0.0
  0
LINE
  5
F6
  8
0
 62
     1
 10
-23.036
 20
30.9177
 30
0.0
 11
-23.6563
 21
30.8525
 31
0.0
  0
LINE
  5
F7
  8
0
 62
     1
 10
-23.6563
 20
30.8525
 30
0.0
 11
-24.2495
 21
31.0452
 31
0.0
  0
LINE
  5
F8
  8
0
 62
     1
 10
22.7495
 20
31.0452
 30
0.0
 11
22.286
 21
31.4626
 31
0.0
  0
LINE
  5
F9
  8
0
 62
     1
 10
22.286
 20
31.4626
 30
0.0
 11
22.0323
 21
32.0324
 31
0.0
  0
LINE
  5
FA
  8
0
 62
     1
 10
22.0323
 20
32.0324
 30
0.0
 11
22.0323
 21
32.6561
 31
0.0
  0
LINE
  5
FB
  8
0
 62
     1
 10
22.0323
 20
32.6561
 30
0.0
 11
22.286
 21
33.226
 31
0.0
  0
LINE
  5
FC
  8
0
 62
     1
 10
22.286
 20
33.226
 30
0.0
 11
22.7495
 21
33.6433
 31
0.0
  0
LINE
  5
FD
  8
0
 62
     1
 10
22.7495
 20
33.6433
 30
0.0
 11
23.3427
 21
33.836
 31
0.0
  0
LINE
  5
FE
  8
0
 62
     1
 10
23.3427
 20
33.836
 30
0.0
 11
23.963
 21
33.7709
 31
0.0
  0
LINE
  5
FF
  8
0
 62
     1
 10
23.963
 20
33.7709
 30
0.0
 11
24.5032
 21
33.459
 31
0.0
  0
LINE
  5
100
  8
0
 62
     1
 10
24.5032
 20
33.459
 30
0.0
 11
24.8698
 21
32.9544
 31
0.0
  0
LINE
  5
101
  8
0
 62
     1
 10
24.8698
 20
32.9544
 30
0.0
 11
24.9995
 21
32.3443
 31
0.0
  0
LINE
  5
102
  8
0
 62
     1
 10
24.9995
 20
32.3443
 30
0.0
 11
24.8698
 21
31.7342
 31
0.0
  0
LINE
  5
103
  8
0
 62
     1
 10
24.8698
 20
31.7342
 30
0.0
 11
24.5032
 21
31.2296
 31
0.0
  0
LINE
  5
104
  8
0
 62
     1
 10
24.5032
 20
31.2296
 30
0.0
 11
23.963
 21
30.9177
 31
0.0
  0
LINE
  5
105
  8
0
 62
     1
 10
23.963
 20
30.9177
 30
0.0
 11
23.3427
 21
30.8525
 31
0.0
  0
LINE
  5
106
  8
0
 62
     1
 10
23.3427
 20
30.8525
 30
0.0
 11
22.7495
 21
31.0452
 31
0.0
  0
LINE
  5
107
  8
0
 62
     1
 10
27.5199
 20
26.9709
 30
0.0
 11
27.0564
 21
27.3882
 31
0.0
  0
LINE
  5
108
  8
0
 62
     1
 10
27.0564
 20
27.3882
 30
0.0
 11
26.8027
 21
27.9581
 31
0.0
  0
LINE
  5
109
  8
0
 62
     1
 10
26.8027
 20
27.9581
 30
0.0
 11
26.8027
 21
28.5818
 31
0.0
  0
LINE
  5
10A
  8
0
 62
     1
 10
26.8027
 20
28.5818
 30
0.0
 11
27.0564
 21
29.1516
 31
0.0
  0
LINE
  5
10B
  8
0
 62
     1
 10
27.0564
 20
29.1516
 30
0.0
 11
27.5199
 21
29.569
 31
0.0
  0
LINE
  5
10C
  8
0
 62
     1
 10
27.5199
 20
29.569
 30
0.0
 11
28.1131
 21
29.7617
 31
0.0
  0
LINE
  5
10D
  8
0
 62
     1
 10
28.1131
 20
29.7617
 30
0.0
 11
28.7334
 21
29.6965
 31
0.0
  0
LINE
  5
10E
  8
0
 62
     1
 10
28.7334
 20
29.6965
 30
0.0
 11
29.2736
 21
29.3846
 31
0.0
  0
LINE
  5
10F
  8
0
 62
     1
 10
29.2736
 20
29.3846
 30
0.0
 11
29.6402
 21
28.88
 31
0.0
  0
LINE
  5
110
  8
0
 62
     1
 10
29.6402
 20
28.88
 30
0.0
 11
29.7699
 21
28.2699
 31
0.0
  0
LINE
  5
111
  8
0
 62
     1
 10
29.7699
 20
28.2699
 30
0.0
 11
29.6402
 21
27.6598
 31
0.0
  0
LINE
  5
112
  8
0
 62
     1
 10
29.6402
 20
27.6598
 30
0.0
 11
29.2736
 21
27.1552
 31
0.0
  0
LINE
  5
113
  8
0
 62
     1
 10
29.2736
 20
27.1552
 30
0.0
 11
28.7334
 21
26.8433
 31
0.0
  0
LINE
  5
114
  8
0
 62
     1
 10
28.7334
 20
26.8433
 30
0.0
 11
28.1131
 21
26.7781
 31
0.0
  0
LINE
  5
115
  8
0
 62
     1
 10
28.1131
 20
26.7781
 30
0.0
 11
27.5199
 21
26.9709
 31
0.0
  0
LINE
  5
116
  8
0
 62
     1
 10
-29.0199
 20
26.9709
 30
0.0
 11
-29.4834
 21
27.3882
 31
0.0
  0
LINE
  5
117
  8
0
 62
     1
 10
-29.4834
 20
27.3882
 30
0.0
 11
-29.7372
 21
27.9581
 31
0.0
  0
LINE
  5
118
  8
0
 62
     1
 10
-29.7372
 20
27.9581
 30
0.0
 11
-29.7372
 21
28.5818
 31
0.0
  0
LINE
  5
119
  8
0
 62
     1
 10
-29.7372
 20
28.5818
 30
0.0
 11
-29.4834
 21
29.1516
 31
0.0
  0
LINE
  5
11A
  8
0
 62
     1
 10
-29.4834
 20
29.1516
 30
0.0
 11
-29.0199
 21
29.569
 31
0.0
  0
LINE
  5
11B
  8
0
 62
     1
 10
-29.0199
 20
29.569
 30
0.0
 11
-28.4267
 21
29.7617
 31
0.0
  0
LINE
  5
11C
  8
0
 62
     1
 10
-28.4267
 20
29.7617
 30
0.0
 11
-27.8064
 21
29.6965
 31
0.0
  0
LINE
  5
11D
  8
0
 62
     1
 10
-27.8064
 20
29.6965
 30
0.0
 11
-27.2662
 21
29.3846
 31
0.0
  0
LINE
  5
11E
  8
0
 62
     1
 10
-27.2662
 20
29.3846
 30
0.0
 11
-26.8996
 21
28.88
 31
0.0
  0
LINE
  5
11F
  8
0
 62
     1
 10
-26.8996
 20
28.88
 30
0.0
 11
-26.7699
 21
28.2699
 31
0.0
  0
LINE
  5
120
  8
0
 62
     1
 10
-26.7699
 20
28.2699
 30
0.0
 11
-26.8996
 21
27.6598
 31
0.0
  0
LINE
  5
121
  8
0
 62
     1
 10
-26.8996
 20
27.6598
 30
0.0
 11
-27.2662
 21
27.1552
 31
0.0
  0
LINE
  5
122
  8
0
 62
     1
 10
-27.2662
 20
27.1552
 30
0.0
 11
-27.8064
 21
26.8433
 31
0.0
  0
LINE
  5
123
  8
0
 62
     1
 10
-27.8064
 20
26.8433
 30
0.0
 11
-28.4267
 21
26.7781
 31
0.0
  0
LINE
  5
124
  8
0
 62
     1
 10
-28.4267
 20
26.7781
 30
0.0
 11
-29.0199
 21
26.9709
 31
0.0
  0
LINE
  5
125
  8
0
 62
     1
 10
-33.0943
 20
22.2004
 30
0.0
 11
-33.5578
 21
22.6178
 31
0.0
  0
LINE
  5
126
  8
0
 62
     1
 10
-33.5578
 20
22.6178
 30
0.0
 11
-33.8115
 21
23.1876
 31
0.0
  0
LINE
  5
127
  8
0
 62
     1
 10
-33.8115
 20
23.1876
 30
0.0
 11
-33.8115
 21
23.8114
 31
0.0
  0
LINE
  5
128
  8
0
 62
     1
 10
-33.8115
 20
23.8114
 30
0.0
 11
-33.5578
 21
24.3812
 31
0.0
  0
LINE
  5
129
  8
0
 62
     1
 10
-33.5578
 20
24.3812
 30
0.0
 11
-33.0943
 21
24.7985
 31
0.0
  0
LINE
  5
12A
  8
0
 62
     1
 10
-33.0943
 20
24.7985
 30
0.0
 11
-32.5011
 21
24.9913
 31
0.0
  0
LINE
  5
12B
  8
0
 62
     1
 10
-32.5011
 20
24.9913
 30
0.0
 11
-31.8807
 21
24.9261
 31
0.0
  0
LINE
  5
12C
  8
0
 62
     1
 10
-31.8807
 20
24.9261
 30
0.0
 11
-31.3406
 21
24.6142
 31
0.0
  0
LINE
  5
12D
  8
0
 62
     1
 10
-31.3406
 20
24.6142
 30
0.0
 11
-30.974
 21
24.1096
 31
0.0
  0
LINE
  5
12E
  8
0
 62
     1
 10
-30.974
 20
24.1096
 30
0.0
 11
-30.8443
 21
23.4995
 31
0.0
  0
LINE
  5
12F
  8
0
 62
     1
 10
-30.8443
 20
23.4995
 30
0.0
 11
-30.974
 21
22.8894
 31
0.0
  0
LINE
  5
130
  8
0
 62
     1
 10
-30.974
 20
22.8894
 30
0.0
 11
-31.3406
 21
22.3848
 31
0.0
  0
LINE
  5
131
  8
0
 62
     1
 10
-31.3406
 20
22.3848
 30
0.0
 11
-31.8807
 21
22.0729
 31
0.0
  0
LINE
  5
132
  8
0
 62
     1
 10
-31.8807
 20
22.0729
 30
0.0
 11
-32.5011
 21
22.0077
 31
0.0
  0
LINE
  5
133
  8
0
 62
     1
 10
-32.5011
 20
22.0077
 30
0.0
 11
-33.0943
 21
22.2004
 31
0.0
  0
LINE
  5
134
  8
0
 62
     1
 10
31.5943
 20
22.2004
 30
0.0
 11
31.1307
 21
22.6178
 31
0.0
  0
LINE
  5
135
  8
0
 62
     1
 10
31.1307
 20
22.6178
 30
0.0
 11
30.877
 21
23.1876
 31
0.0
  0
LINE
  5
136
  8
0
 62
     1
 10
30.877
 20
23.1876
 30
0.0
 11
30.877
 21
23.8114
 31
0.0
  0
LINE
  5
137
  8
0
 62
     1
 10
30.877
 20
23.8114
 30
0.0
 11
31.1307
 21
24.3812
 31
0.0
  0
LINE
  5
138
  8
0
 62
     1
 10
31.1307
 20
24.3812
 30
0.0
 11
31.5943
 21
24.7985
 31
0.0
  0
LINE
  5
139
  8
0
 62
     1
 10
31.5943
 20
24.7985
 30
0.0
 11
32.1875
 21
24.9913
 31
0.0
  0
LINE
  5
13A
  8
0
 62
     1
 10
32.1875
 20
24.9913
 30
0.0
 11
32.8078
 21
24.9261
 31
0.0
  0
LINE
  5
13B
  8
0
 62
     1
 10
32.8078
 20
24.9261
 30
0.0
 11
33.348
 21
24.6142
 31
0.0
  0
LINE
  5
13C
  8
0
 62
     1
 10
33.348
 20
24.6142
 30
0.0
 11
33.7146
 21
24.1096
 31
0.0
  0
LINE
  5
13D
  8
0
 62
     1
 10
33.7146
 20
24.1096
 30
0.0
 11
33.8443
 21
23.4995
 31
0.0
  0
LINE
  5
13E
  8
0
 62
     1
 10
33.8443
 20
23.4995
 30
0.0
 11
33.7146
 21
22.8894
 31
0.0
  0
LINE
  5
13F
  8
0
 62
     1
 10
33.7146
 20
22.8894
 30
0.0
 11
33.348
 21
22.3848
 31
0.0
  0
LINE
  5
140
  8
0
 62
     1
 10
33.348
 20
22.3848
 30
0.0
 11
32.8078
 21
22.0729
 31
0.0
  0
LINE
  5
141
  8
0
 62
     1
 10
32.8078
 20
22.0729
 30
0.0
 11
32.1875
 21
22.0077
 31
0.0
  0
LINE
  5
142
  8
0
 62
     1
 10
32.1875
 20
22.0077
 30
0.0
 11
31.5943
 21
22.2004
 31
0.0
  0
LINE
  5
143
  8
0
 62
     1
 10
-36.3722
 20
16.8514
 30
0.0
 11
-36.8357
 21
17.2687
 31
0.0
  0
LINE
  5
144
  8
0
 62
     1
 10
-36.8357
 20
17.2687
 30
0.0
 11
-37.0894
 21
17.8385
 31
0.0
  0
LINE
  5
145
  8
0
 62
     1
 10
-37.0894
 20
17.8385
 30
0.0
 11
-37.0894
 21
18.4623
 31
0.0
  0
LINE
  5
146
  8
0
 62
     1
 10
-37.0894
 20
18.4623
 30
0.0
 11
-36.8357
 21
19.0321
 31
0.0
  0
LINE
  5
147
  8
0
 62
     1
 10
-36.8357
 20
19.0321
 30
0.0
 11
-36.3722
 21
19.4494
 31
0.0
  0
LINE
  5
148
  8
0
 62
     1
 10
-36.3722
 20
19.4494
 30
0.0
 11
-35.779
 21
19.6422
 31
0.0
  0
LINE
  5
149
  8
0
 62
     1
 10
-35.779
 20
19.6422
 30
0.0
 11
-35.1587
 21
19.577
 31
0.0
  0
LINE
  5
14A
  8
0
 62
     1
 10
-35.1587
 20
19.577
 30
0.0
 11
-34.6185
 21
19.2651
 31
0.0
  0
LINE
  5
14B
  8
0
 62
     1
 10
-34.6185
 20
19.2651
 30
0.0
 11
-34.2519
 21
18.7605
 31
0.0
  0
LINE
  5
14C
  8
0
 62
     1
 10
-34.2519
 20
18.7605
 30
0.0
 11
-34.1222
 21
18.1504
 31
0.0
  0
LINE
  5
14D
  8
0
 62
     1
 10
-34.1222
 20
18.1504
 30
0.0
 11
-34.2519
 21
17.5403
 31
0.0
  0
LINE
  5
14E
  8
0
 62
     1
 10
-34.2519
 20
17.5403
 30
0.0
 11
-34.6185
 21
17.0357
 31
0.0
  0
LINE
  5
14F
  8
0
 62
     1
 10
-34.6185
 20
17.0357
 30
0.0
 11
-35.1587
 21
16.7238
 31
0.0
  0
LINE
  5
150
  8
0
 62
     1
 10
-35.1587
 20
16.7238
 30
0.0
 11
-35.779
 21
16.6586
 31
0.0
  0
LINE
  5
151
  8
0
 62
     1
 10
-35.779
 20
16.6586
 30
0.0
 11
-36.3722
 21
16.8514
 31
0.0
  0
LINE
  5
152
  8
0
 62
     1
 10
34.8722
 20
16.8514
 30
0.0
 11
34.4087
 21
17.2687
 31
0.0
  0
LINE
  5
153
  8
0
 62
     1
 10
34.4087
 20
17.2687
 30
0.0
 11
34.155
 21
17.8385
 31
0.0
  0
LINE
  5
154
  8
0
 62
     1
 10
34.155
 20
17.8385
 30
0.0
 11
34.155
 21
18.4623
 31
0.0
  0
LINE
  5
155
  8
0
 62
     1
 10
34.155
 20
18.4623
 30
0.0
 11
34.4087
 21
19.0321
 31
0.0
  0
LINE
  5
156
  8
0
 62
     1
 10
34.4087
 20
19.0321
 30
0.0
 11
34.8722
 21
19.4494
 31
0.0
  0
LINE
  5
157
  8
0
 62
     1
 10
34.8722
 20
19.4494
 30
0.0
 11
35.4654
 21
19.6422
 31
0.0
  0
LINE
  5
158
  8
0
 62
     1
 10
35.4654
 20
19.6422
 30
0.0
 11
36.0857
 21
19.577
 31
0.0
  0
LINE
  5
159
  8
0
 62
     1
 10
36.0857
 20
19.577
 30
0.0
 11
36.6259
 21
19.2651
 31
0.0
  0
LINE
  5
15A
  8
0
 62
     1
 10
36.6259
 20
19.2651
 30
0.0
 11
36.9925
 21
18.7605
 31
0.0
  0
LINE
  5
15B
  8
0
 62
     1
 10
36.9925
 20
18.7605
 30
0.0
 11
37.1222
 21
18.1504
 31
0.0
  0
LINE
  5
15C
  8
0
 62
     1
 10
37.1222
 20
18.1504
 30
0.0
 11
36.9925
 21
17.5403
 31
0.0
  0
LINE
  5
15D
  8
0
 62
     1
 10
36.9925
 20
17.5403
 30
0.0
 11
36.6259
 21
17.0357
 31
0.0
  0
LINE
  5
15E
  8
0
 62
     1
 10
36.6259
 20
17.0357
 30
0.0
 11
36.0857
 21
16.7238
 31
0.0
  0
LINE
  5
15F
  8
0
 62
     1
 10
36.0857
 20
16.7238
 30
0.0
 11
35.4654
 21
16.6586
 31
0.0
  0
LINE
  5
160
  8
0
 62
     1
 10
35.4654
 20
16.6586
 30
0.0
 11
34.8722
 21
16.8514
 31
0.0
  0
LINE
  5
161
  8
0
 62
     1
 10
37.273
 20
11.0554
 30
0.0
 11
36.8094
 21
11.4727
 31
0.0
  0
LINE
  5
162
  8
0
 62
     1
 10
36.8094
 20
11.4727
 30
0.0
 11
36.5557
 21
12.0425
 31
0.0
  0
LINE
  5
163
  8
0
 62
     1
 10
36.5557
 20
12.0425
 30
0.0
 11
36.5557
 21
12.6663
 31
0.0
  0
LINE
  5
164
  8
0
 62
     1
 10
36.5557
 20
12.6663
 30
0.0
 11
36.8094
 21
13.2361
 31
0.0
  0
LINE
  5
165
  8
0
 62
     1
 10
36.8094
 20
13.2361
 30
0.0
 11
37.273
 21
13.6534
 31
0.0
  0
LINE
  5
166
  8
0
 62
     1
 10
37.273
 20
13.6534
 30
0.0
 11
37.8662
 21
13.8462
 31
0.0
  0
LINE
  5
167
  8
0
 62
     1
 10
37.8662
 20
13.8462
 30
0.0
 11
38.4865
 21
13.781
 31
0.0
  0
LINE
  5
168
  8
0
 62
     1
 10
38.4865
 20
13.781
 30
0.0
 11
39.0267
 21
13.4691
 31
0.0
  0
LINE
  5
169
  8
0
 62
     1
 10
39.0267
 20
13.4691
 30
0.0
 11
39.3933
 21
12.9645
 31
0.0
  0
LINE
  5
16A
  8
0
 62
     1
 10
39.3933
 20
12.9645
 30
0.0
 11
39.523
 21
12.3544
 31
0.0
  0
LINE
  5
16B
  8
0
 62
     1
 10
39.523
 20
12.3544
 30
0.0
 11
39.3933
 21
11.7443
 31
0.0
  0
LINE
  5
16C
  8
0
 62
     1
 10
39.3933
 20
11.7443
 30
0.0
 11
39.0267
 21
11.2397
 31
0.0
  0
LINE
  5
16D
  8
0
 62
     1
 10
39.0267
 20
11.2397
 30
0.0
 11
38.4865
 21
10.9278
 31
0.0
  0
LINE
  5
16E
  8
0
 62
     1
 10
38.4865
 20
10.9278
 30
0.0
 11
37.8662
 21
10.8626
 31
0.0
  0
LINE
  5
16F
  8
0
 62
     1
 10
37.8662
 20
10.8626
 30
0.0
 11
37.273
 21
11.0554
 31
0.0
  0
LINE
  5
170
  8
0
 62
     1
 10
-38.773
 20
11.0554
 30
0.0
 11
-39.2365
 21
11.4727
 31
0.0
  0
LINE
  5
171
  8
0
 62
     1
 10
-39.2365
 20
11.4727
 30
0.0
 11
-39.4902
 21
12.0425
 31
0.0
  0
LINE
  5
172
  8
0
 62
     1
 10
-39.4902
 20
12.0425
 30
0.0
 11
-39.4902
 21
12.6663
 31
0.0
  0
LINE
  5
173
  8
0
 62
     1
 10
-39.4902
 20
12.6663
 30
0.0
 11
-39.2365
 21
13.2361
 31
0.0
  0
LINE
  5
174
  8
0
 62
     1
 10
-39.2365
 20
13.2361
 30
0.0
 11
-38.773
 21
13.6534
 31
0.0
  0
LINE
  5
175
  8
0
 62
     1
 10
-38.773
 20
13.6534
 30
0.0
 11
-38.1798
 21
13.8462
 31
0.0
  0
LINE
  5
176
  8
0
 62
     1
 10
-38.1798
 20
13.8462
 30
0.0
 11
-37.5594
 21
13.781
 31
0.0
  0
LINE
  5
177
  8
0
 62
     1
 10
-37.5594
 20
13.781
 30
0.0
 11
-37.0193
 21
13.4691
 31
0.0
  0
LINE
  5
178
  8
0
 62
     1
 10
-37.0193
 20
13.4691
 30
0.0
 11
-36.6526
 21
12.9645
 31
0.0
  0
LINE
  5
179
  8
0
 62
     1
 10
-36.6526
 20
12.9645
 30
0.0
 11
-36.523
 21
12.3544
 31
0.0
  0
LINE
  5
17A
  8
0
 62
     1
 10
-36.523
 20
12.3544
 30
0.0
 11
-36.6526
 21
11.7443
 31
0.0
  0
LINE
  5
17B
  8
0
 62
     1
 10
-36.6526
 20
11.7443
 30
0.0
 11
-37.0193
 21
11.2397
 31
0.0
  0
LINE
  5
17C
  8
0
 62
     1
 10
-37.0193
 20
11.2397
 30
0.0
 11
-37.5594
 21
10.9278
 31
0.0
  0
LINE
  5
17D
  8
0
 62
     1
 10
-37.5594
 20
10.9278
 30
0.0
 11
-38.1798
 21
10.8626
 31
0.0
  0
LINE
  5
17E
  8
0
 62
     1
 10
-38.1798
 20
10.8626
 30
0.0
 11
-38.773
 21
11.0554
 31
0.0
  0
LINE
  5
17F
  8
0
 62
     1
 10
-40.2375
 20
4.95515
 30
0.0
 11
-40.701
 21
5.37253
 31
0.0
  0
LINE
  5
180
  8
0
 62
     1
 10
-40.701
 20
5.37253
 30
0.0
 11
-40.9547
 21
5.94234
 31
0.0
  0
LINE
  5
181
  8
0
 62
     1
 10
-40.9547
 20
5.94234
 30
0.0
 11
-40.9547
 21
6.56607
 31
0.0
  0
LINE
  5
182
  8
0
 62
     1
 10
-40.9547
 20
6.56607
 30
0.0
 11
-40.701
 21
7.13588
 31
0.0
  0
LINE
  5
183
  8
0
 62
     1
 10
-40.701
 20
7.13588
 30
0.0
 11
-40.2375
 21
7.55324
 31
0.0
  0
LINE
  5
184
  8
0
 62
     1
 10
-40.2375
 20
7.55324
 30
0.0
 11
-39.6443
 21
7.74599
 31
0.0
  0
LINE
  5
185
  8
0
 62
     1
 10
-39.6443
 20
7.74599
 30
0.0
 11
-39.024
 21
7.68079
 31
0.0
  0
LINE
  5
186
  8
0
 62
     1
 10
-39.024
 20
7.68079
 30
0.0
 11
-38.4838
 21
7.36891
 31
0.0
  0
LINE
  5
187
  8
0
 62
     1
 10
-38.4838
 20
7.36891
 30
0.0
 11
-38.1172
 21
6.8643
 31
0.0
  0
LINE
  5
188
  8
0
 62
     1
 10
-38.1172
 20
6.8643
 30
0.0
 11
-37.9875
 21
6.2542
 31
0.0
  0
LINE
  5
189
  8
0
 62
     1
 10
-37.9875
 20
6.2542
 30
0.0
 11
-38.1172
 21
5.64409
 31
0.0
  0
LINE
  5
18A
  8
0
 62
     1
 10
-38.1172
 20
5.64409
 30
0.0
 11
-38.4838
 21
5.13948
 31
0.0
  0
LINE
  5
18B
  8
0
 62
     1
 10
-38.4838
 20
5.13948
 30
0.0
 11
-39.024
 21
4.82762
 31
0.0
  0
LINE
  5
18C
  8
0
 62
     1
 10
-39.024
 20
4.82762
 30
0.0
 11
-39.6443
 21
4.76242
 31
0.0
  0
LINE
  5
18D
  8
0
 62
     1
 10
-39.6443
 20
4.76242
 30
0.0
 11
-40.2375
 21
4.95515
 31
0.0
  0
LINE
  5
18E
  8
0
 62
     1
 10
38.7375
 20
4.95515
 30
0.0
 11
38.274
 21
5.37253
 31
0.0
  0
LINE
  5
18F
  8
0
 62
     1
 10
38.274
 20
5.37253
 30
0.0
 11
38.0203
 21
5.94234
 31
0.0
  0
LINE
  5
190
  8
0
 62
     1
 10
38.0203
 20
5.94234
 30
0.0
 11
38.0203
 21
6.56607
 31
0.0
  0
LINE
  5
191
  8
0
 62
     1
 10
38.0203
 20
6.56607
 30
0.0
 11
38.274
 21
7.13588
 31
0.0
  0
LINE
  5
192
  8
0
 62
     1
 10
38.274
 20
7.13588
 30
0.0
 11
38.7375
 21
7.55324
 31
0.0
  0
LINE
  5
193
  8
0
 62
     1
 10
38.7375
 20
7.55324
 30
0.0
 11
39.3307
 21
7.74599
 31
0.0
  0
LINE
  5
194
  8
0
 62
     1
 10
39.3307
 20
7.74599
 30
0.0
 11
39.951
 21
7.68079
 31
0.0
  0
LINE
  5
195
  8
0
 62
     1
 10
39.951
 20
7.68079
 30
0.0
 11
40.4912
 21
7.36891
 31
0.0
  0
LINE
  5
196
  8
0
 62
     1
 10
40.4912
 20
7.36891
 30
0.0
 11
40.8578
 21
6.8643
 31
0.0
  0
LINE
  5
197
  8
0
 62
     1
 10
40.8578
 20
6.8643
 30
0.0
 11
40.9875
 21
6.2542
 31
0.0
  0
LINE
  5
198
  8
0
 62
     1
 10
40.9875
 20
6.2542
 30
0.0
 11
40.8578
 21
5.64409
 31
0.0
  0
LINE
  5
199
  8
0
 62
     1
 10
40.8578
 20
5.64409
 30
0.0
 11
40.4912
 21
5.13948
 31
0.0
  0
LINE
  5
19A
  8
0
 62
     1
 10
40.4912
 20
5.13948
 30
0.0
 11
39.951
 21
4.82762
 31
0.0
  0
LINE
  5
19B
  8
0
 62
     1
 10
39.951
 20
4.82762
 30
0.0
 11
39.3307
 21
4.76242
 31
0.0
  0
LINE
  5
19C
  8
0
 62
     1
 10
39.3307
 20
4.76242
 30
0.0
 11
38.7375
 21
4.95515
 31
0.0
  0
LINE
  5
19D
  8
0
 62
     1
 10
-40.7297
 20
-1.29903
 30
0.0
 11
-41.1932
 21
-0.881668
 31
0.0
  0
LINE
  5
19E
  8
0
 62
     1
 10
-41.1932
 20
-0.881668
 30
0.0
 11
-41.4469
 21
-0.311859
 31
0.0
  0
LINE
  5
19F
  8
0
 62
     1
 10
-41.4469
 20
-0.311859
 30
0.0
 11
-41.4469
 21
0.311859
 31
0.0
  0
LINE
  5
1A0
  8
0
 62
     1
 10
-41.4469
 20
0.311859
 30
0.0
 11
-41.1932
 21
0.881668
 31
0.0
  0
LINE
  5
1A1
  8
0
 62
     1
 10
-41.1932
 20
0.881668
 30
0.0
 11
-40.7297
 21
1.29903
 31
0.0
  0
LINE
  5
1A2
  8
0
 62
     1
 10
-40.7297
 20
1.29903
 30
0.0
 11
-40.1365
 21
1.49178
 31
0.0
  0
LINE
  5
1A3
  8
0
 62
     1
 10
-40.1365
 20
1.49178
 30
0.0
 11
-39.5162
 21
1.42657
 31
0.0
  0
LINE
  5
1A4
  8
0
 62
     1
 10
-39.5162
 20
1.42657
 30
0.0
 11
-38.976
 21
1.11472
 31
0.0
  0
LINE
  5
1A5
  8
0
 62
     1
 10
-38.976
 20
1.11472
 30
0.0
 11
-38.6094
 21
0.610092
 31
0.0
  0
LINE
  5
1A6
  8
0
 62
     1
 10
-38.6094
 20
0.610092
 30
0.0
 11
-38.4797
 21
0.0
 31
0.0
  0
LINE
  5
1A7
  8
0
 62
     1
 10
-38.4797
 20
0.0
 30
0.0
 11
-38.6094
 21
-0.610092
 31
0.0
  0
LINE
  5
1A8
  8
0
 62
     1
 10
-38.6094
 20
-0.610092
 30
0.0
 11
-38.976
 21
-1.11472
 31
0.0
  0
LINE
  5
1A9
  8
0
 62
     1
 10
-38.976
 20
-1.11472
 30
0.0
 11
-39.5162
 21
-1.42657
 31
0.0
  0
LINE
  5
1AA
  8
0
 62
     1
 10
-39.5162
 20
-1.42657
 30
0.0
 11
-40.1365
 21
-1.49178
 31
0.0
  0
LINE
  5
1AB
  8
0
 62
     1
 10
-40.1365
 20
-1.49178
 30
0.0
 11
-40.7297
 21
-1.29903
 31
0.0
  0
LINE
  5
1AC
  8
0
 62
     1
 10
39.2297
 20
-1.29903
 30
0.0
 11
38.7662
 21
-0.881668
 31
0.0
  0
LINE
  5
1AD
  8
0
 62
     1
 10
38.7662
 20
-0.881668
 30
0.0
 11
38.5125
 21
-0.311859
 31
0.0
  0
LINE
  5
1AE
  8
0
 62
     1
 10
38.5125
 20
-0.311859
 30
0.0
 11
38.5125
 21
0.311859
 31
0.0
  0
LINE
  5
1AF
  8
0
 62
     1
 10
38.5125
 20
0.311859
 30
0.0
 11
38.7662
 21
0.881668
 31
0.0
  0
LINE
  5
1B0
  8
0
 62
     1
 10
38.7662
 20
0.881668
 30
0.0
 11
39.2297
 21
1.29903
 31
0.0
  0
LINE
  5
1B1
  8
0
 62
     1
 10
39.2297
 20
1.29903
 30
0.0
 11
39.8229
 21
1.49178
 31
0.0
  0
LINE
  5
1B2
  8
0
 62
     1
 10
39.8229
 20
1.49178
 30
0.0
 11
40.4432
 21
1.42657
 31
0.0
  0
LINE
  5
1B3
  8
0
 62
     1
 10
40.4432
 20
1.42657
 30
0.0
 11
40.9834
 21
1.11472
 31
0.0
  0
LINE
  5
1B4
  8
0
 62
     1
 10
40.9834
 20
1.11472
 30
0.0
 11
41.35
 21
0.610092
 31
0.0
  0
LINE
  5
1B5
  8
0
 62
     1
 10
41.35
 20
0.610092
 30
0.0
 11
41.4797
 21
0.0
 31
0.0
  0
LINE
  5
1B6
  8
0
 62
     1
 10
41.4797
 20
0.0
 30
0.0
 11
41.35
 21
-0.610092
 31
0.0
  0
LINE
  5
1B7
  8
0
 62
     1
 10
41.35
 20
-0.610092
 30
0.0
 11
40.9834
 21
-1.11472
 31
0.0
  0
LINE
  5
1B8
  8
0
 62
     1
 10
40.9834
 20
-1.11472
 30
0.0
 11
40.4432
 21
-1.42657
 31
0.0
  0
LINE
  5
1B9
  8
0
 62
     1
 10
40.4432
 20
-1.42657
 30
0.0
 11
39.8229
 21
-1.49178
 31
0.0
  0
LINE
  5
1BA
  8
0
 62
     1
 10
39.8229
 20
-1.49178
 30
0.0
 11
39.2297
 21
-1.29903
 31
0.0
  0
LINE
  5
1BB
  8
0
 62
     1
 10
-40.2375
 20
-7.55324
 30
0.0
 11
-40.701
 21
-7.13588
 31
0.0
  0
LINE
  5
1BC
  8
0
 62
     1
 10
-40.701
 20
-7.13588
 30
0.0
 11
-40.9547
 21
-6.56607
 31
0.0
  0
LINE
  5
1BD
  8
0
 62
     1
 10
-40.9547
 20
-6.56607
 30
0.0
 11
-40.9547
 21
-5.94234
 31
0.0
  0
LINE
  5
1BE
  8
0
 62
     1
 10
-40.9547
 20
-5.94234
 30
0.0
 11
-40.701
 21
-5.37253
 31
0.0
  0
LINE
  5
1BF
  8
0
 62
     1
 10
-40.701
 20
-5.37253
 30
0.0
 11
-40.2375
 21
-4.95515
 31
0.0
  0
LINE
  5
1C0
  8
0
 62
     1
 10
-40.2375
 20
-4.95515
 30
0.0
 11
-39.6443
 21
-4.76242
 31
0.0
  0
LINE
  5
1C1
  8
0
 62
     1
 10
-39.6443
 20
-4.76242
 30
0.0
 11
-39.024
 21
-4.82762
 31
0.0
  0
LINE
  5
1C2
  8
0
 62
     1
 10
-39.024
 20
-4.82762
 30
0.0
 11
-38.4838
 21
-5.13948
 31
0.0
  0
LINE
  5
1C3
  8
0
 62
     1
 10
-38.4838
 20
-5.13948
 30
0.0
 11
-38.1172
 21
-5.64409
 31
0.0
  0
LINE
  5
1C4
  8
0
 62
     1
 10
-38.1172
 20
-5.64409
 30
0.0
 11
-37.9875
 21
-6.2542
 31
0.0
  0
LINE
  5
1C5
  8
0
 62
     1
 10
-37.9875
 20
-6.2542
 30
0.0
 11
-38.1172
 21
-6.8643
 31
0.0
  0
LINE
  5
1C6
  8
0
 62
     1
 10
-38.1172
 20
-6.8643
 30
0.0
 11
-38.4838
 21
-7.36891
 31
0.0
  0
LINE
  5
1C7
  8
0
 62
     1
 10
-38.4838
 20
-7.36891
 30
0.0
 11
-39.024
 21
-7.68079
 31
0.0
  0
LINE
  5
1C8
  8
0
 62
     1
 10
-39.024
 20
-7.68079
 30
0.0
 11
-39.6443
 21
-7.74599
 31
0.0
  0
LINE
  5
1C9
  8
0
 62
     1
 10
-39.6443
 20
-7.74599
 30
0.0
 11
-40.2375
 21
-7.55324
 31
0.0
  0
LINE
  5
1CA
  8
0
 62
     1
 10
38.7375
 20
-7.55324
 30
0.0
 11
38.274
 21
-7.13588
 31
0.0
  0
LINE
  5
1CB
  8
0
 62
     1
 10
38.274
 20
-7.13588
 30
0.0
 11
38.0203
 21
-6.56607
 31
0.0
  0
LINE
  5
1CC
  8
0
 62
     1
 10
38.0203
 20
-6.56607
 30
0.0
 11
38.0203
 21
-5.94234
 31
0.0
  0
LINE
  5
1CD
  8
0
 62
     1
 10
38.0203
 20
-5.94234
 30
0.0
 11
38.274
 21
-5.37253
 31
0.0
  0
LINE
  5
1CE
  8
0
 62
     1
 10
38.274
 20
-5.37253
 30
0.0
 11
38.7375
 21
-4.95515
 31
0.0
  0
LINE
  5
1CF
  8
0
 62
     1
 10
38.7375
 20
-4.95515
 30
0.0
 11
39.3307
 21
-4.76242
 31
0.0
  0
LINE
  5
1D0
  8
0
 62
     1
 10
39.3307
 20
-4.76242
 30
0.0
 11
39.951
 21
-4.82762
 31
0.0
  0
LINE
  5
1D1
  8
0
 62
     1
 10
39.951
 20
-4.82762
 30
0.0
 11
40.4912
 21
-5.13948
 31
0.0
  0
LINE
  5
1D2
  8
0
 62
     1
 10
40.4912
 20
-5.13948
 30
0.0
 11
40.8578
 21
-5.64409
 31
0.0
  0
LINE
  5
1D3
  8
0
 62
     1
 10
40.8578
 20
-5.64409
 30
0.0
 11
40.9875
 21
-6.2542
 31
0.0
  0
LINE
  5
1D4
  8
0
 62
     1
 10
40.9875
 20
-6.2542
 30
0.0
 11
40.8578
 21
-6.8643
 31
0.0
  0
LINE
  5
1D5
  8
0
 62
     1
 10
40.8578
 20
-6.8643
 30
0.0
 11
40.4912
 21
-7.36891
 31
0.0
  0
LINE
  5
1D6
  8
0
 62
     1
 10
40.4912
 20
-7.36891
 30
0.0
 11
39.951
 21
-7.68079
 31
0.0
  0
LINE
  5
1D7
  8
0
 62
     1
 10
39.951
 20
-7.68079
 30
0.0
 11
39.3307
 21
-7.74599
 31
0.0
  0
LINE
  5
1D8
  8
0
 62
     1
 10
39.3307
 20
-7.74599
 30
0.0
 11
38.7375
 21
-7.55324
 31
0.0
  0
LINE
  5
1D9
  8
0
 62
     1
 10
-38.773
 20
-13.6534
 30
0.0
 11
-39.2365
 21
-13.2361
 31
0.0
  0
LINE
  5
1DA
  8
0
 62
     1
 10
-39.2365
 20
-13.2361
 30
0.0
 11
-39.4902
 21
-12.6663
 31
0.0
  0
LINE
  5
1DB
  8
0
 62
     1
 10
-39.4902
 20
-12.6663
 30
0.0
 11
-39.4902
 21
-12.0425
 31
0.0
  0
LINE
  5
1DC
  8
0
 62
     1
 10
-39.4902
 20
-12.0425
 30
0.0
 11
-39.2365
 21
-11.4727
 31
0.0
  0
LINE
  5
1DD
  8
0
 62
     1
 10
-39.2365
 20
-11.4727
 30
0.0
 11
-38.773
 21
-11.0554
 31
0.0
  0
LINE
  5
1DE
  8
0
 62
     1
 10
-38.773
 20
-11.0554
 30
0.0
 11
-38.1798
 21
-10.8626
 31
0.0
  0
LINE
  5
1DF
  8
0
 62
     1
 10
-38.1798
 20
-10.8626
 30
0.0
 11
-37.5594
 21
-10.9278
 31
0.0
  0
LINE
  5
1E0
  8
0
 62
     1
 10
-37.5594
 20
-10.9278
 30
0.0
 11
-37.0193
 21
-11.2397
 31
0.0
  0
LINE
  5
1E1
  8
0
 62
     1
 10
-37.0193
 20
-11.2397
 30
0.0
 11
-36.6526
 21
-11.7443
 31
0.0
  0
LINE
  5
1E2
  8
0
 62
     1
 10
-36.6526
 20
-11.7443
 30
0.0
 11
-36.523
 21
-12.3544
 31
0.0
  0
LINE
  5
1E3
  8
0
 62
     1
 10
-36.523
 20
-12.3544
 30
0.0
 11
-36.6526
 21
-12.9645
 31
0.0
  0
LINE
  5
1E4
  8
0
 62
     1
 10
-36.6526
 20
-12.9645
 30
0.0
 11
-37.0193
 21
-13.4691
 31
0.0
  0
LINE
  5
1E5
  8
0
 62
     1
 10
-37.0193
 20
-13.4691
 30
0.0
 11
-37.5594
 21
-13.781
 31
0.0
  0
LINE
  5
1E6
  8
0
 62
     1
 10
-37.5594
 20
-13.781
 30
0.0
 11
-38.1798
 21
-13.8462
 31
0.0
  0
LINE
  5
1E7
  8
0
 62
     1
 10
-38.1798
 20
-13.8462
 30
0.0
 11
-38.773
 21
-13.6534
 31
0.0
  0
LINE
  5
1E8
  8
0
 62
     1
 10
37.273
 20
-13.6534
 30
0.0
 11
36.8094
 21
-13.2361
 31
0.0
  0
LINE
  5
1E9
  8
0
 62
     1
 10
36.8094
 20
-13.2361
 30
0.0
 11
36.5557
 21
-12.6663
 31
0.0
  0
LINE
  5
1EA
  8
0
 62
     1
 10
36.5557
 20
-12.6663
 30
0.0
 11
36.5557
 21
-12.0425
 31
0.0
  0
LINE
  5
1EB
  8
0
 62
     1
 10
36.5557
 20
-12.0425
 30
0.0
 11
36.8094
 21
-11.4727
 31
0.0
  0
LINE
  5
1EC
  8
0
 62
     1
 10
36.8094
 20
-11.4727
 30
0.0
 11
37.273
 21
-11.0554
 31
0.0
  0
LINE
  5
1ED
  8
0
 62
     1
 10
37.273
 20
-11.0554
 30
0.0
 11
37.8662
 21
-10.8626
 31
0.0
  0
LINE
  5
1EE
  8
0
 62
     1
 10
37.8662
 20
-10.8626
 30
0.0
 11
38.4865
 21
-10.9278
 31
0.0
  0
LINE
  5
1EF
  8
0
 62
     1
 10
38.4865
 20
-10.9278
 30
0.0
 11
39.0267
 21
-11.2397
 31
0.0
  0
LINE
  5
1F0
  8
0
 62
     1
 10
39.0267
 20
-11.2397
 30
0.0
 11
39.3933
 21
-11.7443
 31
0.0
  0
LINE
  5
1F1
  8
0
 62
     1
 10
39.3933
 20
-11.7443
 30
0.0
 11
39.523
 21
-12.3544
 31
0.0
  0
LINE
  5
1F2
  8
0
 62
     1
 10
39.523
 20
-12.3544
 30
0.0
 11
39.3933
 21
-12.9645
 31
0.0
  0
LINE
  5
1F3
  8
0
 62
     1
 10
39.3933
 20
-12.9645
 30
0.0
 11
39.0267
 21
-13.4691
 31
0.0
  0
LINE
  5
1F4
  8
0
 62
     1
 10
39.0267
 20
-13.4691
 30
0.0
 11
38.4865
 21
-13.781
 31
0.0
  0
LINE
  5
1F5
  8
0
 62
     1
 10
38.4865
 20
-13.781
 30
0.0
 11
37.8662
 21
-13.8462
 31
0.0
  0
LINE
  5
1F6
  8
0
 62
     1
 10
37.8662
 20
-13.8462
 30
0.0
 11
37.273
 21
-13.6534
 31
0.0
  0
LINE
  5
1F7
  8
0
 62
     1
 10
-36.3722
 20
-19.4494
 30
0.0
 11
-36.8357
 21
-19.0321
 31
0.0
  0
LINE
  5
1F8
  8
0
 62
     1
 10
-36.8357
 20
-19.0321
 30
0.0
 11
-37.0894
 21
-18.4623
 31
0.0
  0
LINE
  5
1F9
  8
0
 62
     1
 10
-37.0894
 20
-18.4623
 30
0.0
 11
-37.0894
 21
-17.8385
 31
0.0
  0
LINE
  5
1FA
  8
0
 62
     1
 10
-37.0894
 20
-17.8385
 30
0.0
 11
-36.8357
 21
-17.2687
 31
0.0
  0
LINE
  5
1FB
  8
0
 62
     1
 10
-36.8357
 20
-17.2687
 30
0.0
 11
-36.3722
 21
-16.8514
 31
0.0
  0
LINE
  5
1FC
  8
0
 62
     1
 10
-36.3722
 20
-16.8514
 30
0.0
 11
-35.779
 21
-16.6586
 31
0.0
  0
LINE
  5
1FD
  8
0
 62
     1
 10
-35.779
 20
-16.6586
 30
0.0
 11
-35.1587
 21
-16.7238
 31
0.0
  0
LINE
  5
1FE
  8
0
 62
     1
 10
-35.1587
 20
-16.7238
 30
0.0
 11
-34.6185
 21
-17.0357
 31
0.0
  0
LINE
  5
1FF
  8
0
 62
     1
 10
-34.6185
 20
-17.0357
 30
0.0
 11
-34.2519
 21
-17.5403
 31
0.0
  0
LINE
  5
200
  8
0
 62
     1
 10
-34.2519
 20
-17.5403
 30
0.0
 11
-34.1222
 21
-18.1504
 31
0.0
  0
LINE
  5
201
  8
0
 62
     1
 10
-34.1222
 20
-18.1504
 30
0.0
 11
-34.2519
 21
-18.7605
 31
0.0
  0
LINE
  5
202
  8
0
 62
     1
 10
-34.2519
 20
-18.7605
 30
0.0
 11
-34.6185
 21
-19.2651
 31
0.0
  0
LINE
  5
203
  8
0
 62
     1
 10
-34.6185
 20
-19.2651
 30
0.0
 11
-35.1587
 21
-19.577
 31
0.0
  0
LINE
  5
204
  8
0
 62
     1
 10
-35.1587
 20
-19.577
 30
0.0
 11
-35.779
 21
-19.6422
 31
0.0
  0
LINE
  5
205
  8
0
 62
     1
 10
-35.779
 20
-19.6422
 30
0.0
 11
-36.3722
 21
-19.4494
 31
0.0
  0
LINE
  5
206
  8
0
 62
     1
 10
34.8722
 20
-19.4494
 30
0.0
 11
34.4087
 21
-19.0321
 31
0.0
  0
LINE
  5
207
  8
0
 62
     1
 10
34.4087
 20
-19.0321
 30
0.0
 11
34.155
 21
-18.4623
 31
0.0
  0
LINE
  5
208
  8
0
 62
     1
 10
34.155
 20
-18.4623
 30
0.0
 11
34.155
 21
-17.8385
 31
0.0
  0
LINE
  5
209
  8
0
 62
     1
 10
34.155
 20
-17.8385
 30
0.0
 11
34.4087
 21
-17.2687
 31
0.0
  0
LINE
  5
20A
  8
0
 62
     1
 10
34.4087
 20
-17.2687
 30
0.0
 11
34.8722
 21
-16.8514
 31
0.0
  0
LINE
  5
20B
  8
0
 62
     1
 10
34.8722
 20
-16.8514
 30
0.0
 11
35.4654
 21
-16.6586
 31
0.0
  0
LINE
  5
20C
  8
0
 62
     1
 10
35.4654
 20
-16.6586
 30
0.0
 11
36.0857
 21
-16.7238
 31
0.0
  0
LINE
  5
20D
  8
0
 62
     1
 10
36.0857
 20
-16.7238
 30
0.0
 11
36.6259
 21
-17.0357
 31
0.0
  0
LINE
  5
20E
  8
0
 62
     1
 10
36.6259
 20
-17.0357
 30
0.0
 11
36.9925
 21
-17.5403
 31
0.0
  0
LINE
  5
20F
  8
0
 62
     1
 10
36.9925
 20
-17.5403
 30
0.0
 11
37.1222
 21
-18.1504
 31
0.0
  0
LINE
  5
210
  8
0
 62
     1
 10
37.1222
 20
-18.1504
 30
0.0
 11
36.9925
 21
-18.7605
 31
0.0
  0
LINE
  5
211
  8
0
 62
     1
 10
36.9925
 20
-18.7605
 30
0.0
 11
36.6259
 21
-19.2651
 31
0.0
  0
LINE
  5
212
  8
0
 62
     1
 10
36.6259
 20
-19.2651
 30
0.0
 11
36.0857
 21
-19.577
 31
0.0
  0
LINE
  5
213
  8
0
 62
     1
 10
36.0857
 20
-19.577
 30
0.0
 11
35.4654
 21
-19.6422
 31
0.0
  0
LINE
  5
214
  8
0
 62
     1
 10
35.4654
 20
-19.6422
 30
0.0
 11
34.8722
 21
-19.4494
 31
0.0
  0
LINE
  5
215
  8
0
 62
     1
 10
-33.0943
 20
-24.7985
 30
0.0
 11
-33.5578
 21
-24.3812
 31
0.0
  0
LINE
  5
216
  8
0
 62
     1
 10
-33.5578
 20
-24.3812
 30
0.0
 11
-33.8115
 21
-23.8114
 31
0.0
  0
LINE
  5
217
  8
0
 62
     1
 10
-33.8115
 20
-23.8114
 30
0.0
 11
-33.8115
 21
-23.1876
 31
0.0
  0
LINE
  5
218
  8
0
 62
     1
 10
-33.8115
 20
-23.1876
 30
0.0
 11
-33.5578
 21
-22.6178
 31
0.0
  0
LINE
  5
219
  8
0
 62
     1
 10
-33.5578
 20
-22.6178
 30
0.0
 11
-33.0943
 21
-22.2004
 31
0.0
  0
LINE
  5
21A
  8
0
 62
     1
 10
-33.0943
 20
-22.2004
 30
0.0
 11
-32.5011
 21
-22.0077
 31
0.0
  0
LINE
  5
21B
  8
0
 62
     1
 10
-32.5011
 20
-22.0077
 30
0.0
 11
-31.8807
 21
-22.0729
 31
0.0
  0
LINE
  5
21C
  8
0
 62
     1
 10
-31.8807
 20
-22.0729
 30
0.0
 11
-31.3406
 21
-22.3848
 31
0.0
  0
LINE
  5
21D
  8
0
 62
     1
 10
-31.3406
 20
-22.3848
 30
0.0
 11
-30.974
 21
-22.8894
 31
0.0
  0
LINE
  5
21E
  8
0
 62
     1
 10
-30.974
 20
-22.8894
 30
0.0
 11
-30.8443
 21
-23.4995
 31
0.0
  0
LINE
  5
21F
  8
0
 62
     1
 10
-30.8443
 20
-23.4995
 30
0.0
 11
-30.974
 21
-24.1096
 31
0.0
  0
LINE
  5
220
  8
0
 62
     1
 10
-30.974
 20
-24.1096
 30
0.0
 11
-31.3406
 21
-24.6142
 31
0.0
  0
LINE
  5
221
  8
0
 62
     1
 10
-31.3406
 20
-24.6142
 30
0.0
 11
-31.8807
 21
-24.9261
 31
0.0
  0
LINE
  5
222
  8
0
 62
     1
 10
-31.8807
 20
-24.9261
 30
0.0
 11
-32.5011
 21
-24.9913
 31
0.0
  0
LINE
  5
223
  8
0
 62
     1
 10
-32.5011
 20
-24.9913
 30
0.0
 11
-33.0943
 21
-24.7985
 31
0.0
  0
LINE
  5
224
  8
0
 62
     1
 10
31.5943
 20
-24.7985
 30
0.0
 11
31.1307
 21
-24.3812
 31
0.0
  0
LINE
  5
225
  8
0
 62
     1
 10
31.1307
 20
-24.3812
 30
0.0
 11
30.877
 21
-23.8114
 31
0.0
  0
LINE
  5
226
  8
0
 62
     1
 10
30.877
 20
-23.8114
 30
0.0
 11
30.877
 21
-23.1876
 31
0.0
  0
LINE
  5
227
  8
0
 62
     1
 10
30.877
 20
-23.1876
 30
0.0
 11
31.1307
 21
-22.6178
 31
0.0
  0
LINE
  5
228
  8
0
 62
     1
 10
31.1307
 20
-22.6178
 30
0.0
 11
31.5943
 21
-22.2004
 31
0.0
  0
LINE
  5
229
  8
0
 62
     1
 10
31.5943
 20
-22.2004
 30
0.0
 11
32.1875
 21
-22.0077
 31
0.0
  0
LINE
  5
22A
  8
0
 62
     1
 10
32.1875
 20
-22.0077
 30
0.0
 11
32.8078
 21
-22.0729
 31
0.0
  0
LINE
  5
22B
  8
0
 62
     1
 10
32.8078
 20
-22.0729
 30
0.0
 11
33.348
 21
-22.3848
 31
0.0
  0
LINE
  5
22C
  8
0
 62
     1
 10
33.348
 20
-22.3848
 30
0.0
 11
33.7146
 21
-22.8894
 31
0.0
  0
LINE
  5
22D
  8
0
 62
     1
 10
33.7146
 20
-22.8894
 30
0.0
 11
33.8443
 21
-23.4995
 31
0.0
  0
LINE
  5
22E
  8
0
 62
     1
 10
33.8443
 20
-23.4995
 30
0.0
 11
33.7146
 21
-24.1096
 31
0.0
  0
LINE
  5
22F
  8
0
 62
     1
 10
33.7146
 20
-24.1096
 30
0.0
 11
33.348
 21
-24.6142
 31
0.0
  0
LINE
  5
230
  8
0
 62
     1
 10
33.348
 20
-24.6142
 30
0.0
 11
32.8078
 21
-24.9261
 31
0.0
  0
LINE
  5
231
  8
0
 62
     1
 10
32.8078
 20
-24.9261
 30
0.0
 11
32.1875
 21
-24.9913
 31
0.0
  0
LINE
  5
232
  8
0
 62
     1
 10
32.1875
 20
-24.9913
 30
0.0
 11
31.5943
 21
-24.7985
 31
0.0
  0
LINE
  5
233
  8
0
 62
     1
 10
-29.0199
 20
-29.569
 30
0.0
 11
-29.4834
 21
-29.1516
 31
0.0
  0
LINE
  5
234
  8
0
 62
     1
 10
-29.4834
 20
-29.1516
 30
0.0
 11
-29.7372
 21
-28.5818
 31
0.0
  0
LINE
  5
235
  8
0
 62
     1
 10
-29.7372
 20
-28.5818
 30
0.0
 11
-29.7372
 21
-27.9581
 31
0.0
  0
LINE
  5
236
  8
0
 62
     1
 10
-29.7372
 20
-27.9581
 30
0.0
 11
-29.4834
 21
-27.3882
 31
0.0
  0
LINE
  5
237
  8
0
 62
     1
 10
-29.4834
 20
-27.3882
 30
0.0
 11
-29.0199
 21
-26.9709
 31
0.0
  0
LINE
  5
238
  8
0
 62
     1
 10
-29.0199
 20
-26.9709
 30
0.0
 11
-28.4267
 21
-26.7781
 31
0.0
  0
LINE
  5
239
  8
0
 62
     1
 10
-28.4267
 20
-26.7781
 30
0.0
 11
-27.8064
 21
-26.8433
 31
0.0
  0
LINE
  5
23A
  8
0
 62
     1
 10
-27.8064
 20
-26.8433
 30
0.0
 11
-27.2662
 21
-27.1552
 31
0.0
  0
LINE
  5
23B
  8
0
 62
     1
 10
-27.2662
 20
-27.1552
 30
0.0
 11
-26.8996
 21
-27.6598
 31
0.0
  0
LINE
  5
23C
  8
0
 62
     1
 10
-26.8996
 20
-27.6598
 30
0.0
 11
-26.7699
 21
-28.2699
 31
0.0
  0
LINE
  5
23D
  8
0
 62
     1
 10
-26.7699
 20
-28.2699
 30
0.0
 11
-26.8996
 21
-28.88
 31
0.0
  0
LINE
  5
23E
  8
0
 62
     1
 10
-26.8996
 20
-28.88
 30
0.0
 11
-27.2662
 21
-29.3846
 31
0.0
  0
LINE
  5
23F
  8
0
 62
     1
 10
-27.2662
 20
-29.3846
 30
0.0
 11
-27.8064
 21
-29.6965
 31
0.0
  0
LINE
  5
240
  8
0
 62
     1
 10
-27.8064
 20
-29.6965
 30
0.0
 11
-28.4267
 21
-29.7617
 31
0.0
  0
LINE
  5
241
  8
0
 62
     1
 10
-28.4267
 20
-29.7617
 30
0.0
 11
-29.0199
 21
-29.569
 31
0.0
  0
LINE
  5
242
  8
0
 62
     1
 10
27.5199
 20
-29.569
 30
0.0
 11
27.0564
 21
-29.1516
 31
0.0
  0
LINE
  5
243
  8
0
 62
     1
 10
27.0564
 20
-29.1516
 30
0.0
 11
26.8027
 21
-28.5818
 31
0.0
  0
LINE
  5
244
  8
0
 62
     1
 10
26.8027
 20
-28.5818
 30
0.0
 11
26.8027
 21
-27.9581
 31
0.0
  0
LINE
  5
245
  8
0
 62
     1
 10
26.8027
 20
-27.9581
 30
0.0
 11
27.0564
 21
-27.3882
 31
0.0
  0
LINE
  5
246
  8
0
 62
     1
 10
27.0564
 20
-27.3882
 30
0.0
 11
27.5199
 21
-26.9709
 31
0.0
  0
LINE
  5
247
  8
0
 62
     1
 10
27.5199
 20
-26.9709
 30
0.0
 11
28.1131
 21
-26.7781
 31
0.0
  0
LINE
  5
248
  8
0
 62
     1
 10
28.1131
 20
-26.7781
 30
0.0
 11
28.7334
 21
-26.8433
 31
0.0
  0
LINE
  5
249
  8
0
 62
     1
 10
28.7334
 20
-26.8433
 30
0.0
 11
29.2736
 21
-27.1552
 31
0.0
  0
LINE
  5
24A
  8
0
 62
     1
 10
29.2736
 20
-27.1552
 30
0.0
 11
29.6402
 21
-27.6598
 31
0.0
  0
LINE
  5
24B
  8
0
 62
     1
 10
29.6402
 20
-27.6598
 30
0.0
 11
29.7699
 21
-28.2699
 31
0.0
  0
LINE
  5
24C
  8
0
 62
     1
 10
29.7699
 20
-28.2699
 30
0.0
 11
29.6402
 21
-28.88
 31
0.0
  0
LINE
  5
24D
  8
0
 62
     1
 10
29.6402
 20
-28.88
 30
0.0
 11
29.2736
 21
-29.3846
 31
0.0
  0
LINE
  5
24E
  8
0
 62
     1
 10
29.2736
 20
-29.3846
 30
0.0
 11
28.7334
 21
-29.6965
 31
0.0
  0
LINE
  5
24F
  8
0
 62
     1
 10
28.7334
 20
-29.6965
 30
0.0
 11
28.1131
 21
-29.7617
 31
0.0
  0
LINE
  5
250
  8
0
 62
     1
 10
28.1131
 20
-29.7617
 30
0.0
 11
27.5199
 21
-29.569
 31
0.0
  0
LINE
  5
251
  8
0
 62
     1
 10
22.7495
 20
-33.6433
 30
0.0
 11
22.286
 21
-33.226
 31
0.0
  0
LINE
  5
252
  8
0
 62
     1
 10
22.286
 20
-33.226
 30
0.0
 11
22.0323
 21
-32.6561
 31
0.0
  0
LINE
  5
253
  8
0
 62
     1
 10
22.0323
 20
-32.6561
 30
0.0
 11
22.0323
 21
-32.0324
 31
0.0
  0
LINE
  5
254
  8
0
 62
     1
 10
22.0323
 20
-32.0324
 30
0.0
 11
22.286
 21
-31.4626
 31
0.0
  0
LINE
  5
255
  8
0
 62
     1
 10
22.286
 20
-31.4626
 30
0.0
 11
22.7495
 21
-31.0452
 31
0.0
  0
LINE
  5
256
  8
0
 62
     1
 10
22.7495
 20
-31.0452
 30
0.0
 11
23.3427
 21
-30.8525
 31
0.0
  0
LINE
  5
257
  8
0
 62
     1
 10
23.3427
 20
-30.8525
 30
0.0
 11
23.963
 21
-30.9177
 31
0.0
  0
LINE
  5
258
  8
0
 62
     1
 10
23.963
 20
-30.9177
 30
0.0
 11
24.5032
 21
-31.2296
 31
0.0
  0
LINE
  5
259
  8
0
 62
     1
 10
24.5032
 20
-31.2296
 30
0.0
 11
24.8698
 21
-31.7342
 31
0.0
  0
LINE
  5
25A
  8
0
 62
     1
 10
24.8698
 20
-31.7342
 30
0.0
 11
24.9995
 21
-32.3443
 31
0.0
  0
LINE
  5
25B
  8
0
 62
     1
 10
24.9995
 20
-32.3443
 30
0.0
 11
24.8698
 21
-32.9544
 31
0.0
  0
LINE
  5
25C
  8
0
 62
     1
 10
24.8698
 20
-32.9544
 30
0.0
 11
24.5032
 21
-33.459
 31
0.0
  0
LINE
  5
25D
  8
0
 62
     1
 10
24.5032
 20
-33.459
 30
0.0
 11
23.963
 21
-33.7709
 31
0.0
  0
LINE
  5
25E
  8
0
 62
     1
 10
23.963
 20
-33.7709
 30
0.0
 11
23.3427
 21
-33.836
 31
0.0
  0
LINE
  5
25F
  8
0
 62
     1
 10
23.3427
 20
-33.836
 30
0.0
 11
22.7495
 21
-33.6433
 31
0.0
  0
LINE
  5
260
  8
0
 62
     1
 10
-24.2495
 20
-33.6433
 30
0.0
 11
-24.713
 21
-33.226
 31
0.0
  0
LINE
  5
261
  8
0
 62
     1
 10
-24.713
 20
-33.226
 30
0.0
 11
-24.9667
 21
-32.6561
 31
0.0
  0
LINE
  5
262
  8
0
 62
     1
 10
-24.9667
 20
-32.6561
 30
0.0
 11
-24.9667
 21
-32.0324
 31
0.0
  0
LINE
  5
263
  8
0
 62
     1
 10
-24.9667
 20
-32.0324
 30
0.0
 11
-24.713
 21
-31.4626
 31
0.0
  0
LINE
  5
264
  8
0
 62
     1
 10
-24.713
 20
-31.4626
 30
0.0
 11
-24.2495
 21
-31.0452
 31
0.0
  0
LINE
  5
265
  8
0
 62
     1
 10
-24.2495
 20
-31.0452
 30
0.0
 11
-23.6563
 21
-30.8525
 31
0.0
  0
LINE
  5
266
  8
0
 62
     1
 10
-23.6563
 20
-30.8525
 30
0.0
 11
-23.036
 21
-30.9177
 31
0.0
  0
LINE
  5
267
  8
0
 62
     1
 10
-23.036
 20
-30.9177
 30
0.0
 11
-22.4958
 21
-31.2296
 31
0.0
  0
LINE
  5
268
  8
0
 62
     1
 10
-22.4958
 20
-31.2296
 30
0.0
 11
-22.1292
 21
-31.7342
 31
0.0
  0
LINE
  5
269
  8
0
 62
     1
 10
-22.1292
 20
-31.7342
 30
0.0
 11
-21.9995
 21
-32.3443
 31
0.0
  0
LINE
  5
26A
  8
0
 62
     1
 10
-21.9995
 20
-32.3443
 30
0.0
 11
-22.1292
 21
-32.9544
 31
0.0
  0
LINE
  5
26B
  8
0
 62
     1
 10
-22.1292
 20
-32.9544
 30
0.0
 11
-22.4958
 21
-33.459
 31
0.0
  0
LINE
  5
26C
  8
0
 62
     1
 10
-22.4958
 20
-33.459
 30
0.0
 11
-23.036
 21
-33.7709
 31
0.0
  0
LINE
  5
26D
  8
0
 62
     1
 10
-23.036
 20
-33.7709
 30
0.0
 11
-23.6563
 21
-33.836
 31
0.0
  0
LINE
  5
26E
  8
0
 62
     1
 10
-23.6563
 20
-33.836
 30
0.0
 11
-24.2495
 21
-33.6433
 31
0.0
  0
LINE
  5
26F
  8
0
 62
     1
 10
17.4004
 20
-36.9212
 30
0.0
 11
16.9369
 21
-36.5039
 31
0.0
  0
LINE
  5
270
  8
0
 62
     1
 10
16.9369
 20
-36.5039
 30
0.0
 11
16.6832
 21
-35.9341
 31
0.0
  0
LINE
  5
271
  8
0
 62
     1
 10
16.6832
 20
-35.9341
 30
0.0
 11
16.6832
 21
-35.3103
 31
0.0
  0
LINE
  5
272
  8
0
 62
     1
 10
16.6832
 20
-35.3103
 30
0.0
 11
16.9369
 21
-34.7405
 31
0.0
  0
LINE
  5
273
  8
0
 62
     1
 10
16.9369
 20
-34.7405
 30
0.0
 11
17.4004
 21
-34.3232
 31
0.0
  0
LINE
  5
274
  8
0
 62
     1
 10
17.4004
 20
-34.3232
 30
0.0
 11
17.9936
 21
-34.1304
 31
0.0
  0
LINE
  5
275
  8
0
 62
     1
 10
17.9936
 20
-34.1304
 30
0.0
 11
18.6139
 21
-34.1956
 31
0.0
  0
LINE
  5
276
  8
0
 62
     1
 10
18.6139
 20
-34.1956
 30
0.0
 11
19.1541
 21
-34.5075
 31
0.0
  0
LINE
  5
277
  8
0
 62
     1
 10
19.1541
 20
-34.5075
 30
0.0
 11
19.5207
 21
-35.0121
 31
0.0
  0
LINE
  5
278
  8
0
 62
     1
 10
19.5207
 20
-35.0121
 30
0.0
 11
19.6504
 21
-35.6222
 31
0.0
  0
LINE
  5
279
  8
0
 62
     1
 10
19.6504
 20
-35.6222
 30
0.0
 11
19.5207
 21
-36.2323
 31
0.0
  0
LINE
  5
27A
  8
0
 62
     1
 10
19.5207
 20
-36.2323
 30
0.0
 11
19.1541
 21
-36.7369
 31
0.0
  0
LINE
  5
27B
  8
0
 62
     1
 10
19.1541
 20
-36.7369
 30
0.0
 11
18.6139
 21
-37.0488
 31
0.0
  0
LINE
  5
27C
  8
0
 62
     1
 10
18.6139
 20
-37.0488
 30
0.0
 11
17.9936
 21
-37.114
 31
0.0
  0
LINE
  5
27D
  8
0
 62
     1
 10
17.9936
 20
-37.114
 30
0.0
 11
17.4004
 21
-36.9212
 31
0.0
  0
LINE
  5
27E
  8
0
 62
     1
 10
-18.9004
 20
-36.9212
 30
0.0
 11
-19.3639
 21
-36.5039
 31
0.0
  0
LINE
  5
27F
  8
0
 62
     1
 10
-19.3639
 20
-36.5039
 30
0.0
 11
-19.6176
 21
-35.9341
 31
0.0
  0
LINE
  5
280
  8
0
 62
     1
 10
-19.6176
 20
-35.9341
 30
0.0
 11
-19.6176
 21
-35.3103
 31
0.0
  0
LINE
  5
281
  8
0
 62
     1
 10
-19.6176
 20
-35.3103
 30
0.0
 11
-19.3639
 21
-34.7405
 31
0.0
  0
LINE
  5
282
  8
0
 62
     1
 10
-19.3639
 20
-34.7405
 30
0.0
 11
-18.9004
 21
-34.3232
 31
0.0
  0
LINE
  5
283
  8
0
 62
     1
 10
-18.9004
 20
-34.3232
 30
0.0
 11
-18.3072
 21
-34.1304
 31
0.0
  0
LINE
  5
284
  8
0
 62
     1
 10
-18.3072
 20
-34.1304
 30
0.0
 11
-17.6869
 21
-34.1956
 31
0.0
  0
LINE
  5
285
  8
0
 62
     1
 10
-17.6869
 20
-34.1956
 30
0.0
 11
-17.1467
 21
-34.5075
 31
0.0
  0
LINE
  5
286
  8
0
 62
     1
 10
-17.1467
 20
-34.5075
 30
0.0
 11
-16.7801
 21
-35.0121
 31
0.0
  0
LINE
  5
287
  8
0
 62
     1
 10
-16.7801
 20
-35.0121
 30
0.0
 11
-16.6504
 21
-35.6222
 31
0.0
  0
LINE
  5
288
  8
0
 62
     1
 10
-16.6504
 20
-35.6222
 30
0.0
 11
-16.7801
 21
-36.2323
 31
0.0
  0
LINE
  5
289
  8
0
 62
     1
 10
-16.7801
 20
-36.2323
 30
0.0
 11
-17.1467
 21
-36.7369
 31
0.0
  0
LINE
  5
28A
  8
0
 62
     1
 10
-17.1467
 20
-36.7369
 30
0.0
 11
-17.6869
 21
-37.0488
 31
0.0
  0
LINE
  5
28B
  8
0
 62
     1
 10
-17.6869
 20
-37.0488
 30
0.0
 11
-18.3072
 21
-37.114
 31
0.0
  0
LINE
  5
28C
  8
0
 62
     1
 10
-18.3072
 20
-37.114
 30
0.0
 11
-18.9004
 21
-36.9212
 31
0.0
  0
LINE
  5
28D
  8
0
 62
     1
 10
11.6044
 20
-39.322
 30
0.0
 11
11.1409
 21
-38.9046
 31
0.0
  0
LINE
  5
28E
  8
0
 62
     1
 10
11.1409
 20
-38.9046
 30
0.0
 11
10.8872
 21
-38.3348
 31
0.0
  0
LINE
  5
28F
  8
0
 62
     1
 10
10.8872
 20
-38.3348
 30
0.0
 11
10.8872
 21
-37.7111
 31
0.0
  0
LINE
  5
290
  8
0
 62
     1
 10
10.8872
 20
-37.7111
 30
0.0
 11
11.1409
 21
-37.1413
 31
0.0
  0
LINE
  5
291
  8
0
 62
     1
 10
11.1409
 20
-37.1413
 30
0.0
 11
11.6044
 21
-36.7239
 31
0.0
  0
LINE
  5
292
  8
0
 62
     1
 10
11.6044
 20
-36.7239
 30
0.0
 11
12.1976
 21
-36.5312
 31
0.0
  0
LINE
  5
293
  8
0
 62
     1
 10
12.1976
 20
-36.5312
 30
0.0
 11
12.8179
 21
-36.5964
 31
0.0
  0
LINE
  5
294
  8
0
 62
     1
 10
12.8179
 20
-36.5964
 30
0.0
 11
13.3581
 21
-36.9082
 31
0.0
  0
LINE
  5
295
  8
0
 62
     1
 10
13.3581
 20
-36.9082
 30
0.0
 11
13.7247
 21
-37.4129
 31
0.0
  0
LINE
  5
296
  8
0
 62
     1
 10
13.7247
 20
-37.4129
 30
0.0
 11
13.8544
 21
-38.023
 31
0.0
  0
LINE
  5
297
  8
0
 62
     1
 10
13.8544
 20
-38.023
 30
0.0
 11
13.7247
 21
-38.6331
 31
0.0
  0
LINE
  5
298
  8
0
 62
     1
 10
13.7247
 20
-38.6331
 30
0.0
 11
13.3581
 21
-39.1377
 31
0.0
  0
LINE
  5
299
  8
0
 62
     1
 10
13.3581
 20
-39.1377
 30
0.0
 11
12.8179
 21
-39.4496
 31
0.0
  0
LINE
  5
29A
  8
0
 62
     1
 10
12.8179
 20
-39.4496
 30
0.0
 11
12.1976
 21
-39.5148
 31
0.0
  0
LINE
  5
29B
  8
0
 62
     1
 10
12.1976
 20
-39.5148
 30
0.0
 11
11.6044
 21
-39.322
 31
0.0
  0
LINE
  5
29C
  8
0
 62
     1
 10
-13.1044
 20
-39.322
 30
0.0
 11
-13.5679
 21
-38.9046
 31
0.0
  0
LINE
  5
29D
  8
0
 62
     1
 10
-13.5679
 20
-38.9046
 30
0.0
 11
-13.8216
 21
-38.3348
 31
0.0
  0
LINE
  5
29E
  8
0
 62
     1
 10
-13.8216
 20
-38.3348
 30
0.0
 11
-13.8216
 21
-37.7111
 31
0.0
  0
LINE
  5
29F
  8
0
 62
     1
 10
-13.8216
 20
-37.7111
 30
0.0
 11
-13.5679
 21
-37.1413
 31
0.0
  0
LINE
  5
2A0
  8
0
 62
     1
 10
-13.5679
 20
-37.1413
 30
0.0
 11
-13.1044
 21
-36.7239
 31
0.0
  0
LINE
  5
2A1
  8
0
 62
     1
 10
-13.1044
 20
-36.7239
 30
0.0
 11
-12.5112
 21
-36.5312
 31
0.0
  0
LINE
  5
2A2
  8
0
 62
     1
 10
-12.5112
 20
-36.5312
 30
0.0
 11
-11.8909
 21
-36.5964
 31
0.0
  0
LINE
  5
2A3
  8
0
 62
     1
 10
-11.8909
 20
-36.5964
 30
0.0
 11
-11.3507
 21
-36.9082
 31
0.0
  0
LINE
  5
2A4
  8
0
 62
     1
 10
-11.3507
 20
-36.9082
 30
0.0
 11
-10.9841
 21
-37.4129
 31
0.0
  0
LINE
  5
2A5
  8
0
 62
     1
 10
-10.9841
 20
-37.4129
 30
0.0
 11
-10.8544
 21
-38.023
 31
0.0
  0
LINE
  5
2A6
  8
0
 62
     1
 10
-10.8544
 20
-38.023
 30
0.0
 11
-10.9841
 21
-38.6331
 31
0.0
  0
LINE
  5
2A7
  8
0
 62
     1
 10
-10.9841
 20
-38.6331
 30
0.0
 11
-11.3507
 21
-39.1377
 31
0.0
  0
LINE
  5
2A8
  8
0
 62
     1
 10
-11.3507
 20
-39.1377
 30
0.0
 11
-11.8909
 21
-39.4496
 31
0.0
  0
LINE
  5
2A9
  8
0
 62
     1
 10
-11.8909
 20
-39.4496
 30
0.0
 11
-12.5112
 21
-39.5148
 31
0.0
  0
LINE
  5
2AA
  8
0
 62
     1
 10
-12.5112
 20
-39.5148
 30
0.0
 11
-13.1044
 21
-39.322
 31
0.0
  0
LINE
  5
2AB
  8
0
 62
     1
 10
-7.0042
 20
-40.7865
 30
0.0
 11
-7.46773
 21
-40.3692
 31
0.0
  0
LINE
  5
2AC
  8
0
 62
     1
 10
-7.46773
 20
-40.3692
 30
0.0
 11
-7.72142
 21
-39.7994
 31
0.0
  0
LINE
  5
2AD
  8
0
 62
     1
 10
-7.72142
 20
-39.7994
 30
0.0
 11
-7.72142
 21
-39.1756
 31
0.0
  0
LINE
  5
2AE
  8
0
 62
     1
 10
-7.72142
 20
-39.1756
 30
0.0
 11
-7.46773
 21
-38.6058
 31
0.0
  0
LINE
  5
2AF
  8
0
 62
     1
 10
-7.46773
 20
-38.6058
 30
0.0
 11
-7.0042
 21
-38.1885
 31
0.0
  0
LINE
  5
2B0
  8
0
 62
     1
 10
-7.0042
 20
-38.1885
 30
0.0
 11
-6.411
 21
-37.9957
 31
0.0
  0
LINE
  5
2B1
  8
0
 62
     1
 10
-6.411
 20
-37.9957
 30
0.0
 11
-5.79068
 21
-38.0609
 31
0.0
  0
LINE
  5
2B2
  8
0
 62
     1
 10
-5.79068
 20
-38.0609
 30
0.0
 11
-5.2505
 21
-38.3728
 31
0.0
  0
LINE
  5
2B3
  8
0
 62
     1
 10
-5.2505
 20
-38.3728
 30
0.0
 11
-4.88388
 21
-38.8774
 31
0.0
  0
LINE
  5
2B4
  8
0
 62
     1
 10
-4.88388
 20
-38.8774
 30
0.0
 11
-4.7542
 21
-39.4875
 31
0.0
  0
LINE
  5
2B5
  8
0
 62
     1
 10
-4.7542
 20
-39.4875
 30
0.0
 11
-4.88388
 21
-40.0976
 31
0.0
  0
LINE
  5
2B6
  8
0
 62
     1
 10
-4.88388
 20
-40.0976
 30
0.0
 11
-5.2505
 21
-40.6022
 31
0.0
  0
LINE
  5
2B7
  8
0
 62
     1
 10
-5.2505
 20
-40.6022
 30
0.0
 11
-5.79068
 21
-40.9141
 31
0.0
  0
LINE
  5
2B8
  8
0
 62
     1
 10
-5.79068
 20
-40.9141
 30
0.0
 11
-6.411
 21
-40.9793
 31
0.0
  0
LINE
  5
2B9
  8
0
 62
     1
 10
-6.411
 20
-40.9793
 30
0.0
 11
-7.0042
 21
-40.7865
 31
0.0
  0
LINE
  5
2BA
  8
0
 62
     1
 10
5.5042
 20
-40.7865
 30
0.0
 11
5.04068
 21
-40.3692
 31
0.0
  0
LINE
  5
2BB
  8
0
 62
     1
 10
5.04068
 20
-40.3692
 30
0.0
 11
4.78697
 21
-39.7994
 31
0.0
  0
LINE
  5
2BC
  8
0
 62
     1
 10
4.78697
 20
-39.7994
 30
0.0
 11
4.78697
 21
-39.1756
 31
0.0
  0
LINE
  5
2BD
  8
0
 62
     1
 10
4.78697
 20
-39.1756
 30
0.0
 11
5.04068
 21
-38.6058
 31
0.0
  0
LINE
  5
2BE
  8
0
 62
     1
 10
5.04068
 20
-38.6058
 30
0.0
 11
5.5042
 21
-38.1885
 31
0.0
  0
LINE
  5
2BF
  8
0
 62
     1
 10
5.5042
 20
-38.1885
 30
0.0
 11
6.09741
 21
-37.9957
 31
0.0
  0
LINE
  5
2C0
  8
0
 62
     1
 10
6.09741
 20
-37.9957
 30
0.0
 11
6.71773
 21
-38.0609
 31
0.0
  0
LINE
  5
2C1
  8
0
 62
     1
 10
6.71773
 20
-38.0609
 30
0.0
 11
7.25789
 21
-38.3728
 31
0.0
  0
LINE
  5
2C2
  8
0
 62
     1
 10
7.25789
 20
-38.3728
 30
0.0
 11
7.62451
 21
-38.8774
 31
0.0
  0
LINE
  5
2C3
  8
0
 62
     1
 10
7.62451
 20
-38.8774
 30
0.0
 11
7.7542
 21
-39.4875
 31
0.0
  0
LINE
  5
2C4
  8
0
 62
     1
 10
7.7542
 20
-39.4875
 30
0.0
 11
7.62451
 21
-40.0976
 31
0.0
  0
LINE
  5
2C5
  8
0
 62
     1
 10
7.62451
 20
-40.0976
 30
0.0
 11
7.25789
 21
-40.6022
 31
0.0
  0
LINE
  5
2C6
  8
0
 62
     1
 10
7.25789
 20
-40.6022
 30
0.0
 11
6.71773
 21
-40.9141
 31
0.0
  0
LINE
  5
2C7
  8
0
 62
     1
 10
6.71773
 20
-40.9141
 30
0.0
 11
6.09741
 21
-40.9793
 31
0.0
  0
LINE
  5
2C8
  8
0
 62
     1
 10
6.09741
 20
-40.9793
 30
0.0
 11
5.5042
 21
-40.7865
 31
0.0
  0
LINE
  5
2C9
  8
0
 62
     1
 10
-0.75
 20
-41.2787
 30
0.0
 11
-1.21352
 21
-40.8614
 31
0.0
  0
LINE
  5
2CA
  8
0
 62
     1
 10
-1.21352
 20
-40.8614
 30
0.0
 11
-1.46721
 21
-40.2916
 31
0.0
  0
LINE
  5
2CB
  8
0
 62
     1
 10
-1.46721
 20
-40.2916
 30
0.0
 11
-1.46721
 21
-39.6678
 31
0.0
  0
LINE
  5
2CC
  8
0
 62
     1
 10
-1.46721
 20
-39.6678
 30
0.0
 11
-1.21352
 21
-39.098
 31
0.0
  0
LINE
  5
2CD
  8
0
 62
     1
 10
-1.21352
 20
-39.098
 30
0.0
 11
-0.75
 21
-38.6807
 31
0.0
  0
LINE
  5
2CE
  8
0
 62
     1
 10
-0.75
 20
-38.6807
 30
0.0
 11
-0.156784
 21
-38.4879
 31
0.0
  0
LINE
  5
2CF
  8
0
 62
     1
 10
-0.156784
 20
-38.4879
 30
0.0
 11
0.463516
 21
-38.5531
 31
0.0
  0
LINE
  5
2D0
  8
0
 62
     1
 10
0.463516
 20
-38.5531
 30
0.0
 11
1.00369
 21
-38.865
 31
0.0
  0
LINE
  5
2D1
  8
0
 62
     1
 10
1.00369
 20
-38.865
 30
0.0
 11
1.37032
 21
-39.3696
 31
0.0
  0
LINE
  5
2D2
  8
0
 62
     1
 10
1.37032
 20
-39.3696
 30
0.0
 11
1.5
 21
-39.9797
 31
0.0
  0
LINE
  5
2D3
  8
0
 62
     1
 10
1.5
 20
-39.9797
 30
0.0
 11
1.37032
 21
-40.5898
 31
0.0
  0
LINE
  5
2D4
  8
0
 62
     1
 10
1.37032
 20
-40.5898
 30
0.0
 11
1.00369
 21
-41.0944
 31
0.0
  0
LINE
  5
2D5
  8
0
 62
     1
 10
1.00369
 20
-41.0944
 30
0.0
 11
0.463516
 21
-41.4063
 31
0.0
  0
LINE
  5
2D6
  8
0
 62
     1
 10
0.463516
 20
-41.4063
 30
0.0
 11
-0.156784
 21
-41.4715
 31
0.0
  0
LINE
  5
2D7
  8
0
 62
     1
 10
-0.156784
 20
-41.4715
 30
0.0
 11
-0.75
 21
-41.2787
 31
0.0
  0
CIRCLE
  5
2D8
  8
0
 62
     1
 10
0.0
 20
0.0
 30
0.0
 40
2.5
  0
LINE
  5
565
  8
0
 62
     1
 10
18.0
 20
-10.0
 30
0.0
 11
22.0
 21
-10.0
 31
0.0
  0
LINE
  5
566
  8
0
 62
     1
 10
22.0
 20
-10.0
 30
0.0
 11
22.0
 21
10.0
 31
0.0
  0
LINE
  5
567
  8
0
 62
     1
 10
22.0
 20
10.0
 30
0.0
 11
18.0
 21
10.0
 31
0.0
  0
LINE
  5
568
  8
0
 62
     1
 10
18.0
 20
10.0
 30
0.0
 11
18.0
 21
-10.0
 31
0.0
  0
LINE
  5
569
  8
0
 62
     1
 10
-22.0
 20
-10.0
 30
0.0
 11
-18.0
 21
-10.0
 31
0.0
  0
LINE
  5
56A
  8
0
 62
     1
 10
-18.0
 20
-10.0
 30
0.0
 11
-18.0
 21
10.0
 31
0.0
  0
LINE
  5
56B
  8
0
 62
     1
 10
-18.0
 20
10.0
 30
0.0
 11
-22.0
 21
10.0
 31
0.0
  0
LINE
  5
56C
  8
0
 62
     1
 10
-22.0
 20
10.0
 30
0.0
 11
-22.0
 21
-10.0
 31
0.0
  0
LINE
  5
56D
  8
0
 62
     1
 10
10.0
 20
18.0
 30
0.0
 11
10.0
 21
21.99999999999999
 31
0.0
  0
LINE
  5
56E
  8
0
 62
     1
 10
10.0
 20
21.99999999999999
 30
0.0
 11
-10.0
 21
22.0
 31
0.0
  0
LINE
  5
56F
  8
0
 62
     1
 10
-10.0
 20
22.0
 30
0.0
 11
-9.999999999999998
 21
18.0
 31
0.0
  0
LINE
  5
570
  8
0
 62
     1
 10
-9.999999999999998
 20
18.0
 30
0.0
 11
10.0
 21
18.0
 31
0.0
  0
LINE
  5
571
  8
0
 62
     1
 10
10.0
 20
-22.0
 30
0.0
 11
10.0
 21
-18.00000000000001
 31
0.0
  0
LINE
  5
572
  8
0
 62
     1
 10
10.0
 20
-18.00000000000001
 30
0.0
 11
-10.0
 21
-18.0
 31
0.0
  0
LINE
  5
573
  8
0
 62
     1
 10
-10.0
 20
-18.0
 30
0.0
 11
-9.999999999999998
 21
-22.0
 31
0.0
  0
LINE
  5
574
  8
0
 62
     1
 10
-9.999999999999998
 20
-22.0
 30
0.0
 11
10.0
 21
-22.0
 31
0.0
  0
VIEWPORT
  5
64F
 67
     1
  8
0
 10
5.25
 20
4.0
 30
0.0
 40
11.638
 41
8.993
 68
     1
 69
     1
1001
ACAD
1000
MVIEW
1002
{
1070
    16
1010
0.0
1020
0.0
1030
0.0
1010
0.0
1020
0.0
1030
1.0
1040
0.0
1040
8.993
1040
5.25
1040
4.0
1040
50.0
1040
0.0
1040
0.0
1070
     0
1070
   100
1070
     0
1070
     3
1070
     0
1070
     0
1070
     0
1070
     0
1040
0.0
1040
0.0
1040
0.0
1040
0.5
1040
0.5
1040
0.5
1040
0.5
1070
     0
1002
{
1002
}
1002
}
  0
ENDSEC
  0
EOF
