%TF.GenerationSoftware,KiCad,Pcbnew,(5.1.9)-1*%
%TF.CreationDate,2021-10-09T18:12:39+01:00*%
%TF.ProjectId,btctestv0,62746374-6573-4747-9630-2e6b69636164,rev?*%
%TF.SameCoordinates,Original*%
%TF.FileFunction,Legend,Top*%
%TF.FilePolarity,Positive*%
%FSLAX46Y46*%
G04 Gerber Fmt 4.6, Leading zero omitted, Abs format (unit mm)*
G04 Created by KiCad (PCBNEW (5.1.9)-1) date 2021-10-09 18:12:39*
%MOMM*%
%LPD*%
G01*
G04 APERTURE LIST*
%ADD10C,0.120000*%
%ADD11C,0.100000*%
%ADD12C,0.150000*%
G04 APERTURE END LIST*
D10*
%TO.C,REF\u002A\u002A*%
X89970000Y-87150000D02*
X86420000Y-87150000D01*
X86420000Y-87150000D02*
X86420000Y-77950000D01*
X86420000Y-77950000D02*
X89970000Y-77950000D01*
X96670000Y-77950000D02*
X99120000Y-77950000D01*
X99120000Y-77950000D02*
X99120000Y-78350000D01*
X99120000Y-78350000D02*
X101120000Y-78350000D01*
X101120000Y-78350000D02*
X101120000Y-81350000D01*
X101120000Y-85150000D02*
X101120000Y-86750000D01*
X101120000Y-86750000D02*
X99120000Y-86750000D01*
X99120000Y-86750000D02*
X99120000Y-87150000D01*
X99120000Y-87150000D02*
X96670000Y-87150000D01*
X103020000Y-81360000D02*
X104760000Y-81360000D01*
X104760000Y-81360000D02*
X104760000Y-83100000D01*
X163135000Y-87920000D02*
X163435507Y-87920000D01*
X164224493Y-87920000D02*
X164525000Y-87920000D01*
X163135000Y-87045000D02*
X163135000Y-87920000D01*
X164525000Y-87045000D02*
X164525000Y-87920000D01*
X163135000Y-87045000D02*
X163221724Y-87045000D01*
X164438276Y-87045000D02*
X164525000Y-87045000D01*
X163135000Y-86360000D02*
X163135000Y-85675000D01*
X163135000Y-85675000D02*
X163830000Y-85675000D01*
X172860000Y-78165000D02*
X173682470Y-78165000D01*
X175567530Y-78165000D02*
X176390000Y-78165000D01*
X174297530Y-78165000D02*
X174952470Y-78165000D01*
X172860000Y-74420000D02*
X172860000Y-78165000D01*
X176390000Y-72965000D02*
X176390000Y-78165000D01*
X172860000Y-74420000D02*
X173426529Y-74420000D01*
X174553471Y-74420000D02*
X174696529Y-74420000D01*
X174750000Y-74366529D02*
X174750000Y-74223471D01*
X174750000Y-73096529D02*
X174750000Y-72965000D01*
X174750000Y-72965000D02*
X174952470Y-72965000D01*
X175567530Y-72965000D02*
X176390000Y-72965000D01*
X172860000Y-73660000D02*
X172860000Y-72900000D01*
X172860000Y-72900000D02*
X173990000Y-72900000D01*
D11*
X140160000Y-55880000D02*
G75*
G03*
X140160000Y-55880000I-50000J0D01*
G01*
X160480000Y-77470000D02*
G75*
G03*
X160480000Y-77470000I-50000J0D01*
G01*
X141430000Y-83820000D02*
G75*
G03*
X141430000Y-83820000I-50000J0D01*
G01*
D10*
%TO.C,U8*%
X109130000Y-67985000D02*
X108030000Y-67985000D01*
X109130000Y-68935000D02*
X109130000Y-67985000D01*
X110630000Y-68935000D02*
X109130000Y-68935000D01*
X109130000Y-59485000D02*
X104005000Y-59485000D01*
X109130000Y-58535000D02*
X109130000Y-59485000D01*
X110630000Y-58535000D02*
X109130000Y-58535000D01*
%TO.C,U7*%
X169380000Y-88540000D02*
X170980000Y-88540000D01*
X170180000Y-86720000D02*
X170980000Y-86720000D01*
%TO.C,U6*%
X137210000Y-60690000D02*
X135920000Y-60690000D01*
X137210000Y-59740000D02*
X137210000Y-60690000D01*
X138160000Y-59740000D02*
X137210000Y-59740000D01*
X157430000Y-59740000D02*
X157430000Y-60690000D01*
X156480000Y-59740000D02*
X157430000Y-59740000D01*
X137210000Y-79960000D02*
X137210000Y-79010000D01*
X138160000Y-79960000D02*
X137210000Y-79960000D01*
X157430000Y-79960000D02*
X157430000Y-79010000D01*
X156480000Y-79960000D02*
X157430000Y-79960000D01*
%TO.C,U5*%
X169730000Y-97210000D02*
X169730000Y-98450000D01*
X164280000Y-98450000D02*
X164280000Y-97210000D01*
%TO.C,U4*%
X155760000Y-97210000D02*
X155760000Y-98450000D01*
X150310000Y-98450000D02*
X150310000Y-97210000D01*
%TO.C,U3*%
X141790000Y-97210000D02*
X141790000Y-98450000D01*
X136340000Y-98450000D02*
X136340000Y-97210000D01*
%TO.C,U2*%
X127820000Y-97210000D02*
X127820000Y-98450000D01*
X122370000Y-98450000D02*
X122370000Y-97210000D01*
%TO.C,U1*%
X113850000Y-97210000D02*
X113850000Y-98450000D01*
X108400000Y-98450000D02*
X108400000Y-97210000D01*
%TO.C,A5*%
X191900000Y-26540000D02*
X179070000Y-26540000D01*
X191900000Y-47120000D02*
X191900000Y-26540000D01*
X176400000Y-47120000D02*
X191900000Y-47120000D01*
X176400000Y-29210000D02*
X176400000Y-47120000D01*
X179070000Y-29210000D02*
X176400000Y-29210000D01*
X179070000Y-26540000D02*
X179070000Y-29210000D01*
X176400000Y-26540000D02*
X176400000Y-27940000D01*
X177800000Y-26540000D02*
X176400000Y-26540000D01*
X179070000Y-29210000D02*
X179070000Y-47120000D01*
X189230000Y-26540000D02*
X189230000Y-47120000D01*
%TO.C,A4*%
X172850000Y-26540000D02*
X160020000Y-26540000D01*
X172850000Y-47120000D02*
X172850000Y-26540000D01*
X157350000Y-47120000D02*
X172850000Y-47120000D01*
X157350000Y-29210000D02*
X157350000Y-47120000D01*
X160020000Y-29210000D02*
X157350000Y-29210000D01*
X160020000Y-26540000D02*
X160020000Y-29210000D01*
X157350000Y-26540000D02*
X157350000Y-27940000D01*
X158750000Y-26540000D02*
X157350000Y-26540000D01*
X160020000Y-29210000D02*
X160020000Y-47120000D01*
X170180000Y-26540000D02*
X170180000Y-47120000D01*
%TO.C,A3*%
X153800000Y-26540000D02*
X140970000Y-26540000D01*
X153800000Y-47120000D02*
X153800000Y-26540000D01*
X138300000Y-47120000D02*
X153800000Y-47120000D01*
X138300000Y-29210000D02*
X138300000Y-47120000D01*
X140970000Y-29210000D02*
X138300000Y-29210000D01*
X140970000Y-26540000D02*
X140970000Y-29210000D01*
X138300000Y-26540000D02*
X138300000Y-27940000D01*
X139700000Y-26540000D02*
X138300000Y-26540000D01*
X140970000Y-29210000D02*
X140970000Y-47120000D01*
X151130000Y-26540000D02*
X151130000Y-47120000D01*
%TO.C,A2*%
X134750000Y-26540000D02*
X121920000Y-26540000D01*
X134750000Y-47120000D02*
X134750000Y-26540000D01*
X119250000Y-47120000D02*
X134750000Y-47120000D01*
X119250000Y-29210000D02*
X119250000Y-47120000D01*
X121920000Y-29210000D02*
X119250000Y-29210000D01*
X121920000Y-26540000D02*
X121920000Y-29210000D01*
X119250000Y-26540000D02*
X119250000Y-27940000D01*
X120650000Y-26540000D02*
X119250000Y-26540000D01*
X121920000Y-29210000D02*
X121920000Y-47120000D01*
X132080000Y-26540000D02*
X132080000Y-47120000D01*
%TO.C,A1*%
X115700000Y-26540000D02*
X102870000Y-26540000D01*
X115700000Y-47120000D02*
X115700000Y-26540000D01*
X100200000Y-47120000D02*
X115700000Y-47120000D01*
X100200000Y-29210000D02*
X100200000Y-47120000D01*
X102870000Y-29210000D02*
X100200000Y-29210000D01*
X102870000Y-26540000D02*
X102870000Y-29210000D01*
X100200000Y-26540000D02*
X100200000Y-27940000D01*
X101600000Y-26540000D02*
X100200000Y-26540000D01*
X102870000Y-29210000D02*
X102870000Y-47120000D01*
X113030000Y-26540000D02*
X113030000Y-47120000D01*
%TO.C,REF\u002A\u002A*%
D12*
X102722380Y-79383333D02*
X102246190Y-79716666D01*
X102722380Y-79954761D02*
X101722380Y-79954761D01*
X101722380Y-79573809D01*
X101770000Y-79478571D01*
X101817619Y-79430952D01*
X101912857Y-79383333D01*
X102055714Y-79383333D01*
X102150952Y-79430952D01*
X102198571Y-79478571D01*
X102246190Y-79573809D01*
X102246190Y-79954761D01*
X102198571Y-78954761D02*
X102198571Y-78621428D01*
X102722380Y-78478571D02*
X102722380Y-78954761D01*
X101722380Y-78954761D01*
X101722380Y-78478571D01*
X102198571Y-77716666D02*
X102198571Y-78050000D01*
X102722380Y-78050000D02*
X101722380Y-78050000D01*
X101722380Y-77573809D01*
X101722380Y-77050000D02*
X101960476Y-77050000D01*
X101865238Y-77288095D02*
X101960476Y-77050000D01*
X101865238Y-76811904D01*
X102150952Y-77192857D02*
X101960476Y-77050000D01*
X102150952Y-76907142D01*
X101722380Y-76288095D02*
X101960476Y-76288095D01*
X101865238Y-76526190D02*
X101960476Y-76288095D01*
X101865238Y-76050000D01*
X102150952Y-76430952D02*
X101960476Y-76288095D01*
X102150952Y-76145238D01*
X162496666Y-85252380D02*
X162163333Y-84776190D01*
X161925238Y-85252380D02*
X161925238Y-84252380D01*
X162306190Y-84252380D01*
X162401428Y-84300000D01*
X162449047Y-84347619D01*
X162496666Y-84442857D01*
X162496666Y-84585714D01*
X162449047Y-84680952D01*
X162401428Y-84728571D01*
X162306190Y-84776190D01*
X161925238Y-84776190D01*
X162925238Y-84728571D02*
X163258571Y-84728571D01*
X163401428Y-85252380D02*
X162925238Y-85252380D01*
X162925238Y-84252380D01*
X163401428Y-84252380D01*
X164163333Y-84728571D02*
X163830000Y-84728571D01*
X163830000Y-85252380D02*
X163830000Y-84252380D01*
X164306190Y-84252380D01*
X164830000Y-84252380D02*
X164830000Y-84490476D01*
X164591904Y-84395238D02*
X164830000Y-84490476D01*
X165068095Y-84395238D01*
X164687142Y-84680952D02*
X164830000Y-84490476D01*
X164972857Y-84680952D01*
X165591904Y-84252380D02*
X165591904Y-84490476D01*
X165353809Y-84395238D02*
X165591904Y-84490476D01*
X165830000Y-84395238D01*
X165449047Y-84680952D02*
X165591904Y-84490476D01*
X165734761Y-84680952D01*
X173291666Y-72417380D02*
X172958333Y-71941190D01*
X172720238Y-72417380D02*
X172720238Y-71417380D01*
X173101190Y-71417380D01*
X173196428Y-71465000D01*
X173244047Y-71512619D01*
X173291666Y-71607857D01*
X173291666Y-71750714D01*
X173244047Y-71845952D01*
X173196428Y-71893571D01*
X173101190Y-71941190D01*
X172720238Y-71941190D01*
X173720238Y-71893571D02*
X174053571Y-71893571D01*
X174196428Y-72417380D02*
X173720238Y-72417380D01*
X173720238Y-71417380D01*
X174196428Y-71417380D01*
X174958333Y-71893571D02*
X174625000Y-71893571D01*
X174625000Y-72417380D02*
X174625000Y-71417380D01*
X175101190Y-71417380D01*
X175625000Y-71417380D02*
X175625000Y-71655476D01*
X175386904Y-71560238D02*
X175625000Y-71655476D01*
X175863095Y-71560238D01*
X175482142Y-71845952D02*
X175625000Y-71655476D01*
X175767857Y-71845952D01*
X176386904Y-71417380D02*
X176386904Y-71655476D01*
X176148809Y-71560238D02*
X176386904Y-71655476D01*
X176625000Y-71560238D01*
X176244047Y-71845952D02*
X176386904Y-71655476D01*
X176529761Y-71845952D01*
X139636666Y-55282380D02*
X139303333Y-54806190D01*
X139065238Y-55282380D02*
X139065238Y-54282380D01*
X139446190Y-54282380D01*
X139541428Y-54330000D01*
X139589047Y-54377619D01*
X139636666Y-54472857D01*
X139636666Y-54615714D01*
X139589047Y-54710952D01*
X139541428Y-54758571D01*
X139446190Y-54806190D01*
X139065238Y-54806190D01*
X140065238Y-54758571D02*
X140398571Y-54758571D01*
X140541428Y-55282380D02*
X140065238Y-55282380D01*
X140065238Y-54282380D01*
X140541428Y-54282380D01*
X141303333Y-54758571D02*
X140970000Y-54758571D01*
X140970000Y-55282380D02*
X140970000Y-54282380D01*
X141446190Y-54282380D01*
X141970000Y-54282380D02*
X141970000Y-54520476D01*
X141731904Y-54425238D02*
X141970000Y-54520476D01*
X142208095Y-54425238D01*
X141827142Y-54710952D02*
X141970000Y-54520476D01*
X142112857Y-54710952D01*
X142731904Y-54282380D02*
X142731904Y-54520476D01*
X142493809Y-54425238D02*
X142731904Y-54520476D01*
X142970000Y-54425238D01*
X142589047Y-54710952D02*
X142731904Y-54520476D01*
X142874761Y-54710952D01*
X159956666Y-76872380D02*
X159623333Y-76396190D01*
X159385238Y-76872380D02*
X159385238Y-75872380D01*
X159766190Y-75872380D01*
X159861428Y-75920000D01*
X159909047Y-75967619D01*
X159956666Y-76062857D01*
X159956666Y-76205714D01*
X159909047Y-76300952D01*
X159861428Y-76348571D01*
X159766190Y-76396190D01*
X159385238Y-76396190D01*
X160385238Y-76348571D02*
X160718571Y-76348571D01*
X160861428Y-76872380D02*
X160385238Y-76872380D01*
X160385238Y-75872380D01*
X160861428Y-75872380D01*
X161623333Y-76348571D02*
X161290000Y-76348571D01*
X161290000Y-76872380D02*
X161290000Y-75872380D01*
X161766190Y-75872380D01*
X162290000Y-75872380D02*
X162290000Y-76110476D01*
X162051904Y-76015238D02*
X162290000Y-76110476D01*
X162528095Y-76015238D01*
X162147142Y-76300952D02*
X162290000Y-76110476D01*
X162432857Y-76300952D01*
X163051904Y-75872380D02*
X163051904Y-76110476D01*
X162813809Y-76015238D02*
X163051904Y-76110476D01*
X163290000Y-76015238D01*
X162909047Y-76300952D02*
X163051904Y-76110476D01*
X163194761Y-76300952D01*
X140906666Y-83222380D02*
X140573333Y-82746190D01*
X140335238Y-83222380D02*
X140335238Y-82222380D01*
X140716190Y-82222380D01*
X140811428Y-82270000D01*
X140859047Y-82317619D01*
X140906666Y-82412857D01*
X140906666Y-82555714D01*
X140859047Y-82650952D01*
X140811428Y-82698571D01*
X140716190Y-82746190D01*
X140335238Y-82746190D01*
X141335238Y-82698571D02*
X141668571Y-82698571D01*
X141811428Y-83222380D02*
X141335238Y-83222380D01*
X141335238Y-82222380D01*
X141811428Y-82222380D01*
X142573333Y-82698571D02*
X142240000Y-82698571D01*
X142240000Y-83222380D02*
X142240000Y-82222380D01*
X142716190Y-82222380D01*
X143240000Y-82222380D02*
X143240000Y-82460476D01*
X143001904Y-82365238D02*
X143240000Y-82460476D01*
X143478095Y-82365238D01*
X143097142Y-82650952D02*
X143240000Y-82460476D01*
X143382857Y-82650952D01*
X144001904Y-82222380D02*
X144001904Y-82460476D01*
X143763809Y-82365238D02*
X144001904Y-82460476D01*
X144240000Y-82365238D01*
X143859047Y-82650952D02*
X144001904Y-82460476D01*
X144144761Y-82650952D01*
%TO.C,U8*%
X111318095Y-56537380D02*
X111318095Y-57346904D01*
X111365714Y-57442142D01*
X111413333Y-57489761D01*
X111508571Y-57537380D01*
X111699047Y-57537380D01*
X111794285Y-57489761D01*
X111841904Y-57442142D01*
X111889523Y-57346904D01*
X111889523Y-56537380D01*
X112508571Y-56965952D02*
X112413333Y-56918333D01*
X112365714Y-56870714D01*
X112318095Y-56775476D01*
X112318095Y-56727857D01*
X112365714Y-56632619D01*
X112413333Y-56585000D01*
X112508571Y-56537380D01*
X112699047Y-56537380D01*
X112794285Y-56585000D01*
X112841904Y-56632619D01*
X112889523Y-56727857D01*
X112889523Y-56775476D01*
X112841904Y-56870714D01*
X112794285Y-56918333D01*
X112699047Y-56965952D01*
X112508571Y-56965952D01*
X112413333Y-57013571D01*
X112365714Y-57061190D01*
X112318095Y-57156428D01*
X112318095Y-57346904D01*
X112365714Y-57442142D01*
X112413333Y-57489761D01*
X112508571Y-57537380D01*
X112699047Y-57537380D01*
X112794285Y-57489761D01*
X112841904Y-57442142D01*
X112889523Y-57346904D01*
X112889523Y-57156428D01*
X112841904Y-57061190D01*
X112794285Y-57013571D01*
X112699047Y-56965952D01*
%TO.C,U7*%
X169418095Y-85332380D02*
X169418095Y-86141904D01*
X169465714Y-86237142D01*
X169513333Y-86284761D01*
X169608571Y-86332380D01*
X169799047Y-86332380D01*
X169894285Y-86284761D01*
X169941904Y-86237142D01*
X169989523Y-86141904D01*
X169989523Y-85332380D01*
X170370476Y-85332380D02*
X171037142Y-85332380D01*
X170608571Y-86332380D01*
%TO.C,U6*%
X146558095Y-56952380D02*
X146558095Y-57761904D01*
X146605714Y-57857142D01*
X146653333Y-57904761D01*
X146748571Y-57952380D01*
X146939047Y-57952380D01*
X147034285Y-57904761D01*
X147081904Y-57857142D01*
X147129523Y-57761904D01*
X147129523Y-56952380D01*
X148034285Y-56952380D02*
X147843809Y-56952380D01*
X147748571Y-57000000D01*
X147700952Y-57047619D01*
X147605714Y-57190476D01*
X147558095Y-57380952D01*
X147558095Y-57761904D01*
X147605714Y-57857142D01*
X147653333Y-57904761D01*
X147748571Y-57952380D01*
X147939047Y-57952380D01*
X148034285Y-57904761D01*
X148081904Y-57857142D01*
X148129523Y-57761904D01*
X148129523Y-57523809D01*
X148081904Y-57428571D01*
X148034285Y-57380952D01*
X147939047Y-57333333D01*
X147748571Y-57333333D01*
X147653333Y-57380952D01*
X147605714Y-57428571D01*
X147558095Y-57523809D01*
%TO.C,U5*%
X165608095Y-94702380D02*
X165608095Y-95511904D01*
X165655714Y-95607142D01*
X165703333Y-95654761D01*
X165798571Y-95702380D01*
X165989047Y-95702380D01*
X166084285Y-95654761D01*
X166131904Y-95607142D01*
X166179523Y-95511904D01*
X166179523Y-94702380D01*
X167131904Y-94702380D02*
X166655714Y-94702380D01*
X166608095Y-95178571D01*
X166655714Y-95130952D01*
X166750952Y-95083333D01*
X166989047Y-95083333D01*
X167084285Y-95130952D01*
X167131904Y-95178571D01*
X167179523Y-95273809D01*
X167179523Y-95511904D01*
X167131904Y-95607142D01*
X167084285Y-95654761D01*
X166989047Y-95702380D01*
X166750952Y-95702380D01*
X166655714Y-95654761D01*
X166608095Y-95607142D01*
%TO.C,U4*%
X152273095Y-95442380D02*
X152273095Y-96251904D01*
X152320714Y-96347142D01*
X152368333Y-96394761D01*
X152463571Y-96442380D01*
X152654047Y-96442380D01*
X152749285Y-96394761D01*
X152796904Y-96347142D01*
X152844523Y-96251904D01*
X152844523Y-95442380D01*
X153749285Y-95775714D02*
X153749285Y-96442380D01*
X153511190Y-95394761D02*
X153273095Y-96109047D01*
X153892142Y-96109047D01*
%TO.C,U3*%
X138303095Y-95442380D02*
X138303095Y-96251904D01*
X138350714Y-96347142D01*
X138398333Y-96394761D01*
X138493571Y-96442380D01*
X138684047Y-96442380D01*
X138779285Y-96394761D01*
X138826904Y-96347142D01*
X138874523Y-96251904D01*
X138874523Y-95442380D01*
X139255476Y-95442380D02*
X139874523Y-95442380D01*
X139541190Y-95823333D01*
X139684047Y-95823333D01*
X139779285Y-95870952D01*
X139826904Y-95918571D01*
X139874523Y-96013809D01*
X139874523Y-96251904D01*
X139826904Y-96347142D01*
X139779285Y-96394761D01*
X139684047Y-96442380D01*
X139398333Y-96442380D01*
X139303095Y-96394761D01*
X139255476Y-96347142D01*
%TO.C,U2*%
X124333095Y-95442380D02*
X124333095Y-96251904D01*
X124380714Y-96347142D01*
X124428333Y-96394761D01*
X124523571Y-96442380D01*
X124714047Y-96442380D01*
X124809285Y-96394761D01*
X124856904Y-96347142D01*
X124904523Y-96251904D01*
X124904523Y-95442380D01*
X125333095Y-95537619D02*
X125380714Y-95490000D01*
X125475952Y-95442380D01*
X125714047Y-95442380D01*
X125809285Y-95490000D01*
X125856904Y-95537619D01*
X125904523Y-95632857D01*
X125904523Y-95728095D01*
X125856904Y-95870952D01*
X125285476Y-96442380D01*
X125904523Y-96442380D01*
%TO.C,U1*%
X110363095Y-95442380D02*
X110363095Y-96251904D01*
X110410714Y-96347142D01*
X110458333Y-96394761D01*
X110553571Y-96442380D01*
X110744047Y-96442380D01*
X110839285Y-96394761D01*
X110886904Y-96347142D01*
X110934523Y-96251904D01*
X110934523Y-95442380D01*
X111934523Y-96442380D02*
X111363095Y-96442380D01*
X111648809Y-96442380D02*
X111648809Y-95442380D01*
X111553571Y-95585238D01*
X111458333Y-95680476D01*
X111363095Y-95728095D01*
%TO.C,A5*%
X183435714Y-25566666D02*
X183911904Y-25566666D01*
X183340476Y-25852380D02*
X183673809Y-24852380D01*
X184007142Y-25852380D01*
X184816666Y-24852380D02*
X184340476Y-24852380D01*
X184292857Y-25328571D01*
X184340476Y-25280952D01*
X184435714Y-25233333D01*
X184673809Y-25233333D01*
X184769047Y-25280952D01*
X184816666Y-25328571D01*
X184864285Y-25423809D01*
X184864285Y-25661904D01*
X184816666Y-25757142D01*
X184769047Y-25804761D01*
X184673809Y-25852380D01*
X184435714Y-25852380D01*
X184340476Y-25804761D01*
X184292857Y-25757142D01*
%TO.C,A4*%
X164385714Y-25566666D02*
X164861904Y-25566666D01*
X164290476Y-25852380D02*
X164623809Y-24852380D01*
X164957142Y-25852380D01*
X165719047Y-25185714D02*
X165719047Y-25852380D01*
X165480952Y-24804761D02*
X165242857Y-25519047D01*
X165861904Y-25519047D01*
%TO.C,A3*%
X145335714Y-25566666D02*
X145811904Y-25566666D01*
X145240476Y-25852380D02*
X145573809Y-24852380D01*
X145907142Y-25852380D01*
X146145238Y-24852380D02*
X146764285Y-24852380D01*
X146430952Y-25233333D01*
X146573809Y-25233333D01*
X146669047Y-25280952D01*
X146716666Y-25328571D01*
X146764285Y-25423809D01*
X146764285Y-25661904D01*
X146716666Y-25757142D01*
X146669047Y-25804761D01*
X146573809Y-25852380D01*
X146288095Y-25852380D01*
X146192857Y-25804761D01*
X146145238Y-25757142D01*
%TO.C,A2*%
X126285714Y-25566666D02*
X126761904Y-25566666D01*
X126190476Y-25852380D02*
X126523809Y-24852380D01*
X126857142Y-25852380D01*
X127142857Y-24947619D02*
X127190476Y-24900000D01*
X127285714Y-24852380D01*
X127523809Y-24852380D01*
X127619047Y-24900000D01*
X127666666Y-24947619D01*
X127714285Y-25042857D01*
X127714285Y-25138095D01*
X127666666Y-25280952D01*
X127095238Y-25852380D01*
X127714285Y-25852380D01*
%TO.C,A1*%
X107235714Y-25566666D02*
X107711904Y-25566666D01*
X107140476Y-25852380D02*
X107473809Y-24852380D01*
X107807142Y-25852380D01*
X108664285Y-25852380D02*
X108092857Y-25852380D01*
X108378571Y-25852380D02*
X108378571Y-24852380D01*
X108283333Y-24995238D01*
X108188095Y-25090476D01*
X108092857Y-25138095D01*
%TD*%
M02*
