%TF.GenerationSoftware,KiCad,Pcbnew,(5.1.9)-1*%
%TF.CreationDate,2021-10-09T18:12:39+01:00*%
%TF.ProjectId,btctestv0,62746374-6573-4747-9630-2e6b69636164,rev?*%
%TF.SameCoordinates,Original*%
%TF.FileFunction,Copper,L2,Bot*%
%TF.FilePolarity,Positive*%
%FSLAX46Y46*%
G04 Gerber Fmt 4.6, Leading zero omitted, Abs format (unit mm)*
G04 Created by KiCad (PCBNEW (5.1.9)-1) date 2021-10-09 18:12:39*
%MOMM*%
%LPD*%
G01*
G04 APERTURE LIST*
%TA.AperFunction,ComponentPad*%
%ADD10O,0.850000X0.850000*%
%TD*%
%TA.AperFunction,ComponentPad*%
%ADD11R,0.850000X0.850000*%
%TD*%
%TA.AperFunction,ComponentPad*%
%ADD12O,1.000000X1.000000*%
%TD*%
%TA.AperFunction,ComponentPad*%
%ADD13R,1.000000X1.000000*%
%TD*%
%TA.AperFunction,ComponentPad*%
%ADD14C,1.000000*%
%TD*%
%TA.AperFunction,ComponentPad*%
%ADD15O,1.000000X1.600000*%
%TD*%
%TA.AperFunction,ComponentPad*%
%ADD16R,1.000000X1.600000*%
%TD*%
%TA.AperFunction,ComponentPad*%
%ADD17O,1.600000X1.600000*%
%TD*%
%TA.AperFunction,ComponentPad*%
%ADD18R,1.600000X1.600000*%
%TD*%
%TA.AperFunction,ViaPad*%
%ADD19C,0.800000*%
%TD*%
%TA.AperFunction,Conductor*%
%ADD20C,0.250000*%
%TD*%
G04 APERTURE END LIST*
D10*
%TO.P,REF\u002A\u002A,2*%
%TO.N,SWDIO*%
X163830000Y-87360000D03*
D11*
%TO.P,REF\u002A\u002A,1*%
%TO.N,SWCLK*%
X163830000Y-86360000D03*
%TD*%
D12*
%TO.P,REF\u002A\u002A,8*%
%TO.N,UART4_TX*%
X175260000Y-77470000D03*
%TO.P,REF\u002A\u002A,7*%
%TO.N,+3V3*%
X173990000Y-77470000D03*
%TO.P,REF\u002A\u002A,6*%
%TO.N,N/C*%
X175260000Y-76200000D03*
%TO.P,REF\u002A\u002A,5*%
X173990000Y-76200000D03*
%TO.P,REF\u002A\u002A,4*%
X175260000Y-74930000D03*
%TO.P,REF\u002A\u002A,3*%
%TO.N,+3V3*%
X173990000Y-74930000D03*
D13*
%TO.P,REF\u002A\u002A,2*%
%TO.N,GND*%
X175260000Y-73660000D03*
D14*
%TO.P,REF\u002A\u002A,1*%
%TO.N,UART4_RX*%
X173990000Y-73660000D03*
%TD*%
D15*
%TO.P,U5,4*%
%TO.N,GND*%
X168910000Y-97790000D03*
%TO.P,U5,3*%
%TO.N,Net-(U5-Pad3)*%
X167640000Y-97790000D03*
%TO.P,U5,2*%
%TO.N,HES_4*%
X166370000Y-97790000D03*
D16*
%TO.P,U5,1*%
%TO.N,+5V*%
X165100000Y-97790000D03*
%TD*%
D15*
%TO.P,U4,4*%
%TO.N,GND*%
X154940000Y-97790000D03*
%TO.P,U4,3*%
%TO.N,Net-(U4-Pad3)*%
X153670000Y-97790000D03*
%TO.P,U4,2*%
%TO.N,HES_3*%
X152400000Y-97790000D03*
D16*
%TO.P,U4,1*%
%TO.N,+5V*%
X151130000Y-97790000D03*
%TD*%
D15*
%TO.P,U3,4*%
%TO.N,GND*%
X140970000Y-97790000D03*
%TO.P,U3,3*%
%TO.N,Net-(U3-Pad3)*%
X139700000Y-97790000D03*
%TO.P,U3,2*%
%TO.N,HES_2*%
X138430000Y-97790000D03*
D16*
%TO.P,U3,1*%
%TO.N,+5V*%
X137160000Y-97790000D03*
%TD*%
D15*
%TO.P,U2,4*%
%TO.N,GND*%
X127000000Y-97790000D03*
%TO.P,U2,3*%
%TO.N,Net-(U2-Pad3)*%
X125730000Y-97790000D03*
%TO.P,U2,2*%
%TO.N,HES_1*%
X124460000Y-97790000D03*
D16*
%TO.P,U2,1*%
%TO.N,+5V*%
X123190000Y-97790000D03*
%TD*%
D15*
%TO.P,U1,4*%
%TO.N,GND*%
X113030000Y-97790000D03*
%TO.P,U1,3*%
%TO.N,Net-(U1-Pad3)*%
X111760000Y-97790000D03*
%TO.P,U1,2*%
%TO.N,HES_0*%
X110490000Y-97790000D03*
D16*
%TO.P,U1,1*%
%TO.N,+5V*%
X109220000Y-97790000D03*
%TD*%
D17*
%TO.P,A5,16*%
%TO.N,+5V*%
X190500000Y-27940000D03*
%TO.P,A5,8*%
%TO.N,+12V*%
X177800000Y-45720000D03*
%TO.P,A5,15*%
%TO.N,MOT_0_STEP*%
X190500000Y-30480000D03*
%TO.P,A5,7*%
%TO.N,GND*%
X177800000Y-43180000D03*
%TO.P,A5,14*%
%TO.N,Net-(A5-Pad13)*%
X190500000Y-33020000D03*
%TO.P,A5,6*%
%TO.N,Net-(A5-Pad6)*%
X177800000Y-40640000D03*
%TO.P,A5,13*%
%TO.N,Net-(A5-Pad13)*%
X190500000Y-35560000D03*
%TO.P,A5,5*%
%TO.N,Net-(A5-Pad5)*%
X177800000Y-38100000D03*
%TO.P,A5,12*%
%TO.N,Net-(A5-Pad12)*%
X190500000Y-38100000D03*
%TO.P,A5,4*%
%TO.N,Net-(A5-Pad4)*%
X177800000Y-35560000D03*
%TO.P,A5,11*%
%TO.N,Net-(A5-Pad11)*%
X190500000Y-40640000D03*
%TO.P,A5,3*%
%TO.N,Net-(A5-Pad3)*%
X177800000Y-33020000D03*
%TO.P,A5,10*%
%TO.N,+5V*%
X190500000Y-43180000D03*
%TO.P,A5,2*%
X177800000Y-30480000D03*
%TO.P,A5,9*%
%TO.N,MOT_0_EN*%
X190500000Y-45720000D03*
D18*
%TO.P,A5,1*%
%TO.N,GND*%
X177800000Y-27940000D03*
%TD*%
D17*
%TO.P,A4,16*%
%TO.N,+5V*%
X171450000Y-27940000D03*
%TO.P,A4,8*%
%TO.N,+12V*%
X158750000Y-45720000D03*
%TO.P,A4,15*%
%TO.N,MOT_1_STEP*%
X171450000Y-30480000D03*
%TO.P,A4,7*%
%TO.N,GND*%
X158750000Y-43180000D03*
%TO.P,A4,14*%
%TO.N,Net-(A4-Pad13)*%
X171450000Y-33020000D03*
%TO.P,A4,6*%
%TO.N,Net-(A4-Pad6)*%
X158750000Y-40640000D03*
%TO.P,A4,13*%
%TO.N,Net-(A4-Pad13)*%
X171450000Y-35560000D03*
%TO.P,A4,5*%
%TO.N,Net-(A4-Pad5)*%
X158750000Y-38100000D03*
%TO.P,A4,12*%
%TO.N,Net-(A4-Pad12)*%
X171450000Y-38100000D03*
%TO.P,A4,4*%
%TO.N,Net-(A4-Pad4)*%
X158750000Y-35560000D03*
%TO.P,A4,11*%
%TO.N,Net-(A4-Pad11)*%
X171450000Y-40640000D03*
%TO.P,A4,3*%
%TO.N,Net-(A4-Pad3)*%
X158750000Y-33020000D03*
%TO.P,A4,10*%
%TO.N,+5V*%
X171450000Y-43180000D03*
%TO.P,A4,2*%
X158750000Y-30480000D03*
%TO.P,A4,9*%
%TO.N,MOT_1_EN*%
X171450000Y-45720000D03*
D18*
%TO.P,A4,1*%
%TO.N,GND*%
X158750000Y-27940000D03*
%TD*%
D17*
%TO.P,A3,16*%
%TO.N,+5V*%
X152400000Y-27940000D03*
%TO.P,A3,8*%
%TO.N,+12V*%
X139700000Y-45720000D03*
%TO.P,A3,15*%
%TO.N,MOT_2_STEP*%
X152400000Y-30480000D03*
%TO.P,A3,7*%
%TO.N,GND*%
X139700000Y-43180000D03*
%TO.P,A3,14*%
%TO.N,Net-(A3-Pad13)*%
X152400000Y-33020000D03*
%TO.P,A3,6*%
%TO.N,Net-(A3-Pad6)*%
X139700000Y-40640000D03*
%TO.P,A3,13*%
%TO.N,Net-(A3-Pad13)*%
X152400000Y-35560000D03*
%TO.P,A3,5*%
%TO.N,Net-(A3-Pad5)*%
X139700000Y-38100000D03*
%TO.P,A3,12*%
%TO.N,Net-(A3-Pad12)*%
X152400000Y-38100000D03*
%TO.P,A3,4*%
%TO.N,Net-(A3-Pad4)*%
X139700000Y-35560000D03*
%TO.P,A3,11*%
%TO.N,Net-(A3-Pad11)*%
X152400000Y-40640000D03*
%TO.P,A3,3*%
%TO.N,Net-(A3-Pad3)*%
X139700000Y-33020000D03*
%TO.P,A3,10*%
%TO.N,+5V*%
X152400000Y-43180000D03*
%TO.P,A3,2*%
X139700000Y-30480000D03*
%TO.P,A3,9*%
%TO.N,MOT_2_EN*%
X152400000Y-45720000D03*
D18*
%TO.P,A3,1*%
%TO.N,GND*%
X139700000Y-27940000D03*
%TD*%
D17*
%TO.P,A2,16*%
%TO.N,+5V*%
X133350000Y-27940000D03*
%TO.P,A2,8*%
%TO.N,+12V*%
X120650000Y-45720000D03*
%TO.P,A2,15*%
%TO.N,MOT_3_STEP*%
X133350000Y-30480000D03*
%TO.P,A2,7*%
%TO.N,GND*%
X120650000Y-43180000D03*
%TO.P,A2,14*%
%TO.N,Net-(A2-Pad13)*%
X133350000Y-33020000D03*
%TO.P,A2,6*%
%TO.N,Net-(A2-Pad6)*%
X120650000Y-40640000D03*
%TO.P,A2,13*%
%TO.N,Net-(A2-Pad13)*%
X133350000Y-35560000D03*
%TO.P,A2,5*%
%TO.N,Net-(A2-Pad5)*%
X120650000Y-38100000D03*
%TO.P,A2,12*%
%TO.N,Net-(A2-Pad12)*%
X133350000Y-38100000D03*
%TO.P,A2,4*%
%TO.N,Net-(A2-Pad4)*%
X120650000Y-35560000D03*
%TO.P,A2,11*%
%TO.N,Net-(A2-Pad11)*%
X133350000Y-40640000D03*
%TO.P,A2,3*%
%TO.N,Net-(A2-Pad3)*%
X120650000Y-33020000D03*
%TO.P,A2,10*%
%TO.N,+5V*%
X133350000Y-43180000D03*
%TO.P,A2,2*%
X120650000Y-30480000D03*
%TO.P,A2,9*%
%TO.N,MOT_3_EN*%
X133350000Y-45720000D03*
D18*
%TO.P,A2,1*%
%TO.N,GND*%
X120650000Y-27940000D03*
%TD*%
D17*
%TO.P,A1,16*%
%TO.N,+5V*%
X114300000Y-27940000D03*
%TO.P,A1,8*%
%TO.N,+12V*%
X101600000Y-45720000D03*
%TO.P,A1,15*%
%TO.N,MOT_4_STEP*%
X114300000Y-30480000D03*
%TO.P,A1,7*%
%TO.N,GND*%
X101600000Y-43180000D03*
%TO.P,A1,14*%
%TO.N,Net-(A1-Pad13)*%
X114300000Y-33020000D03*
%TO.P,A1,6*%
%TO.N,Net-(A1-Pad6)*%
X101600000Y-40640000D03*
%TO.P,A1,13*%
%TO.N,Net-(A1-Pad13)*%
X114300000Y-35560000D03*
%TO.P,A1,5*%
%TO.N,Net-(A1-Pad5)*%
X101600000Y-38100000D03*
%TO.P,A1,12*%
%TO.N,Net-(A1-Pad12)*%
X114300000Y-38100000D03*
%TO.P,A1,4*%
%TO.N,Net-(A1-Pad4)*%
X101600000Y-35560000D03*
%TO.P,A1,11*%
%TO.N,Net-(A1-Pad11)*%
X114300000Y-40640000D03*
%TO.P,A1,3*%
%TO.N,Net-(A1-Pad3)*%
X101600000Y-33020000D03*
%TO.P,A1,10*%
%TO.N,+5V*%
X114300000Y-43180000D03*
%TO.P,A1,2*%
X101600000Y-30480000D03*
%TO.P,A1,9*%
%TO.N,MOT_4_EN*%
X114300000Y-45720000D03*
D18*
%TO.P,A1,1*%
%TO.N,GND*%
X101600000Y-27940000D03*
%TD*%
D19*
%TO.N,*%
X173990000Y-76200000D03*
X175260000Y-76200000D03*
X175260000Y-74930000D03*
%TO.N,UART4_RX*%
X163830000Y-63500000D03*
%TO.N,UART4_TX*%
X163830000Y-64770000D03*
X175260000Y-77470000D03*
%TO.N,UART4_RX*%
X173990000Y-73660000D03*
%TO.N,Net-(A1-Pad6)*%
X101600000Y-40640000D03*
%TO.N,Net-(A1-Pad13)*%
X114300000Y-33020000D03*
X114300000Y-35560000D03*
%TO.N,Net-(A1-Pad5)*%
X101600000Y-38100000D03*
%TO.N,Net-(A1-Pad12)*%
X114300000Y-38100000D03*
%TO.N,Net-(A1-Pad4)*%
X101600000Y-35560000D03*
%TO.N,Net-(A1-Pad11)*%
X114300000Y-40640000D03*
%TO.N,Net-(A1-Pad3)*%
X101600000Y-33020000D03*
%TO.N,MOT_0_STEP*%
X127000000Y-60960000D03*
X190500000Y-30480000D03*
%TO.N,MOT_0_EN*%
X153670000Y-54610000D03*
X190500000Y-45720000D03*
%TO.N,MOT_4_STEP*%
X121920000Y-60960000D03*
X114300000Y-30480000D03*
%TO.N,Net-(A2-Pad6)*%
X120650000Y-40640000D03*
%TO.N,Net-(A2-Pad13)*%
X133350000Y-33020000D03*
X133350000Y-35560000D03*
%TO.N,Net-(A2-Pad5)*%
X120650000Y-38100000D03*
%TO.N,Net-(A2-Pad12)*%
X133350000Y-38100000D03*
%TO.N,Net-(A2-Pad4)*%
X120650000Y-35560000D03*
%TO.N,Net-(A2-Pad11)*%
X133350000Y-40640000D03*
%TO.N,Net-(A2-Pad3)*%
X120650000Y-33020000D03*
%TO.N,MOT_4_EN*%
X114300000Y-45720000D03*
X148590000Y-54610000D03*
%TO.N,MOT_1_STEP*%
X125730000Y-60960000D03*
X171450000Y-30480000D03*
%TO.N,Net-(A3-Pad6)*%
X139700000Y-40640000D03*
%TO.N,Net-(A3-Pad13)*%
X152400000Y-33020000D03*
X152400000Y-35560000D03*
%TO.N,Net-(A3-Pad5)*%
X139700000Y-38100000D03*
%TO.N,Net-(A3-Pad12)*%
X152400000Y-38100000D03*
%TO.N,Net-(A3-Pad4)*%
X139700000Y-35560000D03*
%TO.N,Net-(A3-Pad11)*%
X152400000Y-40640000D03*
%TO.N,Net-(A3-Pad3)*%
X139700000Y-33020000D03*
%TO.N,MOT_1_EN*%
X152400000Y-54610000D03*
X171450000Y-45720000D03*
%TO.N,MOT_2_STEP*%
X124460000Y-60960000D03*
X152400000Y-30480000D03*
%TO.N,Net-(A4-Pad6)*%
X158750000Y-40640000D03*
%TO.N,Net-(A4-Pad13)*%
X171450000Y-35560000D03*
X171450000Y-33020000D03*
%TO.N,Net-(A4-Pad5)*%
X158750000Y-38100000D03*
%TO.N,Net-(A4-Pad12)*%
X171450000Y-38100000D03*
%TO.N,Net-(A4-Pad4)*%
X158750000Y-35560000D03*
%TO.N,Net-(A4-Pad11)*%
X171450000Y-40640000D03*
%TO.N,Net-(A4-Pad3)*%
X158750000Y-33020000D03*
%TO.N,MOT_2_EN*%
X152400000Y-45720000D03*
X151130000Y-54610000D03*
%TO.N,MOT_3_STEP*%
X123190000Y-60960000D03*
X133350000Y-30480000D03*
%TO.N,Net-(A5-Pad6)*%
X177800000Y-40640000D03*
%TO.N,Net-(A5-Pad13)*%
X190500000Y-35560000D03*
X190500000Y-33020000D03*
%TO.N,Net-(A5-Pad5)*%
X177800000Y-38100000D03*
%TO.N,Net-(A5-Pad12)*%
X190500000Y-38100000D03*
%TO.N,Net-(A5-Pad4)*%
X177800000Y-35560000D03*
%TO.N,Net-(A5-Pad11)*%
X190500000Y-40640000D03*
%TO.N,Net-(A5-Pad3)*%
X177800000Y-33020000D03*
%TO.N,MOT_3_EN*%
X133350000Y-45720000D03*
X149860000Y-54610000D03*
%TO.N,+12V*%
X177800000Y-45720000D03*
X158750000Y-45720000D03*
X139700000Y-45720000D03*
X120650000Y-45720000D03*
X101600000Y-45720000D03*
%TO.N,+3V3*%
X173990000Y-74930000D03*
X173990000Y-77470000D03*
%TO.N,GND*%
X101600000Y-43180000D03*
X101600000Y-27940000D03*
X120650000Y-43180000D03*
X120650000Y-27940000D03*
X139700000Y-43180000D03*
X139700000Y-27940000D03*
X158750000Y-27940000D03*
X158750000Y-43180000D03*
X177800000Y-43180000D03*
X177800000Y-27940000D03*
X113030000Y-97790000D03*
X127000000Y-97790000D03*
X140970000Y-97790000D03*
X154940000Y-97790000D03*
X168910000Y-97790000D03*
X175260000Y-73660000D03*
%TO.N,HES_0*%
X129540000Y-60960000D03*
X110490000Y-97790000D03*
%TO.N,HES_1*%
X129540000Y-62230000D03*
X124460000Y-97790000D03*
%TO.N,HES_2*%
X129540000Y-63500000D03*
X138430000Y-97790000D03*
%TO.N,HES_3*%
X129540000Y-64770000D03*
X152400000Y-97790000D03*
%TO.N,HES_4*%
X129540000Y-66040000D03*
X166370000Y-97790000D03*
%TO.N,+5V*%
X190500000Y-43180000D03*
X101600000Y-30480000D03*
X114300000Y-27940000D03*
X114300000Y-43180000D03*
X120650000Y-30480000D03*
X133350000Y-27940000D03*
X133350000Y-43180000D03*
X139700000Y-30480000D03*
X152400000Y-27940000D03*
X152400000Y-43180000D03*
X171450000Y-43180000D03*
X171450000Y-27940000D03*
X158750000Y-30480000D03*
X177800000Y-30480000D03*
X190500000Y-27940000D03*
X109220000Y-97790000D03*
X123190000Y-97790000D03*
X137160000Y-97790000D03*
X151130000Y-97790000D03*
X165100000Y-97790000D03*
%TD*%
D20*
%TO.N,MOT_0_STEP*%
X194310000Y-34290000D02*
X190500000Y-30480000D01*
X196850000Y-36830000D02*
X194310000Y-34290000D01*
X182880000Y-62230000D02*
X196850000Y-48260000D01*
X139700000Y-62230000D02*
X182880000Y-62230000D01*
X196850000Y-48260000D02*
X196850000Y-36830000D01*
X137160000Y-59690000D02*
X139700000Y-62230000D01*
X128270000Y-59690000D02*
X137160000Y-59690000D01*
X127000000Y-60960000D02*
X128270000Y-59690000D01*
%TO.N,MOT_0_EN*%
X181610000Y-54610000D02*
X190500000Y-45720000D01*
X153670000Y-54610000D02*
X181610000Y-54610000D01*
%TO.N,MOT_4_STEP*%
X113174999Y-31605001D02*
X114300000Y-30480000D01*
X113174999Y-52214999D02*
X113174999Y-31605001D01*
X121920000Y-60960000D02*
X113174999Y-52214999D01*
%TO.N,MOT_4_EN*%
X123190000Y-54610000D02*
X114300000Y-45720000D01*
X148590000Y-54610000D02*
X123190000Y-54610000D01*
%TO.N,MOT_1_STEP*%
X171450000Y-30875002D02*
X171450000Y-30480000D01*
X177404998Y-36830000D02*
X171450000Y-30875002D01*
X190895002Y-36830000D02*
X177404998Y-36830000D01*
X195580000Y-41514998D02*
X190895002Y-36830000D01*
X195580000Y-46990000D02*
X195580000Y-41514998D01*
X184150000Y-58420000D02*
X195580000Y-46990000D01*
X128270000Y-58420000D02*
X184150000Y-58420000D01*
X125730000Y-60960000D02*
X128270000Y-58420000D01*
%TO.N,MOT_1_EN*%
X161290000Y-45720000D02*
X171450000Y-45720000D01*
X152400000Y-54610000D02*
X161290000Y-45720000D01*
%TO.N,MOT_2_STEP*%
X193859990Y-42334988D02*
X190750003Y-39225001D01*
X193859990Y-46170010D02*
X193859990Y-42334988D01*
X153525001Y-31605001D02*
X152400000Y-30480000D01*
X182880000Y-57150000D02*
X193859990Y-46170010D01*
X128270000Y-57150000D02*
X182880000Y-57150000D01*
X124460000Y-60960000D02*
X128270000Y-57150000D01*
X153525001Y-34540003D02*
X153525001Y-31605001D01*
X158209999Y-39225001D02*
X153525001Y-34540003D01*
X190750003Y-39225001D02*
X158209999Y-39225001D01*
%TO.N,MOT_2_EN*%
X151130000Y-46990000D02*
X152400000Y-45720000D01*
X151130000Y-54610000D02*
X151130000Y-46990000D01*
%TO.N,MOT_3_STEP*%
X123190000Y-60960000D02*
X128270000Y-55880000D01*
X182005002Y-55880000D02*
X193040000Y-44845002D01*
X128270000Y-55880000D02*
X182005002Y-55880000D01*
X193040000Y-44845002D02*
X193040000Y-43180000D01*
X134475001Y-31605001D02*
X133350000Y-30480000D01*
X193040000Y-43180000D02*
X191625001Y-41765001D01*
X134475001Y-37080003D02*
X134475001Y-31605001D01*
X139159999Y-41765001D02*
X134475001Y-37080003D01*
X191625001Y-41765001D02*
X139159999Y-41765001D01*
%TO.N,MOT_3_EN*%
X141514999Y-53884999D02*
X133350000Y-45720000D01*
X149134999Y-53884999D02*
X141514999Y-53884999D01*
X149860000Y-54610000D02*
X149134999Y-53884999D01*
%TO.N,HES_0*%
X122364999Y-84645001D02*
X110490000Y-96520000D01*
X122364999Y-68135001D02*
X122364999Y-84645001D01*
X129540000Y-60960000D02*
X122364999Y-68135001D01*
X110490000Y-96520000D02*
X110490000Y-97790000D01*
%TO.N,HES_1*%
X124460000Y-67310000D02*
X124460000Y-97790000D01*
X129540000Y-62230000D02*
X124460000Y-67310000D01*
%TO.N,HES_2*%
X138430000Y-96520000D02*
X138430000Y-97790000D01*
X125730000Y-83820000D02*
X138430000Y-96520000D01*
X125730000Y-67310000D02*
X125730000Y-83820000D01*
X129540000Y-63500000D02*
X125730000Y-67310000D01*
%TO.N,HES_3*%
X152400000Y-96520000D02*
X152400000Y-97790000D01*
X129540000Y-64770000D02*
X128270000Y-66040000D01*
X128270000Y-72390000D02*
X128905000Y-73025000D01*
X128270000Y-66040000D02*
X128270000Y-72390000D01*
X128905000Y-73025000D02*
X152400000Y-96520000D01*
X128814999Y-72934999D02*
X128905000Y-73025000D01*
%TO.N,HES_4*%
X160020000Y-96520000D02*
X129540000Y-66040000D01*
X166150000Y-96520000D02*
X160020000Y-96520000D01*
X166370000Y-96740000D02*
X166150000Y-96520000D01*
X166370000Y-97790000D02*
X166370000Y-96740000D01*
%TO.N,UART4_RX*%
X163830000Y-63500000D02*
X173990000Y-73660000D01*
%TO.N,UART4_TX*%
X174434999Y-78295001D02*
X175260000Y-77470000D01*
X173593999Y-78295001D02*
X174434999Y-78295001D01*
X163830000Y-68531002D02*
X173593999Y-78295001D01*
X163830000Y-64770000D02*
X163830000Y-68531002D01*
%TD*%
M02*
