%TF.GenerationSoftware,KiCad,Pcbnew,(5.1.9)-1*%
%TF.CreationDate,2021-10-09T18:12:39+01:00*%
%TF.ProjectId,btctestv0,62746374-6573-4747-9630-2e6b69636164,rev?*%
%TF.SameCoordinates,Original*%
%TF.FileFunction,Soldermask,Bot*%
%TF.FilePolarity,Negative*%
%FSLAX46Y46*%
G04 Gerber Fmt 4.6, Leading zero omitted, Abs format (unit mm)*
G04 Created by KiCad (PCBNEW (5.1.9)-1) date 2021-10-09 18:12:39*
%MOMM*%
%LPD*%
G01*
G04 APERTURE LIST*
%ADD10C,2.000000*%
%ADD11O,0.850000X0.850000*%
%ADD12R,0.850000X0.850000*%
%ADD13O,1.000000X1.000000*%
%ADD14R,1.000000X1.000000*%
%ADD15C,1.000000*%
%ADD16O,1.000000X1.600000*%
%ADD17R,1.000000X1.600000*%
%ADD18O,1.600000X1.600000*%
%ADD19R,1.600000X1.600000*%
G04 APERTURE END LIST*
D10*
%TO.C,REF\u002A\u002A*%
X89520000Y-82550000D03*
%TD*%
D11*
%TO.C,REF\u002A\u002A*%
X163830000Y-87360000D03*
D12*
X163830000Y-86360000D03*
%TD*%
D13*
%TO.C,REF\u002A\u002A*%
X175260000Y-77470000D03*
X173990000Y-77470000D03*
X175260000Y-76200000D03*
X173990000Y-76200000D03*
X175260000Y-74930000D03*
X173990000Y-74930000D03*
D14*
X175260000Y-73660000D03*
D15*
X173990000Y-73660000D03*
%TD*%
D16*
%TO.C,U5*%
X168910000Y-97790000D03*
X167640000Y-97790000D03*
X166370000Y-97790000D03*
D17*
X165100000Y-97790000D03*
%TD*%
D16*
%TO.C,U4*%
X154940000Y-97790000D03*
X153670000Y-97790000D03*
X152400000Y-97790000D03*
D17*
X151130000Y-97790000D03*
%TD*%
D16*
%TO.C,U3*%
X140970000Y-97790000D03*
X139700000Y-97790000D03*
X138430000Y-97790000D03*
D17*
X137160000Y-97790000D03*
%TD*%
D16*
%TO.C,U2*%
X127000000Y-97790000D03*
X125730000Y-97790000D03*
X124460000Y-97790000D03*
D17*
X123190000Y-97790000D03*
%TD*%
D16*
%TO.C,U1*%
X113030000Y-97790000D03*
X111760000Y-97790000D03*
X110490000Y-97790000D03*
D17*
X109220000Y-97790000D03*
%TD*%
D18*
%TO.C,A5*%
X190500000Y-27940000D03*
X177800000Y-45720000D03*
X190500000Y-30480000D03*
X177800000Y-43180000D03*
X190500000Y-33020000D03*
X177800000Y-40640000D03*
X190500000Y-35560000D03*
X177800000Y-38100000D03*
X190500000Y-38100000D03*
X177800000Y-35560000D03*
X190500000Y-40640000D03*
X177800000Y-33020000D03*
X190500000Y-43180000D03*
X177800000Y-30480000D03*
X190500000Y-45720000D03*
D19*
X177800000Y-27940000D03*
%TD*%
D18*
%TO.C,A4*%
X171450000Y-27940000D03*
X158750000Y-45720000D03*
X171450000Y-30480000D03*
X158750000Y-43180000D03*
X171450000Y-33020000D03*
X158750000Y-40640000D03*
X171450000Y-35560000D03*
X158750000Y-38100000D03*
X171450000Y-38100000D03*
X158750000Y-35560000D03*
X171450000Y-40640000D03*
X158750000Y-33020000D03*
X171450000Y-43180000D03*
X158750000Y-30480000D03*
X171450000Y-45720000D03*
D19*
X158750000Y-27940000D03*
%TD*%
D18*
%TO.C,A3*%
X152400000Y-27940000D03*
X139700000Y-45720000D03*
X152400000Y-30480000D03*
X139700000Y-43180000D03*
X152400000Y-33020000D03*
X139700000Y-40640000D03*
X152400000Y-35560000D03*
X139700000Y-38100000D03*
X152400000Y-38100000D03*
X139700000Y-35560000D03*
X152400000Y-40640000D03*
X139700000Y-33020000D03*
X152400000Y-43180000D03*
X139700000Y-30480000D03*
X152400000Y-45720000D03*
D19*
X139700000Y-27940000D03*
%TD*%
D18*
%TO.C,A2*%
X133350000Y-27940000D03*
X120650000Y-45720000D03*
X133350000Y-30480000D03*
X120650000Y-43180000D03*
X133350000Y-33020000D03*
X120650000Y-40640000D03*
X133350000Y-35560000D03*
X120650000Y-38100000D03*
X133350000Y-38100000D03*
X120650000Y-35560000D03*
X133350000Y-40640000D03*
X120650000Y-33020000D03*
X133350000Y-43180000D03*
X120650000Y-30480000D03*
X133350000Y-45720000D03*
D19*
X120650000Y-27940000D03*
%TD*%
D18*
%TO.C,A1*%
X114300000Y-27940000D03*
X101600000Y-45720000D03*
X114300000Y-30480000D03*
X101600000Y-43180000D03*
X114300000Y-33020000D03*
X101600000Y-40640000D03*
X114300000Y-35560000D03*
X101600000Y-38100000D03*
X114300000Y-38100000D03*
X101600000Y-35560000D03*
X114300000Y-40640000D03*
X101600000Y-33020000D03*
X114300000Y-43180000D03*
X101600000Y-30480000D03*
X114300000Y-45720000D03*
D19*
X101600000Y-27940000D03*
%TD*%
M02*
