M48
; DRILL file {KiCad (5.1.9)-1} date 10/09/21 18:12:42
; FORMAT={-:-/ absolute / metric / decimal}
; #@! TF.CreationDate,2021-10-09T18:12:42+01:00
; #@! TF.GenerationSoftware,Kicad,Pcbnew,(5.1.9)-1
FMAT,2
METRIC
T1C0.400
T2C0.500
T3C0.650
T4C0.700
T5C0.800
T6C2.000
%
G90
G05
T1
X101.6Y-27.94
X101.6Y-30.48
X101.6Y-33.02
X101.6Y-35.56
X101.6Y-38.1
X101.6Y-40.64
X101.6Y-43.18
X101.6Y-45.72
X109.22Y-97.79
X110.49Y-97.79
X113.03Y-97.79
X114.3Y-27.94
X114.3Y-30.48
X114.3Y-33.02
X114.3Y-35.56
X114.3Y-38.1
X114.3Y-40.64
X114.3Y-43.18
X114.3Y-45.72
X120.65Y-27.94
X120.65Y-30.48
X120.65Y-33.02
X120.65Y-35.56
X120.65Y-38.1
X120.65Y-40.64
X120.65Y-43.18
X120.65Y-45.72
X121.92Y-60.96
X123.19Y-60.96
X123.19Y-97.79
X124.46Y-60.96
X124.46Y-97.79
X125.73Y-60.96
X127.0Y-60.96
X127.0Y-97.79
X129.54Y-60.96
X129.54Y-62.23
X129.54Y-63.5
X129.54Y-64.77
X129.54Y-66.04
X133.35Y-27.94
X133.35Y-30.48
X133.35Y-33.02
X133.35Y-35.56
X133.35Y-38.1
X133.35Y-40.64
X133.35Y-43.18
X133.35Y-45.72
X137.16Y-97.79
X138.43Y-97.79
X139.7Y-27.94
X139.7Y-30.48
X139.7Y-33.02
X139.7Y-35.56
X139.7Y-38.1
X139.7Y-40.64
X139.7Y-43.18
X139.7Y-45.72
X140.97Y-97.79
X148.59Y-54.61
X149.86Y-54.61
X151.13Y-54.61
X151.13Y-97.79
X152.4Y-27.94
X152.4Y-30.48
X152.4Y-33.02
X152.4Y-35.56
X152.4Y-38.1
X152.4Y-40.64
X152.4Y-43.18
X152.4Y-45.72
X152.4Y-54.61
X152.4Y-97.79
X153.67Y-54.61
X154.94Y-97.79
X158.75Y-27.94
X158.75Y-30.48
X158.75Y-33.02
X158.75Y-35.56
X158.75Y-38.1
X158.75Y-40.64
X158.75Y-43.18
X158.75Y-45.72
X163.83Y-63.5
X163.83Y-64.77
X165.1Y-97.79
X166.37Y-97.79
X168.91Y-97.79
X171.45Y-27.94
X171.45Y-30.48
X171.45Y-33.02
X171.45Y-35.56
X171.45Y-38.1
X171.45Y-40.64
X171.45Y-43.18
X171.45Y-45.72
X173.99Y-73.66
X173.99Y-74.93
X173.99Y-76.2
X173.99Y-77.47
X175.26Y-73.66
X175.26Y-74.93
X175.26Y-76.2
X175.26Y-77.47
X177.8Y-27.94
X177.8Y-30.48
X177.8Y-33.02
X177.8Y-35.56
X177.8Y-38.1
X177.8Y-40.64
X177.8Y-43.18
X177.8Y-45.72
X190.5Y-27.94
X190.5Y-30.48
X190.5Y-33.02
X190.5Y-35.56
X190.5Y-38.1
X190.5Y-40.64
X190.5Y-43.18
X190.5Y-45.72
T2
X163.83Y-86.36
X163.83Y-87.36
T3
X173.99Y-73.66
X173.99Y-74.93
X173.99Y-76.2
X173.99Y-77.47
X175.26Y-73.66
X175.26Y-74.93
X175.26Y-76.2
X175.26Y-77.47
T4
X109.22Y-97.79
X110.49Y-97.79
X111.76Y-97.79
X113.03Y-97.79
X123.19Y-97.79
X124.46Y-97.79
X125.73Y-97.79
X127.0Y-97.79
X137.16Y-97.79
X138.43Y-97.79
X139.7Y-97.79
X140.97Y-97.79
X151.13Y-97.79
X152.4Y-97.79
X153.67Y-97.79
X154.94Y-97.79
X165.1Y-97.79
X166.37Y-97.79
X167.64Y-97.79
X168.91Y-97.79
T5
X101.6Y-27.94
X101.6Y-30.48
X101.6Y-33.02
X101.6Y-35.56
X101.6Y-38.1
X101.6Y-40.64
X101.6Y-43.18
X101.6Y-45.72
X114.3Y-27.94
X114.3Y-30.48
X114.3Y-33.02
X114.3Y-35.56
X114.3Y-38.1
X114.3Y-40.64
X114.3Y-43.18
X114.3Y-45.72
X120.65Y-27.94
X120.65Y-30.48
X120.65Y-33.02
X120.65Y-35.56
X120.65Y-38.1
X120.65Y-40.64
X120.65Y-43.18
X120.65Y-45.72
X133.35Y-27.94
X133.35Y-30.48
X133.35Y-33.02
X133.35Y-35.56
X133.35Y-38.1
X133.35Y-40.64
X133.35Y-43.18
X133.35Y-45.72
X139.7Y-27.94
X139.7Y-30.48
X139.7Y-33.02
X139.7Y-35.56
X139.7Y-38.1
X139.7Y-40.64
X139.7Y-43.18
X139.7Y-45.72
X152.4Y-27.94
X152.4Y-30.48
X152.4Y-33.02
X152.4Y-35.56
X152.4Y-38.1
X152.4Y-40.64
X152.4Y-43.18
X152.4Y-45.72
X158.75Y-27.94
X158.75Y-30.48
X158.75Y-33.02
X158.75Y-35.56
X158.75Y-38.1
X158.75Y-40.64
X158.75Y-43.18
X158.75Y-45.72
X171.45Y-27.94
X171.45Y-30.48
X171.45Y-33.02
X171.45Y-35.56
X171.45Y-38.1
X171.45Y-40.64
X171.45Y-43.18
X171.45Y-45.72
X177.8Y-27.94
X177.8Y-30.48
X177.8Y-33.02
X177.8Y-35.56
X177.8Y-38.1
X177.8Y-40.64
X177.8Y-43.18
X177.8Y-45.72
X190.5Y-27.94
X190.5Y-30.48
X190.5Y-33.02
X190.5Y-35.56
X190.5Y-38.1
X190.5Y-40.64
X190.5Y-43.18
X190.5Y-45.72
T6
X89.52Y-82.55
T0
M30
